<svg xmlns="http://www.w3.org/2000/svg" viewBox="0 0 237.98 245.85"><defs><style>.cls-1{font-size:33.6px;font-family:MyriadPro-Regular, Myriad Pro;letter-spacing:0.01em;}.cls-2{letter-spacing:0em;}</style></defs><title>Asset 54</title><g id="Layer_2" data-name="Layer 2"><g id="Layer_22" data-name="Layer 22"><path d="M238,77.16a2.43,2.43,0,0,0-2.31,2.44c-.12,1.24-.36,2.46-.58,3.85-1.7.1-3.35.08-5,.32a6.37,6.37,0,0,0-2.74,1.08c-1.66,1.2-3.11,2.68-4.76,3.88A3.56,3.56,0,0,0,221,92.19a8.84,8.84,0,0,1-2.6,7.09c-2.76,3-3.46,7-4.91,10.59a4.48,4.48,0,0,1-3.32,3.11c-4.72,1.24-4.7,1.33-4.9,6.19-.06,1.3.33,2.85-1.82,3-.23,0-.63,1.25-.55,1.86a42,42,0,0,0,1,4.28l-4.1,2c-1.37-5.34-2.7-10.48-4.12-16l-4,5.9c-3.64-1.12-4.11-4.24-4.85-7.12-.1-.38.37-1,.72-1.39,2.49-2.65,5-5.27,7.55-7.9.38-.39.73-.82,1.28-1.43l-11.07-1.28c-1.69-.2-3.39-.37-5.08-.59-2.81-.36-4.07-1.48-4.8-4.17-.33-1.24-.68-2.47-1.13-4.08-.58,1.72-1.61,2.59-2.83,1.61-.83-.65-1.11-2-1.72-3.24l-1.64,2.59-2.46-3.51c-.94,1.86-1.88,3.54-2.64,5.29-.5,1.14.52,3,1.62,3,2.17-.06,2.73,1.08,2.52,3.17-3.49-1-4.42,1.86-6,4.13,1.34,1.13,2.7,2.22,4,3.39.37.35.84,1,.78,1.36-.93,6.64,1.6,12.78,2.65,19.14.12.78.36,1.55.43,2.34a6.22,6.22,0,0,1-.22,1.46l-1.18-.58-3.55,1.74c-.44-1.93-.83-3.61-1.22-5.3-.14,0-.3,0-.32.06-1,3.31-4.05,3.87-6.64,4.95-1.62.68-2.54,1.48-2.2,3.34.5,2.75-.74,4.67-2.53,6.76-3.1,3.62-7.26,5.38-11.23,7.54a11.61,11.61,0,0,0-4.49,3.78c-3.94,6.15-10,10-15.64,14.29-2.14,1.65-4.19,3.27-5.14,5.94-.17.48-.82.85-1.33,1.11a5.14,5.14,0,0,1-1.79.53c-3.39.37-5.82,2-7,5.26-.37,1.06-1.2,1-2.07,1-3.71,0-5.2,1.61-5,5.33.11,2.67.23,5.35.22,8A13.41,13.41,0,0,0,99,203.47a3.06,3.06,0,0,1,.1,1.76,7.1,7.1,0,0,1-.54,1.79,37.09,37.09,0,0,0-2.9,19.45,9.87,9.87,0,0,1,0,1.09,3.25,3.25,0,0,1-1,.16c-2.34-.46-3.73.53-4.4,2.76-.47,1.6-1,3.19-1.53,4.76a1.82,1.82,0,0,1-.91,1,31.75,31.75,0,0,1-4.22,1.33,1.86,1.86,0,0,0-1.67,2A6.38,6.38,0,0,1,79.11,245c-1.77,1.22-3.06,1.15-4.52-.38a29.87,29.87,0,0,1-7.25-12.73c-.58-2.07-1.53-4-2.13-6.11a33.94,33.94,0,0,0-7.31-13.5A5.56,5.56,0,0,1,56.83,210c-.56-2.15-.91-4.35-1.53-6.47a42.91,42.91,0,0,0-2-5.37,35.19,35.19,0,0,0-2.21-4c-1.76-2.83-3.25-5.74-2.84-9.39l-1.69.46a54.61,54.61,0,0,1-6.2-17.42c0-.23-.08-.45-.13-.67-.93-3.86-2.29-7.68-.64-11.72l-.58.14a19,19,0,0,1-1.14-2.42,11,11,0,0,1-.27-7c1.22-3.57-.15-6.95-.76-10.38-.54-3.06-2-6.24,2.12-8.64l-5.23-.86c-.71,3.07-1.43,6-2,8.93a3.27,3.27,0,0,1-2,2.46,16.43,16.43,0,0,1-9.39,1.72,3.28,3.28,0,0,1-1.79-.73c-3.33-3-6.65-6-9.88-9.18a11.76,11.76,0,0,1-1.54-2.74c2.1-.25,3.72-.46,5.35-.63,4.41-.45,5.87-2,6.24-6.59a7.88,7.88,0,0,0-1.36.62,11.8,11.8,0,0,1-8.73,2,3.56,3.56,0,0,1-2-.92C4.34,118.84,2.19,116.42,0,114v-.34c1.88-1.53,4.13-1.6,6.49-1.45L7,108.58a39.32,39.32,0,0,1,5.29,1.15c2.83,1,5.28.72,7.49-1.36.06-.07.21-.05.31-.07,2.5,2,2.81,2,5.24,0-.89-2.42-1.92-4.83-2.65-7.32s-1.83-4.29-4.38-5.14a2.07,2.07,0,0,1-.87-1.65A38.52,38.52,0,0,1,18,90.06l-5.73-1.3c.35-1.54.31-3.09,1-4.13,2.09-3.08,4.48-6,6.79-9a5.07,5.07,0,0,1,.77.74c1.54,2.39,3.6,2.78,6.08,1.61a.3.3,0,0,1,.16-.05c3.16-.21,5.05-2,6.36-4.77a10.9,10.9,0,0,1,3.15-4.09A13.08,13.08,0,0,0,41.16,64c.51-1.14,1.26-2.17,1.77-3.31A4.65,4.65,0,0,1,45.79,58a2.64,2.64,0,0,0,1.32-1.35c1.57-3.6,3.34-7,7.59-8a4.42,4.42,0,0,0,1-.51l-2.57-1.64,1.45-2c-1.91-2.93-1.6-3.93,1.63-5.54L59.8,37.1c-.4-3.46-3.14-2.51-5.09-3.09a9.42,9.42,0,0,0-.38-1.8c-.18-.45-.58-1.09-.93-1.12-2.59-.26-3.82-2.19-5.27-4l2.37-2.85-1.9-2.49,1.86-2-2.69-1.64.61-1.59-1.44-1c.55-1.92.68-4.06,3.28-4.19a7,7,0,0,1,2,.15c2.47.65,4.91,1.45,7.4,2a8.19,8.19,0,0,0,3.27,0c2.64-.53,5.11-2,8-1.24.26.08.85-.31,1-.62,1.81-3.91,5.23-5.8,9-7.33L91.16,0h.69C92.92.73,94,1.46,95.08,2.2,96.31,3,98,3.54,97.69,5.61l2.61-.5c-1.59,3.24-1.37,7-4.63,9.13a3.6,3.6,0,0,0-1.8,3.42c.06,1-.47,1.38-1.43,1.48-1.22.13-2.42.41-3.69.64a17.28,17.28,0,0,1,.2,2.91,4.09,4.09,0,0,0,3,4.77c.86.32,2.24,3.58,2,4.45a1.09,1.09,0,0,1-.38.53l-4.37,3.27-2.07-3.07C85,34,85,34,86,36.07c.77,1.74,2,3.41,1.38,5.48-.62,2.23.32,4.07,1.29,6,.41.82.92,1.14,1.73.9,2.17-.64,4,.11,5.69,1.37,1.15.83,2.42,1.49,3.63,2.24l6.19,3.81c-2,1.61-4.37,2.77-5.59,4.65s-1.34,4.65-2.07,7a1.71,1.71,0,0,0,.93,2.43c6.59,3.71,13.12,7.52,19.71,11.24a6,6,0,0,0,2.56.72c3.23.18,6.48.21,9.72.39a2.83,2.83,0,0,1,1.92.76c2.63,3.51,6.21,5,10.44,5.61A46.78,46.78,0,0,1,151,90.3a22.38,22.38,0,0,0,9.6.36c1.64-.2,1.92-1.31,2.19-2.37.14-.53-.47-1.28-.81-1.9a2.51,2.51,0,0,0-.56-.63c.53-2.5,1-4.78,1.51-7a2.56,2.56,0,0,1,.94-1.6,33.36,33.36,0,0,1,3.93-1.37c1,2.16-1.07,4.94,1.69,6.51-1.22,1.53-1.3,3.47.05,4,2.1.78,4.4,1.69,6.56,1.57,5.78-.32,11.54-1.14,17.3-1.82a2,2,0,0,0,1.3-.81,28,28,0,0,0,1.36-3c-.88-.39-1.59-.76-2.33-1a1.84,1.84,0,0,1-1.41-2c0-1.2.75-1.43,1.55-1.67a45.69,45.69,0,0,0,17.35-9.81c.81-.71,1.79-1.24,2.56-2a4,4,0,0,1,3.89-1.06,9.41,9.41,0,0,0,6.29-.84c1-.53,2.16-.88,3.33-1.34.55,1.52.67,3.36,1.62,4.06,1.65,1.21,1,2.5.95,3.85,0,.33,0,.66,0,1.07,2.8.93,6.17.42,8.13,3.29Z"/><text class="cls-1" transform="translate(109.9 58.32)">I<tspan class="cls-2" x="8.37" y="0">ndia</tspan></text></g></g></svg>