<svg xmlns="http://www.w3.org/2000/svg" viewBox="0 0 1022.77 1211.17"><defs><style>.cls-1{fill:#1b0128;stroke:#000;stroke-miterlimit:10;}.cls-2{fill:none;}.cls-3{fill:#fff;}</style></defs><title>Asset 43</title><g id="Layer_2" data-name="Layer 2"><g id="EcardBg"><rect class="cls-1" x="0.5" y="127.64" width="1000" height="1000"/><rect class="cls-2" x="222.66" y="1047.81" width="7.14" height="7.14"/><circle class="cls-3" cx="226.23" cy="1051.39" r="3.57"/><rect class="cls-2" x="320" y="1046.98" width="6.23" height="6.23"/><circle class="cls-3" cx="323.11" cy="1050.1" r="3.11"/><rect class="cls-2" x="351.8" y="1044.55" width="3.44" height="3.44"/><circle class="cls-3" cx="353.52" cy="1046.27" r="1.72"/><rect class="cls-2" x="458.33" y="1032.34" width="7.51" height="7.51"/><circle class="cls-3" cx="462.09" cy="1036.1" r="3.76"/><rect class="cls-2" x="475.7" y="1026.68" width="4.81" height="4.81"/><circle class="cls-3" cx="478.11" cy="1029.09" r="2.41"/><rect class="cls-2" x="520.19" y="1023.17" width="2.37" height="2.37"/><circle class="cls-3" cx="521.38" cy="1024.35" r="1.18"/><rect class="cls-2" x="580.46" y="1011.2" width="5.41" height="5.41"/><circle class="cls-3" cx="583.17" cy="1013.91" r="2.71"/><rect class="cls-2" x="624.14" y="1008.39" width="4.11" height="4.11"/><circle class="cls-3" cx="626.19" cy="1010.44" r="2.05"/><rect class="cls-2" x="729.34" y="977.11" width="2.52" height="2.52"/><circle class="cls-3" cx="730.6" cy="978.37" r="1.26"/><rect class="cls-2" x="782.61" y="885.28" width="4.66" height="4.66"/><circle class="cls-3" cx="784.95" cy="887.61" r="2.33"/><rect class="cls-2" x="777.93" y="825.86" width="6.39" height="6.39"/><circle class="cls-3" cx="781.12" cy="829.05" r="3.19"/><rect class="cls-2" x="694.52" y="756.21" width="3.81" height="3.81"/><circle class="cls-3" cx="696.43" cy="758.12" r="1.91"/><rect class="cls-2" x="613.58" y="768.17" width="3.69" height="3.69"/><circle class="cls-3" cx="615.42" cy="770.01" r="1.84"/><rect class="cls-2" x="560.73" y="770.74" width="6.12" height="6.12"/><circle class="cls-3" cx="563.79" cy="773.8" r="3.06"/><rect class="cls-2" x="499.24" y="794.38" width="6.8" height="6.8"/><circle class="cls-3" cx="502.64" cy="797.78" r="3.4"/><rect class="cls-2" x="477.64" y="790.05" width="6.91" height="6.91"/><circle class="cls-3" cx="481.09" cy="793.51" r="3.46"/><rect class="cls-2" x="453.33" y="809.06" width="3.1" height="3.1"/><circle class="cls-3" cx="454.89" cy="810.61" r="1.55"/><rect class="cls-2" x="351.55" y="835.8" width="4.74" height="4.74"/><circle class="cls-3" cx="353.92" cy="838.17" r="2.37"/><rect class="cls-2" x="318.47" y="837.6" width="6.28" height="6.28"/><circle class="cls-3" cx="321.61" cy="840.74" r="3.14"/><rect class="cls-2" x="229.95" y="834.51" width="6.59" height="6.59"/><circle class="cls-3" cx="233.25" cy="837.81" r="3.29"/><rect class="cls-2" x="199.84" y="797.19" width="3.74" height="3.74"/><circle class="cls-3" cx="201.71" cy="799.06" r="1.87"/><rect class="cls-2" x="195.17" y="769.6" width="5.2" height="5.2"/><circle class="cls-3" cx="197.77" cy="772.2" r="2.6"/><rect class="cls-2" x="242.57" y="699.72" width="7.55" height="7.55"/><circle class="cls-3" cx="246.35" cy="703.49" r="3.78"/><rect class="cls-2" x="269.46" y="694.34" width="4.09" height="4.09"/><circle class="cls-3" cx="271.5" cy="696.39" r="2.04"/><rect class="cls-2" x="294.22" y="682.17" width="3.22" height="3.22"/><circle class="cls-3" cx="295.83" cy="683.79" r="1.61"/><rect class="cls-2" x="370.54" y="662.46" width="2.74" height="2.74"/><circle class="cls-3" cx="371.92" cy="663.84" r="1.37"/><rect class="cls-2" x="471.03" y="642.21" width="6.51" height="6.51"/><circle class="cls-3" cx="474.28" cy="645.47" r="3.26"/><rect class="cls-2" x="535.25" y="621.42" width="7.17" height="7.17"/><circle class="cls-3" cx="538.84" cy="625" r="3.58"/><rect class="cls-2" x="561.29" y="623.22" width="5.8" height="5.8"/><circle class="cls-3" cx="564.19" cy="626.12" r="2.9"/><rect class="cls-2" x="625.01" y="610.77" width="2.31" height="2.31"/><circle class="cls-3" cx="626.16" cy="611.92" r="1.15"/><rect class="cls-2" x="661.85" y="595.42" width="7.23" height="7.23"/><circle class="cls-3" cx="665.47" cy="599.04" r="3.62"/><rect class="cls-2" x="715.84" y="548.26" width="5.41" height="5.41"/><circle class="cls-3" cx="718.54" cy="550.96" r="2.7"/><rect class="cls-2" x="698.81" y="467.38" width="5.09" height="5.09"/><circle class="cls-3" cx="701.36" cy="469.93" r="2.55"/><rect class="cls-2" x="673.44" y="458.92" width="5.2" height="5.2"/><circle class="cls-3" cx="676.04" cy="461.52" r="2.6"/><rect class="cls-2" x="596.9" y="472.82" width="3.42" height="3.42"/><circle class="cls-3" cx="598.61" cy="474.53" r="1.71"/><rect class="cls-2" x="490.91" y="474.03" width="2.57" height="2.57"/><circle class="cls-3" cx="492.2" cy="475.31" r="1.29"/><rect class="cls-2" x="400.42" y="483.5" width="3.98" height="3.98"/><circle class="cls-3" cx="402.41" cy="485.49" r="1.99"/><rect class="cls-2" x="363.53" y="477.73" width="5.04" height="5.04"/><circle class="cls-3" cx="366.05" cy="480.24" r="2.52"/><rect class="cls-2" x="352.64" y="465.97" width="6.4" height="6.4"/><circle class="cls-3" cx="355.84" cy="469.18" r="3.2"/><rect class="cls-2" x="280.32" y="454.13" width="4.5" height="4.5"/><circle class="cls-3" cx="282.57" cy="456.38" r="2.25"/><rect class="cls-2" x="233.38" y="418.62" width="3.89" height="3.89"/><circle class="cls-3" cx="235.32" cy="420.56" r="1.95"/><rect class="cls-2" x="233.45" y="394.98" width="3.42" height="3.42"/><circle class="cls-3" cx="235.16" cy="396.69" r="1.71"/><rect class="cls-2" x="301.48" y="361.8" width="5.32" height="5.32"/><circle class="cls-3" cx="304.14" cy="364.46" r="2.66"/><rect class="cls-2" x="339.14" y="345.12" width="7.27" height="7.27"/><circle class="cls-3" cx="342.77" cy="348.76" r="3.63"/><rect class="cls-2" x="440.7" y="335.74" width="3.16" height="3.16"/><circle class="cls-3" cx="442.28" cy="337.32" r="1.58"/><rect class="cls-2" x="509.93" y="336.22" width="3.79" height="3.79"/><circle class="cls-3" cx="511.82" cy="338.12" r="1.9"/><rect class="cls-2" x="603.05" y="324.33" width="3.31" height="3.31"/><circle class="cls-3" cx="604.7" cy="325.98" r="1.65"/><rect class="cls-2" x="653.14" y="303.88" width="6.89" height="6.89"/><circle class="cls-3" cx="656.59" cy="307.32" r="3.44"/><rect class="cls-2" x="685.27" y="300.16" width="7.02" height="7.02"/><circle class="cls-3" cx="688.78" cy="303.68" r="3.51"/><rect class="cls-2" x="695.52" y="291.19" width="4.47" height="4.47"/><circle class="cls-3" cx="697.76" cy="293.43" r="2.24"/><rect class="cls-2" x="791" y="271.66" width="4.56" height="4.56"/><circle class="cls-3" cx="793.28" cy="273.93" r="2.28"/><rect class="cls-2" x="844.31" y="257.3" width="2.85" height="2.85"/><circle class="cls-3" cx="845.73" cy="258.72" r="1.42"/><rect class="cls-2" x="868.22" y="243.57" width="6.39" height="6.39"/><circle class="cls-3" cx="871.42" cy="246.77" r="3.2"/><rect class="cls-2" x="890.42" y="200.68" width="5.97" height="5.97"/><circle class="cls-3" cx="893.41" cy="203.67" r="2.99"/><rect class="cls-2" x="877.62" y="189.67" width="4.29" height="4.29"/><circle class="cls-3" cx="879.76" cy="191.82" r="2.15"/><rect class="cls-2" x="863.32" y="182.29" width="7.37" height="7.37"/><circle class="cls-3" cx="867" cy="185.97" r="3.68"/><rect class="cls-2" x="807.7" y="172.16" width="5.86" height="5.86"/><circle class="cls-3" cx="810.63" cy="175.08" r="2.93"/><rect class="cls-2" x="776.5" y="166.27" width="3.91" height="3.91"/><circle class="cls-3" cx="778.46" cy="168.23" r="1.95"/><rect class="cls-2" x="689.4" y="149.65" width="7.64" height="7.64"/><circle class="cls-3" cx="693.22" cy="153.47" r="3.82"/><rect class="cls-2" x="632.7" y="153.09" width="2.37" height="2.37"/><circle class="cls-3" cx="633.89" cy="154.28" r="1.19"/><rect class="cls-2" x="553.94" y="143.49" width="3.53" height="3.53"/><circle class="cls-3" cx="555.71" cy="145.25" r="1.76"/><rect class="cls-2" x="470.94" y="147.18" width="6.07" height="6.07"/><circle class="cls-3" cx="473.98" cy="150.22" r="3.04"/><rect class="cls-2" x="458.89" y="151.78" width="7.23" height="7.23"/><circle class="cls-3" cx="462.5" cy="155.39" r="3.62"/><rect class="cls-2" x="377.88" y="145.46" width="6.04" height="6.04"/><circle class="cls-3" cx="380.9" cy="148.48" r="3.02"/><rect class="cls-2" x="358.26" y="147.32" width="4.07" height="4.07"/><circle class="cls-3" cx="360.29" cy="149.35" r="2.04"/><rect class="cls-2" x="320.31" y="156.55" width="2.78" height="2.78"/><circle class="cls-3" cx="321.71" cy="157.94" r="1.39"/><rect class="cls-2" x="252.9" y="158.45" width="3.27" height="3.27"/><circle class="cls-3" cx="254.54" cy="160.08" r="1.63"/><rect class="cls-2" x="168.44" y="159.69" width="3.79" height="3.79"/><circle class="cls-3" cx="170.34" cy="161.58" r="1.9"/><rect class="cls-2" x="142.27" y="168.99" width="3.69" height="3.69"/><circle class="cls-3" cx="144.12" cy="170.83" r="1.85"/><rect class="cls-2" x="33.7" y="185.71" width="4.98" height="4.98"/><circle class="cls-3" cx="36.19" cy="188.2" r="2.49"/><rect class="cls-2" x="892.67" y="944.99" width="7.1" height="7.1"/><circle class="cls-3" cx="896.21" cy="948.54" r="3.55"/><rect class="cls-2" x="880.7" y="863.11" width="7.12" height="7.12"/><circle class="cls-3" cx="884.25" cy="866.67" r="3.56"/><rect class="cls-2" x="884.85" y="848.03" width="4.07" height="4.07"/><circle class="cls-3" cx="886.88" cy="850.06" r="2.04"/><rect class="cls-2" x="864" y="733.98" width="7.56" height="7.56"/><circle class="cls-3" cx="867.78" cy="737.76" r="3.78"/><rect class="cls-2" x="859.19" y="704.43" width="6.21" height="6.21"/><circle class="cls-3" cx="862.3" cy="707.53" r="3.1"/><rect class="cls-2" x="852.13" y="631.41" width="5.72" height="5.72"/><circle class="cls-3" cx="854.99" cy="634.27" r="2.86"/><rect class="cls-2" x="840.72" y="544.03" width="5.9" height="5.9"/><circle class="cls-3" cx="843.67" cy="546.98" r="2.95"/><rect class="cls-2" x="845.55" y="510.81" width="7.64" height="7.64"/><circle class="cls-3" cx="849.37" cy="514.63" r="3.82"/><rect class="cls-2" x="836.79" y="497.65" width="7.2" height="7.2"/><circle class="cls-3" cx="840.39" cy="501.25" r="3.6"/><rect class="cls-2" x="830.65" y="447.98" width="3.88" height="3.88"/><circle class="cls-3" cx="832.59" cy="449.92" r="1.94"/><rect class="cls-2" x="812.54" y="404.58" width="7.31" height="7.31"/><circle class="cls-3" cx="816.2" cy="408.23" r="3.65"/><rect class="cls-2" x="805.68" y="362.53" width="2.5" height="2.5"/><circle class="cls-3" cx="806.92" cy="363.78" r="1.25"/><rect class="cls-2" x="732.35" y="276.33" width="3.73" height="3.73"/><circle class="cls-3" cx="734.22" cy="278.19" r="1.86"/><rect class="cls-2" x="683.58" y="250.99" width="5.75" height="5.75"/><circle class="cls-3" cx="686.45" cy="253.87" r="2.87"/><rect class="cls-2" x="667.25" y="248.38" width="2.7" height="2.7"/><circle class="cls-3" cx="668.6" cy="249.73" r="1.35"/><rect class="cls-2" x="629.03" y="238.23" width="6.88" height="6.88"/><circle class="cls-3" cx="632.47" cy="241.67" r="3.44"/><rect class="cls-2" x="603.52" y="240.64" width="5.48" height="5.48"/><circle class="cls-3" cx="606.26" cy="243.38" r="2.74"/><rect class="cls-2" x="517.53" y="275.19" width="4.67" height="4.67"/><circle class="cls-3" cx="519.86" cy="277.53" r="2.34"/><rect class="cls-2" x="487.85" y="297.11" width="2.55" height="2.55"/><circle class="cls-3" cx="489.12" cy="298.38" r="1.27"/><rect class="cls-2" x="450.69" y="374.64" width="3.83" height="3.83"/><circle class="cls-3" cx="452.61" cy="376.55" r="1.91"/><rect class="cls-2" x="450.83" y="430.26" width="4.27" height="4.27"/><circle class="cls-3" cx="452.97" cy="432.39" r="2.14"/><rect class="cls-2" x="456.88" y="453.35" width="6.77" height="6.77"/><circle class="cls-3" cx="460.26" cy="456.73" r="3.38"/><rect class="cls-2" x="453.12" y="534.31" width="4.04" height="4.04"/><circle class="cls-3" cx="455.14" cy="536.33" r="2.02"/><rect class="cls-2" x="471.44" y="638.09" width="4.95" height="4.95"/><circle class="cls-3" cx="473.91" cy="640.56" r="2.47"/><rect class="cls-2" x="469.86" y="694.03" width="6.95" height="6.95"/><circle class="cls-3" cx="473.33" cy="697.51" r="3.48"/><rect class="cls-2" x="469.83" y="771.74" width="6.43" height="6.43"/><circle class="cls-3" cx="473.05" cy="774.96" r="3.22"/><rect class="cls-2" x="471.45" y="880.34" width="7.12" height="7.12"/><circle class="cls-3" cx="475.01" cy="883.9" r="3.56"/><rect class="cls-2" x="461.12" y="925.48" width="4.83" height="4.83"/><circle class="cls-3" cx="463.54" cy="927.9" r="2.41"/><rect class="cls-2" x="461.16" y="933.15" width="5.43" height="5.43"/><circle class="cls-3" cx="463.87" cy="935.86" r="2.71"/><rect class="cls-2" x="452.89" y="1013.42" width="3.24" height="3.24"/><circle class="cls-3" cx="454.51" cy="1015.04" r="1.62"/><rect class="cls-2" x="427.34" y="1026.67" width="3.84" height="3.84"/><circle class="cls-3" cx="429.26" cy="1028.59" r="1.92"/><rect class="cls-2" x="376.7" y="1023.08" width="3.78" height="3.78"/><circle class="cls-3" cx="378.59" cy="1024.98" r="1.89"/><rect class="cls-2" x="352.22" y="1015.23" width="5.8" height="5.8"/><circle class="cls-3" cx="355.12" cy="1018.13" r="2.9"/><rect class="cls-2" x="288.43" y="1000.57" width="5.64" height="5.64"/><circle class="cls-3" cx="291.25" cy="1003.39" r="2.82"/><rect class="cls-2" x="201.99" y="971.01" width="4.98" height="4.98"/><circle class="cls-3" cx="204.48" cy="973.5" r="2.49"/><rect class="cls-2" x="136.25" y="915.97" width="4.1" height="4.1"/><circle class="cls-3" cx="138.3" cy="918.02" r="2.05"/><rect class="cls-2" x="113.09" y="863.43" width="4.45" height="4.45"/><circle class="cls-3" cx="115.31" cy="865.66" r="2.23"/><rect class="cls-2" x="85.62" y="780.82" width="3.34" height="3.34"/><circle class="cls-3" cx="87.29" cy="782.48" r="1.67"/><rect class="cls-2" x="81.31" y="736.53" width="7.27" height="7.27"/><circle class="cls-3" cx="84.94" cy="740.16" r="3.63"/><rect class="cls-2" x="80.42" y="715.52" width="7.1" height="7.1"/><circle class="cls-3" cx="83.97" cy="719.07" r="3.55"/><rect class="cls-2" x="82.28" y="611.19" width="2.84" height="2.84"/><circle class="cls-3" cx="83.7" cy="612.61" r="1.42"/><rect class="cls-2" x="72.78" y="559.11" width="3.19" height="3.19"/><circle class="cls-3" cx="74.37" cy="560.7" r="1.6"/><rect class="cls-2" x="80.37" y="526.22" width="5.2" height="5.2"/><circle class="cls-3" cx="82.97" cy="528.81" r="2.6"/><rect class="cls-2" x="94.9" y="425.83" width="3.25" height="3.25"/><circle class="cls-3" cx="96.52" cy="427.46" r="1.63"/><rect class="cls-2" x="104.79" y="383.57" width="6.76" height="6.76"/><circle class="cls-3" cx="108.17" cy="386.95" r="3.38"/><rect class="cls-2" x="128.48" y="301.99" width="5.08" height="5.08"/><circle class="cls-3" cx="131.02" cy="304.53" r="2.54"/><rect class="cls-2" x="139.74" y="257.17" width="4.01" height="4.01"/><circle class="cls-3" cx="141.75" cy="259.18" r="2"/><rect class="cls-2" x="990.03" y="1145.52" width="3.5" height="3.5"/><circle class="cls-3" cx="991.78" cy="1147.27" r="1.75"/><rect class="cls-2" x="980.78" y="1106.41" width="6.71" height="6.71"/><circle class="cls-3" cx="984.13" cy="1109.76" r="3.36"/><rect class="cls-2" x="984.56" y="1085.54" width="5.96" height="5.96"/><circle class="cls-3" cx="987.54" cy="1088.52" r="2.98"/><rect class="cls-2" x="994.17" y="982.89" width="5.04" height="5.04"/><circle class="cls-3" cx="996.69" cy="985.41" r="2.52"/><rect class="cls-2" x="1012.56" y="918.34" width="3.46" height="3.46"/><circle class="cls-3" cx="1014.28" cy="920.07" r="1.73"/><rect class="cls-2" x="1019.07" y="839.98" width="3.69" height="3.69"/><circle class="cls-3" cx="1020.92" cy="841.83" r="1.85"/><rect class="cls-2" x="938.61" y="795.06" width="3.7" height="3.7"/><circle class="cls-3" cx="940.46" cy="796.91" r="1.85"/><rect class="cls-2" x="932.02" y="795.76" width="3.99" height="3.99"/><circle class="cls-3" cx="934.02" cy="797.75" r="1.99"/><rect class="cls-2" x="939.72" y="787.74" width="5.68" height="5.68"/><circle class="cls-3" cx="942.56" cy="790.58" r="2.84"/><rect class="cls-2" x="955.91" y="751.58" width="6.7" height="6.7"/><circle class="cls-3" cx="959.26" cy="754.93" r="3.35"/><rect class="cls-2" x="970.53" y="660.42" width="7.03" height="7.03"/><circle class="cls-3" cx="974.04" cy="663.93" r="3.51"/><rect class="cls-2" x="915.72" y="604.16" width="3.62" height="3.62"/><circle class="cls-3" cx="917.53" cy="605.96" r="1.81"/><rect class="cls-2" x="922.86" y="566.96" width="2.77" height="2.77"/><circle class="cls-3" cx="924.25" cy="568.34" r="1.39"/><rect class="cls-2" x="950.92" y="506.43" width="5.16" height="5.16"/><circle class="cls-3" cx="953.49" cy="509.01" r="2.58"/><rect class="cls-2" x="956.3" y="445.56" width="5.75" height="5.75"/><circle class="cls-3" cx="959.18" cy="448.43" r="2.88"/><rect class="cls-2" x="965.36" y="408.11" width="6.3" height="6.3"/><circle class="cls-3" cx="968.51" cy="411.26" r="3.15"/><rect class="cls-2" x="983.04" y="363" width="6.54" height="6.54"/><circle class="cls-3" cx="986.31" cy="366.27" r="3.27"/><rect class="cls-2" x="997.37" y="336.68" width="5.77" height="5.77"/><circle class="cls-3" cx="1000.26" cy="339.57" r="2.88"/><rect class="cls-2" x="972.82" y="276.2" width="6.01" height="6.01"/><circle class="cls-3" cx="975.82" cy="279.21" r="3"/><rect class="cls-2" x="982.62" y="206.75" width="5.58" height="5.58"/><circle class="cls-3" cx="985.41" cy="209.54" r="2.79"/><rect class="cls-2" x="978.23" y="146.92" width="4.36" height="4.36"/><circle class="cls-3" cx="980.41" cy="149.1" r="2.18"/><rect class="cls-2" x="97.4" width="5.14" height="5.14"/><circle class="cls-3" cx="99.96" cy="2.57" r="2.57"/><rect class="cls-2" x="89.17" y="16.89" width="4.09" height="4.09"/><circle class="cls-3" cx="91.21" cy="18.93" r="2.04"/><rect class="cls-2" x="78.88" y="25.16" width="6.25" height="6.25"/><circle class="cls-3" cx="82.01" cy="28.29" r="3.13"/><rect class="cls-2" x="67.32" y="44.94" width="6.51" height="6.51"/><circle class="cls-3" cx="70.57" cy="48.19" r="3.26"/><rect class="cls-2" x="30.7" y="75.92" width="3.67" height="3.67"/><circle class="cls-3" cx="32.54" cy="77.76" r="1.83"/><rect class="cls-2" x="15.55" y="134.28" width="7.04" height="7.04"/><circle class="cls-3" cx="19.07" cy="137.8" r="3.52"/><rect class="cls-2" x="49.18" y="196.56" width="5.62" height="5.62"/><circle class="cls-3" cx="52" cy="199.37" r="2.81"/><rect class="cls-2" x="110.96" y="246" width="3.1" height="3.1"/><circle class="cls-3" cx="112.51" cy="247.55" r="1.55"/><rect class="cls-2" x="164.69" y="217.64" width="5.29" height="5.29"/><circle class="cls-3" cx="167.33" cy="220.28" r="2.64"/><rect class="cls-2" x="122.87" y="228.59" width="5.18" height="5.18"/><circle class="cls-3" cx="125.46" cy="231.18" r="2.59"/><rect class="cls-2" x="113.65" y="244.22" width="6.75" height="6.75"/><circle class="cls-3" cx="117.02" cy="247.59" r="3.37"/><rect class="cls-2" x="99.13" y="304.5" width="2.55" height="2.55"/><circle class="cls-3" cx="100.41" cy="305.78" r="1.28"/><rect class="cls-2" x="111.96" y="330.24" width="4.24" height="4.24"/><circle class="cls-3" cx="114.08" cy="332.36" r="2.12"/><rect class="cls-2" x="145.12" y="375.45" width="4.07" height="4.07"/><circle class="cls-3" cx="147.16" cy="377.48" r="2.03"/><rect class="cls-2" x="133.09" y="371.28" width="3.84" height="3.84"/><circle class="cls-3" cx="135.01" cy="373.2" r="1.92"/><rect class="cls-2" x="106.4" y="413.32" width="3.81" height="3.81"/><circle class="cls-3" cx="108.31" cy="415.22" r="1.91"/><rect class="cls-2" x="63.27" y="512.78" width="5.38" height="5.38"/><circle class="cls-3" cx="65.95" cy="515.46" r="2.69"/><rect class="cls-2" x="51.7" y="525.11" width="5.42" height="5.42"/><circle class="cls-3" cx="54.41" cy="527.82" r="2.71"/><rect class="cls-2" x="59.51" y="576.19" width="2.84" height="2.84"/><circle class="cls-3" cx="60.93" cy="577.61" r="1.42"/><rect class="cls-2" x="54.97" y="607.78" width="3.76" height="3.76"/><circle class="cls-3" cx="56.85" cy="609.67" r="1.88"/><rect class="cls-2" x="71.34" y="717.33" width="7.46" height="7.46"/><circle class="cls-3" cx="75.07" cy="721.06" r="3.73"/><rect class="cls-2" x="87" y="769.57" width="6.95" height="6.95"/><circle class="cls-3" cx="90.48" cy="773.05" r="3.48"/><rect class="cls-2" x="122" y="801.91" width="4.1" height="4.1"/><circle class="cls-3" cx="124.04" cy="803.96" r="2.05"/><rect class="cls-2" x="154.47" y="779.37" width="2.33" height="2.33"/><circle class="cls-3" cx="155.64" cy="780.53" r="1.17"/><rect class="cls-2" x="83.73" y="825.06" width="5.08" height="5.08"/><circle class="cls-3" cx="86.27" cy="827.6" r="2.54"/><rect class="cls-2" x="54.26" y="905.29" width="4.66" height="4.66"/><circle class="cls-3" cx="56.59" cy="907.62" r="2.33"/><rect class="cls-2" x="34.39" y="978.6" width="4.23" height="4.23"/><circle class="cls-3" cx="36.51" cy="980.71" r="2.12"/><rect class="cls-2" x="79.34" y="1014.6" width="5.28" height="5.28"/><circle class="cls-3" cx="81.98" cy="1017.24" r="2.64"/><rect class="cls-2" x="38.16" y="1110.75" width="3.41" height="3.41"/><circle class="cls-3" cx="39.86" cy="1112.45" r="1.7"/><rect class="cls-2" x="55.28" y="1180.1" width="6.5" height="6.5"/><circle class="cls-3" cx="58.53" cy="1183.35" r="3.25"/><rect class="cls-2" x="48.31" y="1205.13" width="6.04" height="6.04"/><circle class="cls-3" cx="51.33" cy="1208.15" r="3.02"/><rect class="cls-2" x="622.94" y="670.12" width="7.23" height="7.23"/><circle class="cls-3" cx="626.56" cy="673.74" r="3.61"/><rect class="cls-2" x="576.35" y="770.64" width="5.6" height="5.6"/><circle class="cls-3" cx="579.15" cy="773.44" r="2.8"/><rect class="cls-2" x="599.3" y="872.77" width="6.3" height="6.3"/><circle class="cls-3" cx="602.45" cy="875.92" r="3.15"/><rect class="cls-2" x="634.47" y="916.61" width="2.47" height="2.47"/><circle class="cls-3" cx="635.7" cy="917.84" r="1.24"/><rect class="cls-2" x="703.8" y="974.63" width="4.45" height="4.45"/><circle class="cls-3" cx="706.03" cy="976.85" r="2.22"/><rect class="cls-2" x="735.98" y="997.47" width="7.19" height="7.19"/><circle class="cls-3" cx="739.57" cy="1001.07" r="3.6"/><rect class="cls-2" x="803.64" y="1044.67" width="6.1" height="6.1"/><circle class="cls-3" cx="806.69" cy="1047.72" r="3.05"/><rect class="cls-2" x="894.76" y="1088.04" width="3.04" height="3.04"/><circle class="cls-3" cx="896.28" cy="1089.56" r="1.52"/></g></g></svg>