<svg xmlns="http://www.w3.org/2000/svg" viewBox="0 0 124.76 49.18"><defs><style>.cls-1{fill:#020000;}</style></defs><title>Asset 37</title><g id="Layer_2" data-name="Layer 2"><g id="dragonBoat"><path class="cls-1" d="M40.33,31.72h0A1.24,1.24,0,0,0,39,30.86c-2,.32-2.8-.36-3.22-.76a.53.53,0,0,0-.63-.1c-1.9.94-2.12-1-2.59-.9-2.75.47-2.54-.51-3.09-1.41a.66.66,0,0,0-.45-.3,2.38,2.38,0,0,1-2.27-2,.64.64,0,0,0-.27-.29c-1.92-1.05-1.74-2.44-2.08-2.87A4.79,4.79,0,0,1,23,18.71a.7.7,0,0,1,.47-.67.33.33,0,0,0,.21-.28,1.83,1.83,0,0,0-.94-1.24c-.54-.17-.36-1.33-.29-1.39s.5,0,.94,0A.73.73,0,0,0,23.81,14a3.48,3.48,0,0,0-.55-.64.74.74,0,0,1,.36-1.27l.53,0c.51-.19.24-.73.17-1s-1.06-.78-1.39-.92c-.18-.05-.2-.17-.29-.37.48-.53,1.37-.34,1.87-.2s.76-.84.28-1.09l-.41-.24A.77.77,0,0,1,24.4,7l1.85-1.06a.41.41,0,0,0,.13-.1c.29-.28,1.43-1.52.93-2.52s-1.11,0-1.56.46a6.27,6.27,0,0,1-1.55.92c-.47.21-1-.27-.84-.83a1.36,1.36,0,0,0,0-.63.93.93,0,0,0-.66-.73s-.34-.19-.63.47a1.32,1.32,0,0,1-.45.88.57.57,0,0,1-.9-.23.67.67,0,0,0-1-.31.66.66,0,0,0-.3.42,2.67,2.67,0,0,1-1.1,1.65C18,5.67,18,5.2,18,5.2a3.66,3.66,0,0,0-.21-1.86,1,1,0,0,0-.29-.28c-.35-.2-.76.1-.83.54a6.32,6.32,0,0,1-.25.88.59.59,0,0,1-.9.34c-1.89-1.37-2.82-2.88-4.35-2.57-.8,0-2.42,2-2.57,2.08a.65.65,0,0,0-.32.43L8,4.83a.46.46,0,0,0-.68,0S7,4.37,6.9,4.37l-.32.08a10.42,10.42,0,0,0-.52-2.11A3.45,3.45,0,0,0,3.87,0a1.1,1.1,0,0,0-1.22.4c-.07-.07-.31,0-.31,0A.57.57,0,0,0,2,.08C1.81,0,1.49.05.8,1.06a4.43,4.43,0,0,0,.25,5.39.58.58,0,0,0,.18.17l.27.17a.77.77,0,0,1,.26,1c-1,2.16-.35,3-.25,2.71a3,3,0,0,1,.78-1.17c.22-.25.6-.06.58.3v0a.34.34,0,0,0,.63.24c.12-.2.26-.41.4-.61a.57.57,0,0,1,.78-.16c1.13.72,2.86.87,4.59,1.12a.64.64,0,0,1,.26.1c1,.74.38,1,.13,1,0,0-1.06-.3-1.73-.43a2.45,2.45,0,0,0-1.89,1,1.45,1.45,0,0,1-.64.39.58.58,0,0,1-.74-.38c-.19-.46-.46-1.07-.58-1s-.33,1.46-.33,1.46,0,.13-.36.13l-.06,0a.64.64,0,0,0-1,.62c0,.68.1,1.23.1,1.23l-.15.17a.84.84,0,0,0-.18.56A4.07,4.07,0,0,0,3.8,17.55a.67.67,0,0,0,.23.1c2.17.45,5.07-.95,8.58,1.85a.8.8,0,0,1,.13.13c1.93,2.7,5.48,13.41,11.48,18.31a.73.73,0,0,1,.23.29c1.16,2.91,18.72,9.93,20.12,10.48a.39.39,0,0,0,.18,0c2.76,0,66.29,1.09,70.82-.24s8.91-3.11,9.19-15.59c0-.56-.52-.93-.94-.63C111.48,41.25,40.33,31.72,40.33,31.72Z"/></g></g></svg>