<svg xmlns="http://www.w3.org/2000/svg" viewBox="0 0 384.71 315.72"><defs><style>.cls-1{fill:#fff;}.cls-2{font-size:67.21px;font-family:ArialMT, Arial;}</style></defs><title>Asset 24</title><g id="Layer_2" data-name="Layer 2"><g id="China"><path d="M288.69,86.35,286.31,85c-4.33-2.35-8.63-4.77-13-7a3.26,3.26,0,0,0-4.41.9,3.11,3.11,0,0,1-2.73.77c-2.59-.79-5-1.09-7.64,0-2,.86-4.63-2-4.61-4.12,0-3.5-.41-7-.66-10.49-.06-.72-.14-1.45-.23-2.47,2.62.67,5,1.35,7.48,1.85A3.65,3.65,0,0,0,263,64.2c1.73-1.09,3.32-2.42,4.95-3.65-2.35-2.71-2.69-11-.24-14.43-1.77-1.65-2.45-4.74-6.05-4-.7.15-1.63-.82-2.65-1.39.65-.62,1.25-.92,1.39-1.37,1.12-3.53,4.18-3.89,7.1-4.27,6.08-.81,12.2-2.08,18.05,1.33,1,.57,2.53.13,3.77.36,1.75.32,3.75.39,5.13,1.32C299,41.24,303.48,44.67,308,48c3.21,2.41,6.46,4.78,9.49,7.4a72.18,72.18,0,0,1,6,6.33A7.85,7.85,0,0,0,330,64.61a20.61,20.61,0,0,1,4.32.55c3.85.69,7.55,1.77,10.67,4.33a3.15,3.15,0,0,0,1.67.3,4.67,4.67,0,0,1,3.75,2c1.44,1.7,2.88,3.35,4.2,5.2,1.47,2.06,9.48,3.28,11.81,2.13.35-.18.48-.77.79-1.08a7.3,7.3,0,0,1,2-1.7c1.67-.74,3.46-1.21,5.17-1.86,2.7-1,4.1-.47,5.52,2.07a8.81,8.81,0,0,0,1.65,1.81c1.2,1.17,1.82,2.34.39,3.81a1.62,1.62,0,0,0-.2,1.4c1.42,3.92,2.84,7.85,3,12.06a47.44,47.44,0,0,1-.4,5.35c-1.13-.16-2.63-.29-4.09-.57s-2.86-.72-3.66-.39l-2.69,3.12c1.91,2.73,4.64,6.42,7.1,10.28.81,1.27.92,3,1.39,4.67l-3.09.49,3.21,3.66c-3.6-.07-5.42-3.07-8.47-4.92.3,1.24.54,1.93.63,2.63.06.47,0,1.33-.17,1.37-2.77.74-3.47,5.44-7.57,4.08a8.67,8.67,0,0,1,1.51,1.38,16.34,16.34,0,0,1,1.1,2.31,6.83,6.83,0,0,1-2.43.81c-2.59-.2-5.31-.13-7.39-2.2-.9-.9-2.3-.72-2.2.47.44,5.21-4,6.62-6.78,9.31a7.41,7.41,0,0,0-2.17,3c-.47,1.64-1.43,2-2.87,2.09-4.14.22-7.41,1.77-9.7,5.51-.79,1.28-2.66,2-4.15,2.71-.36.17-1.43-.43-1.68-.93-.18-.34.45-1.14.79-1.69s.75-1,1.13-1.49c-.5-.27-1-.57-1.51-.82-.85-.4-1.71-.77-2.78-1.25,1.12-1.65,2.22-3.09,3.14-4.64,1.47-2.5-.44-5.2-4.09-5.84-.32-.06-.69.08-1,0-3-1.17-4,1.4-4.47,3.05-.62,2.18-1.91,3-3.64,3.92-1.46.72-3.09,1.36-2.12,3.69a2.5,2.5,0,0,1-1.1,2.18c-2,.82-3.94,2.16-6.28.87-1.77-1-2,.24-1.86,1.58.3,3.34,4.66,6.26,8.54,5.74a4.8,4.8,0,0,1,5.75,4.46,3.62,3.62,0,0,0,5.11,3.13c1-.48,1.59-1.84,2.23-2.88a4.46,4.46,0,0,1,6.18-1.56,18.31,18.31,0,0,0,4.83,2,39.52,39.52,0,0,0,5.46.21,11.92,11.92,0,0,1,2.12.49,14.14,14.14,0,0,1,.36,3.65,2.34,2.34,0,0,1-1.76,1.46c-4.59-.37-6.92,1-8.4,5.21a1.79,1.79,0,0,1-.76.89c-3.14,1.76-4.17,4.91-5.15,8-.15.47.44,1.47,1,1.82a14.14,14.14,0,0,0,3.92,2c3.68,1,5.93,3.43,7.79,6.62,1.67,2.87,3.79,5.48,5.71,8.2a2,2,0,0,0,.49.54c2.24,1.47,4.36,3.23,6.78,4.29,2.24,1,2,3.18,3.12,4.65.06.08-.66.76-.93,1.06.94,1.27,2,2.63,2.56,3.47l-7.13,5.51.25,1c3.42-2.3,6.14-1.17,8.58,1.91.52-1.65.84-2.64,1.29-4l2.16,2.76c-.28,2.23-.46,4.12-.79,6a10.94,10.94,0,0,1-1.16,2.33c.86,1.72,1,5.53-.15,7-.32.4-.76,1-1.18,1-3.39.25-2.6,2.47-2.24,4.53a1.08,1.08,0,0,1-.07.59c-1.3,3.07-2.59,6.14-3.94,9.18-.18.4-.7.65-.58.54v4.1l2.91,1.21-2.67,2.23-1.16-.91-4.11,7.16c-1.39-.57-2.15-.55-3.12,1.32-1.42,2.77-3.22,5.73-6.86,6.43-.4.07-1,.38-1.07.63-.45,4.2-3.9,4.36-6.85,5.55-1.74.7-3.29,0-4.54.31-2.18.59-4,2.44-6,3.76l.34.51-3.41-.18c-.33-.91-.73-2-1.13-3.17l-.46.14v4.25c-2.34-.88-4.69.95-4.92,3.93l-2.79-.6v-1.15c-2.67,1-5.35,2-8,2.9a4.08,4.08,0,0,1-1.35,0c-1.66,0-2.92.51-3.14,2.34-.19,1.56-1.55,3.12.06,4.75.18.19-.55,1.82-1.17,2.11a10.8,10.8,0,0,1-3.25.49,43.79,43.79,0,0,1-2.17-4.76,32.62,32.62,0,0,1-.79-4.66l.7-.22c-.42-.18-1-.64-1.23-.5-2.63,1.5-4.64-.41-6.84-1.18-.15-.05-.38-.26-.41-.23-2.44,2.33-5.22.19-7.82.55a5.17,5.17,0,0,1-3.37-.94c-2.07-1.5-5.12-2.16-5.41-5.44-.08-1,0-2,0-3.48-3-1-7.44,0-10.41-4.29a20.51,20.51,0,0,1-2.31,3.27,12.8,12.8,0,0,1-3.23,2,11.29,11.29,0,0,0-3,1.48l-4.83-1.08c-1.89,1.79-1.89,1.79-5.54-.34-2.84,2.63-2.84,2.63-6.46,2.25l3.47,9.74c-3.82.75-4.92.14-6.92-3.46-1.26.49-2.51,1-3.78,1.46-2.56.91-3.94-.82-4.4-2.71-.55-2.3-1.94-2.3-3.63-2.28-2.91,0-2.85,0-2.37-3,.24-1.51.2-3.05.29-4.61-3.52-1-6-4.09-6.38-8.17a5.72,5.72,0,0,0-5.76.9,5.41,5.41,0,0,1-2,.46l-.06-2c0-.56.2-1.29-.08-1.64-1.29-1.62-1.33-3-.74-5.15a15.8,15.8,0,0,1,3.73-6.19c1.8-2.11,1.69-4.78,1.23-7.34a33.38,33.38,0,0,0-1.48-5.46c-.35-1-.69-2.11-2.44-1.77-.58.11-1.93-1.42-2.2-2.4-.71-2.55-2.44-3.76-4.9-4.56l-.73,1.38c-2.81-.31-5.23-.61-7.66-.83-1.64-.14-1.51-1-.87-2,1.23-1.93,1.33-2.82-1.53-2.75-2,.05-1-1.49-.53-2.38-1.28-2-3.07-1.31-3.71-.12-1.62,3-3.94,1.84-5.59.88-2.34-1.36-3.39-.07-4.89,1.15-1.34,1.09-3,1.74-4.34,2.87a21.14,21.14,0,0,0-4.34,4.68,5.46,5.46,0,0,1-8.46,1.25,3.72,3.72,0,0,0-2.26-.63c-1.84-.11-3.69,0-5.53-.12a2.42,2.42,0,0,1-1.33-.58c-2.28-1.91-3.84-1.74-5.42.74-1.19,1.86-2.26,3.8-3.84,6.48-.68-1.72-1.5-2.92-1.57-4.16-.16-2.5-1-3.16-3.31-2.1a12.58,12.58,0,0,1-9.78.28c-1.13-.4-2.06-1.35-3.48-.1-.63.55-2.25,0-4-.09a6.06,6.06,0,0,0-5.33-2.54c-.74.05-1.56-1.17-2.19-2-2.87-.52-5.54-1.44-7.15-4.33-.65-1.18-1.53-1.85-3-1.12a2.47,2.47,0,0,1-2-.28c-2.48-1.53-4.9-3.16-7.32-4.8-1.57-1.07-3-2.29-4.64-3.28s-3.31-2.28-4.53.65c-.15.35-1.86.39-2.64.08a62.07,62.07,0,0,1-5.64-2.85,15.65,15.65,0,0,1-1.38-.91c-1.28-.83-2.54-1.68-3.84-2.47a25.42,25.42,0,0,1-3.3-1.92c-.92-.8-1.47-2.06-3-1-.23.16-1.18-.25-1.36-.61-1.57-3.25-3-6.56-4.54-9.87,2-1.16,2-1.16,4.55,1.11l2.83-2c-1.13-1.75-1.53-3.61-3.81-4.51-3-1.16-4.3-5-3.44-8.16-3.17-1.59-6-3.47-7.69-6.9-.6-1.21-2.66-2-4.2-2.36-2.56-.54-5.25-.5-7.24-2.61a1.71,1.71,0,0,0-1.06-.27,4.14,4.14,0,0,1-4.3-3.46c-.28-2.12-1.39-3-3.32-4-2.34-1.2-4.86-1.28-7.15-2.24-.7-.3-1.2-1.08-1.79-1.64.71-.27,1.41-.59,2.14-.81a12.62,12.62,0,0,1,1.71-.2c-1.08-2-2.08-3.89-3.06-5.75a6.25,6.25,0,0,1-.6-1.32c-.65-2.66-2.23-3.52-5-2.93-.84.18-2.3.19-2.61-.29A36.4,36.4,0,0,1,0,145.9c-.15-.35.35-1,.57-1.46s.66-.92.55-1.16c-1.21-2.58.05-3.45,2.37-4.18,1.05-.33,1.78-1.71,2.45-2.4a27.65,27.65,0,0,1,3.82-1.1c.71-.1,1.94.15,2.15.6.89,1.91,2.35,1.38,3.56.87.86-.37,2-1.31,2.08-2.12.39-2.54,1.63-3.31,4.06-3a24.14,24.14,0,0,0,3.69-.15,2.73,2.73,0,0,0,2.74-2,5.68,5.68,0,0,1,2.54-2.47c2.52-1.33,5.16-2.42,8-3.72-1.74-3.06-2.83-6.06.64-8.84-1.13-1.57-2.29-3.12-3.39-4.71-.84-1.21-2-2.38-2.32-3.74-.49-2.14-.84-4-3.64-3.72-.3,0-1-.65-.92-.92.08-.48.5-1.21.88-1.28,3.92-.76,7.56-3.26,11.87-1.68,1.15.42,2.58.07,4.07.07-.19-.38-.32-.92-.52-1-2.86-.44-2.53-2.33-2.32-4.46a70.56,70.56,0,0,0,.21-8.1c0-1.94.71-2.75,2.52-1.86a13.56,13.56,0,0,0,7.66,1.22c1.72-.18,3.33,1.43,5.32.08,1.37-.94,1.7-1.6.84-2.9a38.45,38.45,0,0,1-2.31-3.5c-1.35-2.64-.41-4.38,2.42-4.81,1.65-.25,2.91-.83,2.14-2.93-.57-1.56.1-2.37,1.71-2.43a36.56,36.56,0,0,1,4.68,0c.57,0,1.19.74,1.58,1.29,1.14,1.64,2.23,3.21,4.36,3.79,1,.26,1.76,1.18,2.72,1.59A33.59,33.59,0,0,0,82,76.75c3.75.93,7.69,1.3,10.16,4.94A9.88,9.88,0,0,0,95,84.41c2.93,1.86,4.11,4.76,5.06,7.85a2.43,2.43,0,0,1,0,1c-.1,1.07-.72,2.6-.25,3.1A9.37,9.37,0,0,0,104.07,99a31.93,31.93,0,0,0,9.26,1.23c5.15-.35,9.47,1.55,13.91,3.58,2,.94,4.5,1.13,6.41,2.25a38.77,38.77,0,0,1,5.89,4.87c2.56,2.28,5.05,4.66,7.61,6.94a1.82,1.82,0,0,0,1.36.35c6-1.16,11.74,1.19,17.65,1.3a4.61,4.61,0,0,0,1.47.06c4.31-1.56,8.62-.29,12.91,0a8.34,8.34,0,0,1,3.73,1c5.55,3.53,11.91,4,18.12,5,.72.12,1.69-.2,2.17.17,3,2.26,5.46.92,8.09-.75,5.48-3.49,11.65-4.2,18-4.3a36.06,36.06,0,0,0,7.44-1,6.37,6.37,0,0,0,4.64-4.33c.48-1.21,2.05-2,3.13-3,.6-.54,1.19-1.09,2.1-1.93-1.54-1.1-2.9-2.1-4.29-3-1.8-1.22-2.88-4.46-1.86-6.17,1.3-2.2,3.19-1.79,5.19-1a40.74,40.74,0,0,0,5.15,1.68c3.2.82,5-.07,6.42-3.11.65-1.47,1.57-1.77,3.12-1.65a10.84,10.84,0,0,0,4.47-.69,2.38,2.38,0,0,0,1.67-3.26A3.52,3.52,0,0,1,269,90a27.45,27.45,0,0,1,6.05-2,22.58,22.58,0,0,1,5.22-1c2.52,0,5,.3,7.56.49C288.13,87.16,288.41,86.75,288.69,86.35ZM90.37,131.69l-.54,0c-1.07,3.36-2.09,6.74-3.2,10.09-1.42,4.29-.52,3.81-5.17,3.84-3.33,0-6.65,0-10,0l-.19.77c3.19,2.43,6.33,4.91,9.57,7.25a2.48,2.48,0,0,1,1.06,3.31c-1.15,3.35-2.13,6.75-3.16,10.14a22.68,22.68,0,0,0-.36,2.37l6.21-4.68c5.47-4.13,5.47-4.13,10.88,0,2,1.54,4.08,3.07,6.12,4.6a55.89,55.89,0,0,0-2.09-8.41c-1.84-6-1.84-6,3.18-9.81l6.12-4.66-.3-.85c-3.84,0-7.68-.07-11.52,0a2.56,2.56,0,0,1-3-2.2C92.92,139.48,91.61,135.6,90.37,131.69Zm42.46-.5c-3.91-1.08-4.89-3.52-3.94-7.45-2,4.12-4.72,3.55-7.9,1.84,2.81,3.18,1.86,5.71-.86,8.28,3.7-1.73,5.77-.21,7.32,3.19C127.09,132.85,129.17,131.45,132.83,131.19ZM128.94,177l-.64,0c-1,1-1.87,2.66-3.07,3s-2.77-.7-4.37-1.18c2,4,2,4-.35,8.13,4.22-.37,4.22-.37,7.4,3.18-.5-3.92,1.18-5.92,5-6.35C129,182.91,127.75,180.66,128.94,177Zm12-15.49c-.62,3.72-2.37,5.68-6.52,4.91,3.7,1.88,4.24,4.44,2.48,7.95,2.76-2.89,5.32-2.91,8.11,0-2.11-3.62-.82-6,2.37-8.08C143.12,167.28,141.63,165.07,140.94,161.49Zm-6.42-14.93c4.62-.5,5.36,2.35,5.65,5.89,1.14-3.82,3.38-5,7.16-3.67-3.07-2.41-3.58-5-1.18-8.21-3.27,2.52-5.65,1.58-8-1.46C139.81,143.12,138.2,145.14,134.52,146.56Z"/><path d="M294.1,315.72a56.22,56.22,0,0,1-6.68-2.23c-2.12-1-2.64-6.85-1.06-8.57.89-1,1.36-2.48,2.4-3.11a13.92,13.92,0,0,1,4.72-1.47,25.35,25.35,0,0,1,5.21-.44c1.09,0,2.73.22,3.11.9a6,6,0,0,1,.16,3.76c-.27,1.3-1.37,2.49-1.46,3.77-.19,2.79-2.15,4.1-3.95,5.62C295.82,314.57,295,315.09,294.1,315.72Z"/><path class="cls-1" d="M90.37,131.69c1.24,3.91,2.55,7.79,3.68,11.73a2.56,2.56,0,0,0,3,2.2c3.84-.11,7.68,0,11.52,0l.3.85-6.12,4.66c-5,3.82-5,3.82-3.18,9.81a55.89,55.89,0,0,1,2.09,8.41c-2-1.53-4.09-3.06-6.12-4.6-5.41-4.09-5.41-4.09-10.88,0l-6.21,4.68a22.68,22.68,0,0,1,.36-2.37c1-3.39,2-6.79,3.16-10.14a2.48,2.48,0,0,0-1.06-3.31c-3.24-2.34-6.38-4.82-9.57-7.25l.19-.77c3.33,0,6.65,0,10,0,4.65,0,3.75.45,5.17-3.84,1.11-3.35,2.13-6.73,3.2-10.09Z"/><path class="cls-1" d="M132.83,131.19c-3.66.26-5.74,1.66-5.38,5.86-1.55-3.4-3.62-4.92-7.32-3.19,2.72-2.57,3.67-5.1.86-8.28,3.18,1.71,5.92,2.28,7.9-1.84C127.94,127.67,128.92,130.11,132.83,131.19Z"/><path class="cls-1" d="M128.94,177c-1.19,3.68,0,5.93,4,6.77-3.84.43-5.52,2.43-5,6.35-3.18-3.55-3.18-3.55-7.4-3.18,2.3-4.14,2.3-4.14.35-8.13,1.6.48,3.15,1.48,4.37,1.18s2.06-1.92,3.07-3Z"/><path class="cls-1" d="M140.94,161.49c.69,3.58,2.18,5.79,6.44,4.79-3.19,2.05-4.48,4.46-2.37,8.08-2.79-2.92-5.35-2.9-8.11,0,1.76-3.51,1.22-6.07-2.48-7.95C138.57,167.17,140.32,165.21,140.94,161.49Z"/><path class="cls-1" d="M134.52,146.56c3.68-1.42,5.29-3.44,3.65-7.45,2.33,3,4.71,4,8,1.46-2.4,3.24-1.89,5.8,1.18,8.21-3.78-1.3-6-.15-7.16,3.67C139.88,148.91,139.14,146.06,134.52,146.56Z"/><text class="cls-2" transform="translate(60.67 57.68)">China</text></g></g></svg>