<svg xmlns="http://www.w3.org/2000/svg" viewBox="0 0 195 55.08"><defs><style>.cls-1{fill:#0031ff;}.cls-1,.cls-2{stroke:#9b5400;stroke-miterlimit:10;}.cls-2{fill:#f47d42;}</style></defs><title>Complete</title><g id="Layer_2" data-name="Layer 2"><g id="Complete"><polygon class="cls-1" points="8.25 13.5 13.75 6.5 177.25 6.5 189.5 16.5 189.5 38.25 178.25 49.25 18.5 49.25 7 41.5 8.25 13.5"/><path class="cls-2" d="M173.5.5H21.5a21,21,0,0,0-21,21V33.58a21,21,0,0,0,21,21h152a21,21,0,0,0,21-21V21.5A21,21,0,0,0,173.5.5Zm11,33.08a11,11,0,0,1-11,11H21.5a11,11,0,0,1-11-11V21.5a11,11,0,0,1,11-11h152a11,11,0,0,1,11,11Z"/></g></g></svg>