<svg xmlns="http://www.w3.org/2000/svg" viewBox="0 0 182.95 189"><defs><style>.cls-1{font-size:25.83px;font-family:MyriadPro-Regular, Myriad Pro;letter-spacing:0.01em;}.cls-2{letter-spacing:0em;}</style></defs><title>Asset 1</title><g id="Layer_2" data-name="Layer 2"><g id="Layer_1-2" data-name="Layer 1"><path d="M183,59.32a1.86,1.86,0,0,0-1.78,1.87c-.09,1-.28,1.89-.44,3-1.31.08-2.58.07-3.82.25a5,5,0,0,0-2.11.83c-1.27.92-2.38,2.06-3.66,3a2.77,2.77,0,0,0-1.28,2.66,6.78,6.78,0,0,1-2,5.45c-2.12,2.29-2.66,5.37-3.78,8.14a3.44,3.44,0,0,1-2.55,2.39c-3.63,1-3.61,1-3.77,4.77,0,1,.26,2.18-1.4,2.27-.18,0-.48,1-.42,1.43a31.45,31.45,0,0,0,.77,3.29l-3.15,1.56c-1.06-4.1-2.08-8-3.17-12.29l-3.06,4.53c-2.8-.86-3.16-3.25-3.73-5.47-.08-.3.28-.78.55-1.07,1.92-2,3.87-4.05,5.81-6.07.29-.31.56-.63,1-1.11l-8.52-1c-1.3-.15-2.6-.28-3.9-.45a3.77,3.77,0,0,1-3.69-3.21c-.26-1-.53-1.89-.87-3.14-.45,1.33-1.24,2-2.18,1.25-.64-.51-.85-1.55-1.32-2.5l-1.26,2L127.33,69c-.72,1.43-1.44,2.72-2,4.06-.38.88.4,2.3,1.25,2.28,1.66,0,2.09.83,1.93,2.44-2.68-.77-3.39,1.43-4.59,3.17,1,.87,2.08,1.71,3.07,2.61.29.26.65.73.61,1-.72,5.1,1.23,9.82,2,14.7.1.61.28,1.2.33,1.81a4.06,4.06,0,0,1-.17,1.12l-.9-.45-2.73,1.34L125.19,99c-.11,0-.23,0-.24,0-.75,2.54-3.12,3-5.11,3.81-1.25.52-2,1.14-1.69,2.57.38,2.11-.57,3.58-1.94,5.19-2.39,2.78-5.59,4.14-8.63,5.8a8.8,8.8,0,0,0-3.46,2.9c-3,4.74-7.71,7.68-12,11-1.65,1.27-3.22,2.52-3.95,4.57-.13.36-.64.65-1,.85a4.15,4.15,0,0,1-1.38.41,5.84,5.84,0,0,0-5.36,4c-.28.81-.92.77-1.59.77-2.85,0-4,1.24-3.88,4.1.08,2.05.17,4.11.17,6.16a10.28,10.28,0,0,0,1,5.2,2.35,2.35,0,0,1,.08,1.35,5.24,5.24,0,0,1-.42,1.38,28.61,28.61,0,0,0-2.23,14.95,5.75,5.75,0,0,1,0,.84,2.32,2.32,0,0,1-.78.12,2.64,2.64,0,0,0-3.38,2.12c-.37,1.23-.75,2.46-1.18,3.66a1.41,1.41,0,0,1-.7.76,24.49,24.49,0,0,1-3.25,1A1.41,1.41,0,0,0,63,184.14a4.92,4.92,0,0,1-2.19,4.2c-1.35.94-2.35.89-3.47-.29a23,23,0,0,1-5.57-9.78c-.45-1.59-1.18-3.11-1.64-4.7a26.15,26.15,0,0,0-5.62-10.38,4.31,4.31,0,0,1-.82-1.74c-.43-1.65-.7-3.34-1.18-5A32.12,32.12,0,0,0,41,152.35a26.67,26.67,0,0,0-1.7-3.1c-1.35-2.18-2.5-4.42-2.18-7.22l-1.3.35A42.31,42.31,0,0,1,31,129a4.35,4.35,0,0,0-.1-.52c-.71-3-1.76-5.9-.48-9l-.46.12a16.66,16.66,0,0,1-.87-1.87,8.44,8.44,0,0,1-.21-5.39c.94-2.75-.11-5.35-.58-8-.42-2.36-1.57-4.8,1.63-6.64l-4-.67c-.55,2.36-1.1,4.6-1.56,6.86a2.52,2.52,0,0,1-1.51,1.9,12.61,12.61,0,0,1-7.22,1.32,2.47,2.47,0,0,1-1.37-.56c-2.57-2.32-5.11-4.66-7.6-7a9.3,9.3,0,0,1-1.18-2.12c1.61-.19,2.86-.35,4.11-.47,3.39-.35,4.51-1.51,4.79-5.08a6.73,6.73,0,0,0-1,.49,9.06,9.06,0,0,1-6.71,1.53,2.68,2.68,0,0,1-1.55-.71C3.34,91.36,1.68,89.5,0,87.67V87.4c1.45-1.17,3.17-1.23,5-1.11l.42-2.82a29.72,29.72,0,0,1,4.07.89,5.15,5.15,0,0,0,5.75-1c.06,0,.16,0,.25-.06,1.92,1.54,2.16,1.54,4,0-.69-1.86-1.48-3.71-2-5.62s-1.41-3.3-3.37-4a1.56,1.56,0,0,1-.67-1.26,29.4,29.4,0,0,1,.43-3.18l-4.4-1c.27-1.18.24-2.37.78-3.17,1.61-2.37,3.45-4.58,5.22-6.89a3.81,3.81,0,0,1,.6.56c1.18,1.84,2.76,2.14,4.66,1.24a.33.33,0,0,1,.13,0c2.43-.16,3.88-1.51,4.89-3.67a8.35,8.35,0,0,1,2.42-3.14,9.89,9.89,0,0,0,3.48-3.95c.39-.87,1-1.66,1.36-2.54a3.61,3.61,0,0,1,2.2-2.07,2,2,0,0,0,1-1c1.21-2.77,2.56-5.36,5.83-6.18a4.06,4.06,0,0,0,.76-.4l-2-1.26,1.11-1.52c-1.47-2.25-1.23-3,1.26-4.26,1-.47,1.91-1,2.77-1.39-.31-2.66-2.41-1.93-3.91-2.37a7,7,0,0,0-.29-1.39c-.14-.34-.45-.83-.72-.86-2-.2-2.94-1.68-4-3.06l1.82-2.19-1.46-1.91,1.43-1.57-2.07-1.26.47-1.23-1.1-.77c.42-1.47.52-3.11,2.52-3.21a4.9,4.9,0,0,1,1.53.11c1.91.5,3.78,1.12,5.69,1.55a6.29,6.29,0,0,0,2.52,0c2-.41,3.92-1.55,6.12-.95a1,1,0,0,0,.77-.48c1.38-3,4-4.46,6.88-5.64l8-3.27h.53c.83.56,1.66,1.12,2.48,1.69s2.22,1,2,2.62l2-.38c-1.23,2.49-1.06,5.4-3.56,7a2.79,2.79,0,0,0-1.39,2.64c0,.77-.36,1.06-1.1,1.14-.93.1-1.85.31-2.83.49a14.09,14.09,0,0,1,.15,2.24,3.15,3.15,0,0,0,2.31,3.66c.66.24,1.72,2.76,1.55,3.42a.84.84,0,0,1-.29.41l-3.36,2.51L67,25.09c-1.64,1-1.63,1-.91,2.64.6,1.34,1.51,2.62,1.07,4.21s.24,3.13,1,4.59c.32.63.71.87,1.33.69a4.77,4.77,0,0,1,4.38,1.05c.88.64,1.85,1.15,2.78,1.72l4.77,2.93c-1.56,1.24-3.37,2.13-4.3,3.58s-1,3.57-1.6,5.36a1.32,1.32,0,0,0,.72,1.87c5.07,2.85,10.09,5.78,15.15,8.64a4.65,4.65,0,0,0,2,.55c2.49.14,5,.16,7.47.3a2.14,2.14,0,0,1,1.47.59,11.26,11.26,0,0,0,8,4.31,35.19,35.19,0,0,1,5.75,1.3,17.35,17.35,0,0,0,7.38.28c1.27-.16,1.48-1,1.69-1.82.11-.41-.36-1-.62-1.47a2.23,2.23,0,0,0-.43-.48c.4-1.93.74-3.67,1.16-5.4A2,2,0,0,1,126,59.3a25.17,25.17,0,0,1,3-1c.8,1.66-.82,3.8,1.3,5-.94,1.17-1,2.66,0,3a13.34,13.34,0,0,0,5.05,1.21c4.44-.25,8.87-.88,13.3-1.4a1.52,1.52,0,0,0,1-.63,22.77,22.77,0,0,0,1-2.27c-.68-.3-1.22-.59-1.79-.79a1.4,1.4,0,0,1-1.08-1.53c0-.92.57-1.1,1.19-1.28a35.17,35.17,0,0,0,13.34-7.54c.62-.55,1.37-1,2-1.53a3.16,3.16,0,0,1,3-.82,7.23,7.23,0,0,0,4.83-.64,26.25,26.25,0,0,1,2.56-1c.43,1.16.51,2.58,1.25,3.12,1.27.93.76,1.92.73,3,0,.25,0,.51,0,.82,2.16.72,4.75.32,6.26,2.53Z"/><text class="cls-1" transform="translate(84.48 44.83)">I<tspan class="cls-2" x="6.43" y="0">ndia</tspan></text></g></g></svg>