<svg xmlns="http://www.w3.org/2000/svg" viewBox="0 0 175.77 203.3"><defs><style>.cls-1{fill:#020202;}.cls-2{fill:#010101;}.cls-3{fill:#030303;}.cls-4{fill:#050505;}.cls-5{fill:#040404;}.cls-6{fill:#090909;}.cls-7{fill:#f5f5f5;}.cls-8{fill:#0d0d0d;}.cls-9{fill:#0b0b0b;}.cls-10{fill:#0a0a0a;}.cls-11{fill:#101010;}.cls-12{fill:#141414;}.cls-13{fill:#111;}.cls-14{fill:#0e0e0e;}.cls-15{fill:#1e1e1e;}.cls-16{fill:#242424;}.cls-17{fill:#2b2b2b;}.cls-18{fill:#343434;}.cls-19{fill:#121212;}.cls-20{fill:#0f0f0f;}.cls-21{fill:#181818;}.cls-22{fill:#f4f4f4;}.cls-23{font-size:30.24px;font-family:ArialMT, Arial;}</style></defs><title>Asset 27</title><g id="Layer_2" data-name="Layer 2"><g id="Japan"><path class="cls-1" d="M19.38,203.3c-.5-.39-1-.69-1.06-1.49s.72-1.8,1.47-1.6a2.29,2.29,0,0,1,1.5,1.32c.26.63-.28,1-.65,1.43-.19.22-.55,0-.67.34Z"/><path d="M21.22,185.25a3.12,3.12,0,0,0-.21,3.36,4.26,4.26,0,0,1,.58,1.57c0,.41,0,.84-.49,1a.8.8,0,0,1-1-.43c-.22-.74-.76-.71-1.32-.76a12.56,12.56,0,0,1-1.37-.2c-.48-.11-.86-.35-.83-.94a1.27,1.27,0,0,0-.67-1.14c.37-.05.64-.06.9-.12.9-.21,1.22-.77,1.23-1.71a3.56,3.56,0,0,0-1.13-2.93c-.18-.16-.46-.42-.22-.68.76-.82.45-1.83.49-2.75s.18-1.37,1.12-1.36a1.37,1.37,0,0,0,1.05-.67,14.33,14.33,0,0,0,2.08-4.2c.18-.45.23-1,.7-1.28-.49-.5-1.08.22-1.49-.23-.07-.16.05-.25.14-.33,1.59-1.44,1.62-1.49.22-3.17a4.44,4.44,0,0,1-1.17-2.32,1.62,1.62,0,0,0-1.18-1.45c-.28-.09-.44-.32-.71,0s-.77.56-.5,1.06a2.07,2.07,0,0,1-.35,2.76,1.38,1.38,0,0,0,1.05,0,1.42,1.42,0,0,1,1.51.88c.37.63-.13,1-.43,1.38a3.15,3.15,0,0,1-1.52,1.07c-.22.08-.46.41-.7.14a.89.89,0,0,1-.06-.77c.07-.25.19-.49.25-.75.1-.47-.09-.82-.59-.83-.83,0-1.71,0-2.12.94-.31.68-1.39.7-1.38,1.64,0,0-.17.07-.26.06a.22.22,0,0,1-.19-.28,1.62,1.62,0,0,1,.23-.75c.91-1,.24-1.69-.47-2.23-1.17-.88-1.15-1.95-.81-3.18.16-.57.42-.54.75-.25.64.58,1.33,1.17,1,2.18-.11.33,0,.46.27.41a2.43,2.43,0,0,1,1.32.33,2.47,2.47,0,0,0-1.41-2.92c-1-.54-1.5-1.62-2.54-2.08-.16-.07-.18-.27-.14-.44s.07-.11.09-.17c.72-2.18,1.1-2.25,3-.52a1.15,1.15,0,0,0-.05-1c-.63-.77.07-1.2.42-1.67s.61-.45,1,0a1.62,1.62,0,0,0,2.09.07c.06-.06.13-.22.11-.24-1.2-1,.69-.83.56-1.53-.05-.31.42,0,.52.18.3.58.79.49,1.29.43.12,0,.32,0,.3-.19-.24-1.22,1.4-1.64,1.19-2.88-.05-.24.38-.29.64-.36a4.89,4.89,0,0,0,1.55-.6.68.68,0,0,1,1,.13c.59.7,1.14.15,1.69,0,.15,0,.3-.28.13-.37-.74-.39-.32-1.13-.55-1.67a.48.48,0,0,1,.26-.66c.66-.33.61-.83.18-1.29a.76.76,0,0,1,0-1.13,3.07,3.07,0,0,1,3.54-1,1.44,1.44,0,0,0,1.86-.35c.67-.68,1.31-1.4,2-2.05a5,5,0,0,1,2.29-1.3,4.38,4.38,0,0,0,1.88-1.41,18.47,18.47,0,0,1,3.64-2.88,3,3,0,0,0,1.27-1.22,1.83,1.83,0,0,1,.83-.8,4.49,4.49,0,0,0,2.35-2.64c.24-.83,1.24-1.07,2-1.26a17.5,17.5,0,0,0,2.41-.81,4.62,4.62,0,0,1,2.83.18c-.26.43-.7.41-1,.58s-.67.29-.66.66.45.28.71.37.39.08.66.14l-.35-.72c.11,0,.2,0,.23,0a2,2,0,0,0,2.24.08,3.79,3.79,0,0,1,2.35-.26c1.37.21,2.75-.27,4.13-.34a6.28,6.28,0,0,0,3-1A6.38,6.38,0,0,1,69.8,133a1.21,1.21,0,0,0,1.54-.37,3.6,3.6,0,0,1,1.48-.92,1.29,1.29,0,0,1,1.32.12c.39.36.11.82,0,1.21-.26,1.07,0,1.62,1.24,2.16-.24-.44-.29-.81.13-1.05s.56.2.83.34c.5.27,1,.67,1.58.19.1-.08.34-.21.43,0s-.26.62.33.56c.37,0,.37-.52.59-.58.68-.18,1.23-.38,1.08-1.24,0,0,0-.07.06-.07,1.28.55,1.28-.4,1.44-1.2,0-.18.36-.16.49-.26.33-.25.33.89.66.13a1.08,1.08,0,0,0-.33-1.49c-.47-.3-.53-.8-.77-1.22a1.65,1.65,0,0,1,.19-1.93,13.07,13.07,0,0,1,2.18-2.56,27.32,27.32,0,0,0,5.06-6.32,4.93,4.93,0,0,0,.16-4.84,3,3,0,0,1,0-2.59,1.57,1.57,0,0,1,1.1-1.06,14.91,14.91,0,0,0,3.42-1.51,4.23,4.23,0,0,1,1.12-.38c.3-.08.62-.07.77.27a.62.62,0,0,1-.15.81,1.23,1.23,0,0,0-.61,1.24c0,.34-.26.52-.5.7a6,6,0,0,0-1.54,1.22c-.24.35-.64.21-1,.06s-.5,0-.62.31a1.11,1.11,0,0,0,.14,1.12.42.42,0,0,0,.6.14c.23-.13.41-.58.72-.18a2,2,0,0,1,.51,1.35,1.42,1.42,0,0,1-.08.18c-.69,1.89-.3,2.62,1.73,2.71,1,.05,1.55-.88,1.86-1.67a1.57,1.57,0,0,1,1.32-1.11c1.23-.23,2.24-1.12,3.54-1.19.43,0,.75-.43,1-.75a2.07,2.07,0,0,1,2.22-.92.75.75,0,0,0,.78-.33,10.94,10.94,0,0,1,2.06-1.84,10.05,10.05,0,0,0,3.09-5,4.16,4.16,0,0,1,1.37-1.89,20.38,20.38,0,0,1,3.65-2.54,2.81,2.81,0,0,0,1.56-2.66A11.47,11.47,0,0,1,120,91a7,7,0,0,0,1.19-3.22,20.1,20.1,0,0,1,1.31-4.32c.81-2.17,1.2-4.46-.11-6.65a1.65,1.65,0,0,1-.35-1.3c0-.17-.14-.14-.23,0-.17.69-.81.75-1.32.85a.77.77,0,0,1-.9-.72c-.08-.46.09-.65.57-.82a2.26,2.26,0,0,0,1.64-2.13,5.32,5.32,0,0,1,.24-1.37,2.15,2.15,0,0,0-.36-2.24,4.16,4.16,0,0,1-.91-2.56,2.85,2.85,0,0,1,1.85-2.15c1.92-.7,2-.83,1.93-2.83,0-.07,0-.15,0-.2.49-.75.17-1.28-.28-2s.55-1,.73-1.59c.12-.41.43.15.66.24a1.31,1.31,0,0,0,.87.1c.86-.21,1.32.22,1.53,1s.29,1.29.44,1.93c.05.22.1.45.17.67.14.4.27.92.77.92s.46-.58.57-.93c.38-1.2.37-1.21,1.48-.53,1.75,1.07,1.73,1.06,2.34-.91a2.74,2.74,0,0,0-.21-2.8c-.25-.31-.45-.45-.77-.1-.81.86-2,.83-3,1.46-.4.28-.69-.07-.73-.49a7.32,7.32,0,0,1,1.21-4.42c.33-.55,1-.08,1.53.06a2.51,2.51,0,0,1,1.07.87,1.4,1.4,0,0,0,2.2.26,3.86,3.86,0,0,1,.52-.3c0,1.25,0,2.39,0,3.53,0,.85,0,1.71.1,2.57,0,.52.23,1-.44,1.33-.47.24-.14.83-.25,1.27.52,0,.27-.63.76-.7.28.81.56,1.64.85,2.46.2.54.43,1,1.1,1.13a2.55,2.55,0,0,1,1.58,1.42A15.66,15.66,0,0,1,141.06,72c0,.19.05.44.18.54A5.35,5.35,0,0,1,143,77.22c0,.34-.09.73.24,1,1,.8.5,1.77.18,2.62a3.58,3.58,0,0,0-.41,2.56c.14.4-.45.48-.54.84A4.78,4.78,0,0,1,140.24,87c-.07,0-.17.14-.16.21.14,1.43-.93,2.57-1,3.88a24,24,0,0,0,0,3.39c0,.59.56,1,.92,1.54a1.53,1.53,0,0,1-1.69-.47,1.65,1.65,0,0,0-2.22-.26c-2,1-2.61,2.86-2.77,4.92a1.91,1.91,0,0,0,.33,1.23,8.42,8.42,0,0,1,1.21,5c0,1.92-.08,3.85,0,5.76a3.62,3.62,0,0,1-1.3,2.83c-.18.19-.44.3-.55.55a23.63,23.63,0,0,0-1.73,6.35c-.46,3.32,1.39,5.6,3.14,8l.18.25a3.77,3.77,0,0,1-1.27.51,4.19,4.19,0,0,0-3.24,4.09l0,1.19c0,1.79-.47,2.35-2.23,2.82a3.93,3.93,0,0,0-2.41,1.93c-.69,1.18-.7,1.23-1.9.56l-.35-.17c.79-1,.78-3.86,0-5,1.08-.42,1.63-1.46,2.52-2.12a1.22,1.22,0,0,0,.37-1.75,1.35,1.35,0,0,0-2-.45.87.87,0,0,1-.36.18c-.75.11-1.52.16-.76,1.25.22.32-.14.67-.44.89a1.58,1.58,0,0,0-.53,2.28,1.71,1.71,0,0,1,0,1.76c-.08.19-.06.51-.41.42a.66.66,0,0,1-.46-.47,2.11,2.11,0,0,0-3-1.31c-1.47.54-1.91,1.79-2.37,3.05a1,1,0,0,0,.32,1,1.07,1.07,0,0,1,.07,1.59,10.85,10.85,0,0,0-1.14,2.41c-.16.4-.33.81-.78,1s-1.06.7-1.62.08a1.65,1.65,0,0,1-.44-2,2.74,2.74,0,0,0,.19-1.54c0-.63-.19-1.26.58-1.6.28-.12.19-.36.08-.58a1.06,1.06,0,0,0-.89-.69,2,2,0,0,0-2.37,1.55.83.83,0,0,1-.34.47,7.1,7.1,0,0,0-2.33,2.74,2,2,0,0,0-.52,1.54c.12.61-.34.71-.73.53a11.81,11.81,0,0,0-5.35-.74c-.65,0-.54-.69-1.09-.82.14.74-.31.75-.84.87-1.45.34-2.86.8-4.29,1.19-.23.06-.55.3-.69,0s.17-.55.45-.67.75-.24,1.11-.39a2.34,2.34,0,0,0,1.18-.87.74.74,0,0,0,0-.84c-.2-.3-.45-.15-.71-.09a9,9,0,0,1-1.26.24c-.84.1-1.45-.11-1.42-1.14,0-.25,0-.61-.34-.59a.47.47,0,0,0-.4.66c.15.49-.29,1,.18,1.5.25.26.19.54-.17.71s-.57-.06-.65-.38a9.92,9.92,0,0,1-.36-3c0-.43.49-1.12.06-1.22a1.55,1.55,0,0,0-1.51.9,19.31,19.31,0,0,1-1.7,3.21c-.42.69.09,1.47.65,1.89A7.6,7.6,0,0,0,91,147.9a2,2,0,0,1,.83,3.21l-.13.14c-.32-.85-1.58.49-1.68-.8a6.93,6.93,0,0,1-3.13,1.44c-.66.19-1.09.5-1,1.22,0,.35,0,.56-.4.61a.28.28,0,0,0-.22.37c.3.95-.48,1.26-1,1.72a9.09,9.09,0,0,0-2,3.05,6.82,6.82,0,0,1-2,2.66c-.19.14-.38.45-.57.35-1.3-.68-2.94-.53-4-1.71-.31-.34-.63-.67-.45-1.21s-.32-1-.59-.92c-.81.26-.92-.38-1.28-.75s-.61-.5-.91-.76-.38-.76-.3-1.32c.18-1.32,1.36-2.65.08-4-.27-.29.12-.51.32-.58a6.73,6.73,0,0,0,3-2.43,1.93,1.93,0,0,0,.63-1.87,1.49,1.49,0,0,0-2.07-.59c-2.06,1.52-3.72.39-5.42-.6a5.46,5.46,0,0,0-6.25,1.37c-.07.11-.18.27-.26.27-.93-.06-1.24.78-1.82,1.22a2,2,0,0,1-3-.13c-.33-.33-.55-.21-.83,0a1.5,1.5,0,0,1-1.58.25c-.43-.21-.62.16-.8.39a2.63,2.63,0,0,1-2.06.94,9.33,9.33,0,0,0-5.71,2.08,1.16,1.16,0,0,1-1.12.16,2.21,2.21,0,0,0-1.54,0,.57.57,0,0,1-.77-.25c-.26-.44.16-.47.39-.61a2.35,2.35,0,0,0,.53-.41c.26-.32.26-.59-.23-.7a2.43,2.43,0,0,0-2.69,1.92,13.44,13.44,0,0,0-.29,2.45c.06.38-.28.65-.51.92a1.41,1.41,0,0,0-.35,1.49c-.82-.86-2.11-1-2.64-2.1-.21-.44-.47-.1-.68.1-.39.36-.59.27-.54-.26.08-.8-.42-.88-1-.8a7.22,7.22,0,0,1-2.59.35,1.51,1.51,0,0,0-1.39.56,1.24,1.24,0,0,1-2-.08,5.37,5.37,0,0,0-.58-.67c-.39-.31-1.28,0-1.16.43.36,1.27-.64,2.69.52,3.88.28.3.44.69.9.81a6.93,6.93,0,0,1,1.27.52c.91.43,1.65-.06,2.35-.6a1.94,1.94,0,0,1,2.8.27,2.7,2.7,0,0,1,0,2.52,3,3,0,0,1-1.75,1.22c-.42.07-.58.26-.54.66s.32.55.7.55c.72,0,1.45,0,2.18,0,1,0,1.09.17.61,1-.36.63-.2.86.47,1,1.28.27,1.27.3.5,1.29a2.39,2.39,0,0,0-.21.34.52.52,0,0,0,0,.18s0,.06.07.07c1.19.39,1.44,1.34.45,2.18s-2,2-3,2.94a.6.6,0,0,0-.15.72,1.55,1.55,0,0,1-.49,1.79,2.07,2.07,0,0,0-.44.65c-1,2.33-2,4.66-2.06,7.25a5,5,0,0,1-.87,3.08,5.74,5.74,0,0,0-.63,1.45c-.39,1-.85,1.14-1.63.38a1.46,1.46,0,0,0-.92-.52.93.93,0,0,0-.91.49c-.18.3-.06.5.12.78.43.64.64,1.3-.4,1.64a1,1,0,0,0-.57.37c-.69,1.27-2.13,1.34-3.17,2.06-.13.09-.32.17-.45,0a.5.5,0,0,1,.06-.71,6.78,6.78,0,0,0,1.11-2.5,1.37,1.37,0,0,0-.09-1.33,2.37,2.37,0,0,1-.4-1.6c.08-.75-.29-.9-.92-.82-.22-.86-.12-1,.68-.91.31,0,.67.26.8-.23.09-.3-.12-.49-.35-.63-.42-.26-.67-.05-.87.3A1.47,1.47,0,0,1,21.22,185.25Z"/><path d="M153,46.6c-1.06-1.06-2-2.15-3.23-2.36-4.16-.67-7.22-3.59-10.94-5.15a3.33,3.33,0,0,0-3,0,21.25,21.25,0,0,0-2,1.33,4.21,4.21,0,0,1-1.65,1,1.34,1.34,0,0,0-1,.94c-.32,1.05-.71.66-1.16.13a7.34,7.34,0,0,0-2.39-1.9,2.78,2.78,0,0,0-3.47.78,2,2,0,0,0,.29,3.13,12.79,12.79,0,0,0,1.52,1.1c.3.18.74.39,1,.17,1.36-1,1.66.44,2.06,1a4.09,4.09,0,0,0,2.26,1.9.9.9,0,0,1,.34.2c.37.36,1.16.45,1,1.18a1.72,1.72,0,0,1-2,.8,28,28,0,0,0-3-.43c-.44-.11-.55.53-.87.71a2.36,2.36,0,0,0-1.32,2.31c0,1-1.09.72-1.44,1.23s-.65,1.05-1.52.78a1.93,1.93,0,0,1-1.45-2,9.7,9.7,0,0,1,.68-3.27,6.39,6.39,0,0,0,.37-1.63,1.77,1.77,0,0,0-1-1.8c-1.08-.5-1.58-1.64-2.49-2.35a.94.94,0,0,1-.15-1.27,3.66,3.66,0,0,0,.33-2.5,1.56,1.56,0,0,1,1.33-1.92,1.13,1.13,0,0,0,.78-.37c.42-.62.86-1.18,1.73-1.06a.39.39,0,0,0,.31-.22c.3-1.18,1.29-1.8,2.08-2.57a.47.47,0,0,0,.05-.75,7.79,7.79,0,0,0-1.35-1.57,1.35,1.35,0,0,1-.48-1.51,1.17,1.17,0,0,1,1.15-.9,2.52,2.52,0,0,1,2.33.77c.55.63,1.12,1.07,2,.51a1.18,1.18,0,0,1,1.46.23,1.29,1.29,0,0,0,2,0,2.8,2.8,0,0,0,.88-3.82,7.28,7.28,0,0,1-.49-3.69,1.6,1.6,0,0,1,1-1.37,2.5,2.5,0,0,0,1.53-2.69,21.62,21.62,0,0,1,.55-5.58,7.86,7.86,0,0,0-.07-4.27,40.4,40.4,0,0,0-2.05-4.5,2,2,0,0,1-.16-1.85,3.83,3.83,0,0,0,.26-1.06c.09-.61-.34-1.54,1.06-1,.71.3,1.09-.76,1.48-1.5.86.77,1.73,1.46,2.47,2.27,1.3,1.4,3.05,2.36,4.05,4,2.65,4.46,6.61,7.35,11.24,9.45a1.14,1.14,0,0,1,.68.54,1.47,1.47,0,0,0,1.67.75c0-.31-.4-.38-.28-.8,1,.48,2.37-.07,3.18,1.11,1.14-.59,1.08.94,1.87,1.06s1.7.21,2.55.31a2.8,2.8,0,0,0,2.63-1.28c1-1.33,2.26-2.41,3-3.94.12-.25.35-.6.66-.51s.35.49.38.82c.13,1.17-.79,2-1,3a24,24,0,0,0-.82,3.05A1.86,1.86,0,0,0,169.43,22c.31.15.6.33.61.71a13.6,13.6,0,0,0,.84,2.72,1.25,1.25,0,0,0,2.09.65,5.36,5.36,0,0,1,1.94-1.32c.29-.08.69-.15.82.14s-.26.47-.5.6c-.47.27-1,.53-1.18,1a3,3,0,0,1-2.56,1.84A2.63,2.63,0,0,0,169.35,30a2.13,2.13,0,0,1-1.06,1c-.32.16-.63.2-.78-.27-.06-.21.29-.71-.3-.6-.37.07-.92.19-.87.66.11,1.14-.63,1-1.34,1.08a9.62,9.62,0,0,1-2.57-.09,2.79,2.79,0,0,0-2.26.45A19.38,19.38,0,0,0,154,39.77a5,5,0,0,0-.44,2.7C153.67,43.81,152.88,45,153,46.6Z"/><path d="M38.45,162.58a6.23,6.23,0,0,1,1.65-1A16.87,16.87,0,0,0,43.86,159a7.3,7.3,0,0,0,2.47-3.71,2.25,2.25,0,0,1,.47-1c1.43-1.75,2.28-1.69,3.36.31.38.69.89.92,1.53.5a3.08,3.08,0,0,1,2.18-.35A2,2,0,0,0,56,152.1c-.19-.47-.18-.75.41-.8a4,4,0,0,0,2.52-1.42c.26-.26.39-.49.78-.19a1.36,1.36,0,0,0,1.33.14,1.87,1.87,0,0,1,2.1.63,4.18,4.18,0,0,0,3.11,1.2,1,1,0,0,1,.84,1.56c-.47.82,0,1.32.56,1.79s.35.74.33,1.3c0,1.56-1.27,2.14-2.17,2.7a7.48,7.48,0,0,0-3.08,4.42c-.5,1.47-.49,1.47-1.58.29-.47-.51-.91-1.05-1.42-1.51a3.89,3.89,0,0,0-3.75-.94A28.84,28.84,0,0,0,52.39,163c-.45.18-.4.71-.46,1.13a5,5,0,0,1-2.31,3.31,3.86,3.86,0,0,0-.85,3c.08.31.36.67.06.91s-.63-.17-.89-.36a.79.79,0,0,0-1-.1c-.73.45-1.44-.28-2.26-.07.15-.36.27-.63.37-.9s.54-.75.2-.94-.87-.65-1.44-.28c-.19.12-.41.3-.63.14s-.15-.47-.06-.72c.23-.69-.37-.69-.74-.87-.14-.07-.33-.07-.3-.3s.21-.2.38-.19c.76,0,.71-.25.31-.73s-.7-.94.35-.8c.27,0,.34-.11.37-.32.05-.42,0-1-.37-1-1.2-.22-.9-1-.86-1.8,0-.23.22-.56-.12-.7s-.47.16-.71.27l-2.81,1.28Z"/><path class="cls-2" d="M105.39,103.78a8.93,8.93,0,0,0,.47-1.17c.1-.4.34-.88-.35-1.1-.35-.1-.19-.48-.2-.77,0-1.76,1.5-2.36,2.45-3.61a3.57,3.57,0,0,1-.09,2.37c-.2.59-.06.83.55.77s.72.24.52.82A3.45,3.45,0,0,1,105.39,103.78Z"/><path class="cls-2" d="M16.28,172.65c.4.2,1.06-.15,1.15.35a3.08,3.08,0,0,1-.35,2.47c-.15.21-.38.37-.55.57s-.41.57.16.67c.41.08.47.41.5.75s0,.72-.39.8a.62.62,0,0,1-.74-.52.92.92,0,0,0-.82-.91c-.35-.08-1-.37-.22-.88.2-.12.13-.25.07-.41-.38-.91.17-1.72.33-2.57C15.53,172.38,16,172.75,16.28,172.65Z"/><path class="cls-2" d="M67.77,151.16a1.6,1.6,0,0,1,.17-.56c.83-1,1.36-2.34,2.48-3.17.22-.16.47-.47.77-.29a.61.61,0,0,1,.09.89,4.61,4.61,0,0,0-.68,3c0,.48-1.41,1.35-2,1.19A1.18,1.18,0,0,1,67.77,151.16Z"/><path class="cls-1" d="M7.89,148.24A3.85,3.85,0,0,0,9,146.13c0-.18.14-.32,0-.53-.33-.51-.09-.86.4-1.1.17-.09.32-.23.49-.33s.48-.79.93-.46a1.27,1.27,0,0,1,.39,1.35,2,2,0,0,1-.41.88c-.5.61-1.07,1.13-.86,2.07.09.39-.32.51-.68.54A4.07,4.07,0,0,1,7.89,148.24Z"/><path class="cls-3" d="M26.22,195.59a4.66,4.66,0,0,1-.72,3.69,3.26,3.26,0,0,0-.77,1.78.69.69,0,0,1-.79.7c-.5,0-.37-.52-.39-.86,0-.06,0-.15,0-.19,1-1.55,1.08-3.52,2.26-5A.33.33,0,0,1,26.22,195.59Z"/><path class="cls-4" d="M1.12,171.08c-.32-.28-1.27.14-1.1-.79.11-.57,0-1.61.89-1.44.4.07.76-.48,1,0s.78.74.82,1.32C2.72,170.36,1.5,171.12,1.12,171.08Z"/><path class="cls-5" d="M9.71,149a2.79,2.79,0,0,0-.9,1.74.75.75,0,0,1-1,.71c-.58-.17-.72-.57-.61-1.15C7.51,148.85,7.7,148.72,9.71,149Z"/><path class="cls-5" d="M52,124.73c.23-.37-.13-1.22.72-1.17.53,0,1.21.23,1.3,1,.05.5-.92,1.3-1.45,1.24S52.05,125.22,52,124.73Z"/><path class="cls-5" d="M131.76,4.94c-.32.51-.65,1.08-1.32,1-.83,0-.61-.91-.8-1.38s.39-.73.88-.67A1.32,1.32,0,0,1,131.76,4.94Z"/><path class="cls-6" d="M18.77,174.68c-.41-.09-1.06,0-1-.75.12-1.08,1.14-.71,1.75-1,.23-.1.51,0,.5.39A1.26,1.26,0,0,1,18.77,174.68Z"/><path class="cls-7" d="M21.22,185.25a7.92,7.92,0,0,0,.52-.94c.28-.75.74-.52,1.24-.28s.57.68.36,1.2-.59.28-.94.15c-.58-.2-1.1-.31-.78.63C21.21,185.9,21.46,185.45,21.22,185.25Z"/><path class="cls-6" d="M4.68,167a2.37,2.37,0,0,1,.83-1.72c.15.7.59.72,1.19.49-.36.89-1.2,1.36-1.55,2.19,0,.07-.23-.16-.28-.32S4.54,167.23,4.68,167Z"/><path class="cls-8" d="M8.51,163.76c.81-1,.79-2.46,2.22-2.73A2.53,2.53,0,0,1,8.51,163.76Z"/><path class="cls-4" d="M63.61,148.62c-.6-.09-1.53-.34-1.48-.74.1-.68,1-.47,1.59-.55s.77,0,.72.6S64.13,148.68,63.61,148.62Z"/><path class="cls-9" d="M13.82,156c-.15.49-.35.91-.94.85-.36,0-.71-.2-.59-.61s.09-1.22.65-1.28C13.32,154.93,13.71,155.5,13.82,156Z"/><path class="cls-10" d="M43.19,155.06c-.54,1.09-1.55.64-2.3.91a.48.48,0,0,1-.41-.63c.15-.32.41-.73.82-.51A3.87,3.87,0,0,0,43.19,155.06Z"/><path class="cls-11" d="M116.55,45.17c-.18.6-.08,1.4-.74,1.53-.38.08-.52-.61-.5-1a1,1,0,0,1,1-1C116.7,44.67,116.46,45.05,116.55,45.17Z"/><path class="cls-12" d="M128.94,2.58c0,.41-.1.88-.4.77-.72-.28-.57-1.08-.75-1.68-.06-.23,0-.53.34-.43C128.83,1.47,128.76,2.15,128.94,2.58Z"/><path class="cls-13" d="M12.22,182.69a1,1,0,0,1-.4.81c-.3.28-.52.68-1,.73-.05,0-.18-.12-.17-.16a2,2,0,0,1,.76-1.2A1,1,0,0,1,12.22,182.69Z"/><path class="cls-11" d="M49.24,152a5.17,5.17,0,0,1-.09-.64c0-.37-.15-.83.36-1a.41.41,0,0,1,.35.09,1,1,0,0,1-.13,1.11A4,4,0,0,1,49.24,152Z"/><path class="cls-14" d="M50.86,126.19a1.21,1.21,0,0,1-.9.7c-.2,0-.47,0-.38-.25a1.08,1.08,0,0,1,.72-.75A.54.54,0,0,1,50.86,126.19Z"/><path class="cls-15" d="M2.66,169.15a.72.72,0,0,1-.54-.61c0-.37.25-.38.52-.39s.51.11.46.45S3,169.1,2.66,169.15Z"/><path class="cls-16" d="M19.67,171.33a.84.84,0,0,1,.68,1.06c0,.14-.17.36-.33.22A1.21,1.21,0,0,1,19.67,171.33Z"/><path class="cls-13" d="M13.38,182.08c-.27-.07-.32-.36-.32-.59s.34-.2.54-.22.5,0,.38.34A.57.57,0,0,1,13.38,182.08Z"/><path class="cls-13" d="M44.56,152.83a.89.89,0,0,1-1.13-.35c-.08-.15-.06-.37.16-.38C44.09,152.08,44.34,152.42,44.56,152.83Z"/><path class="cls-17" d="M4.68,167l.19.64c-.32.12-.75.42-.9-.1S4.32,167,4.68,167Z"/><path class="cls-18" d="M48.81,150.69c-.24.48-.32.89-.82.72a.39.39,0,0,1-.19-.3C48,150.68,48.32,150.73,48.81,150.69Z"/><path class="cls-19" d="M51.53,126.89a.48.48,0,0,1-.49.38c-.17,0-.33-.06-.28-.26a.45.45,0,0,1,.43-.33C51.34,126.68,51.51,126.66,51.53,126.89Z"/><path class="cls-20" d="M3.88,167.9c0,.15,0,.27-.22.25a.57.57,0,0,1-.53-.35c-.06-.15.06-.22.21-.23A.51.51,0,0,1,3.88,167.9Z"/><path class="cls-21" d="M4.14,168.81c.18,0,.3.15.26.33s-.05.4-.32.4-.18-.14-.19-.26A.39.39,0,0,1,4.14,168.81Z"/><path class="cls-22" d="M121.85,75.47c0-.18,0-.5,0-.52s.33.14.42.3-.1.21-.23.25Z"/><path class="cls-19" d="M50,127.53c.22-.08.45-.17.55.15,0,.1,0,.31-.11.29A.47.47,0,0,1,50,127.53Z"/><text class="cls-23" transform="translate(26.33 95.27)">Japan</text></g></g></svg>