<svg xmlns="http://www.w3.org/2000/svg" viewBox="0 0 113.29 174.19"><defs><style>.cls-1,.cls-2{fill:#c4c4c4;}.cls-2{font-size:21.17px;font-family:ArialMT, Arial;}.cls-3{letter-spacing:-0.02em;}</style></defs><title>Asset 19</title><g id="Layer_2" data-name="Layer 2"><g id="Mugwort"><path class="cls-1" d="M81.45,37.24a6.09,6.09,0,0,0-.06,2.12c.21.66.9.84,1.28,0,.46-1,1-1.74,2.29-1.6a2.54,2.54,0,0,1,2.3,2.1,28.68,28.68,0,0,1,.39,4c1.58-.69,2.67.29,3.34,1.91s.87,3-.26,4.35a2.38,2.38,0,0,1-.31.4c-1.4,1.23-1.39,1.62-.24,2.53,1.1-.43,2.09-1.2,2.91-1,1.26.23,1.85,1.55,2.11,2.78a4.53,4.53,0,0,1-.76,4,6.33,6.33,0,0,1,1.9.71,4,4,0,0,1,1.21,1.74c.57,1.68.63,3.36-.75,4.77a1.34,1.34,0,0,1-.43.26c-1.61.75-1.7,1.34-.4,2.73,2.15-1.43,3.7-.78,4.17,1.81.33,1.77.25,3.48-1.24,4.82a4.65,4.65,0,0,1,2.57,5.9c-.42,1.41-1.24,2-3,1.79l.12,2.6c3.55-.7,4,.71,4.17,3.55A3.48,3.48,0,0,1,101.08,93a17.54,17.54,0,0,1,1.77,3.36,5.68,5.68,0,0,1-.17,2.88c-.4,1.52-1,1.73-3.24,1.61-.8,1.28-.8,1.28.06,2.58a2.21,2.21,0,0,1,3,1.61,5.62,5.62,0,0,1-.63,4.79c-.3.49-1,.75-1.41,1.08a9.06,9.06,0,0,1,1.33,2.77,8.18,8.18,0,0,1-.49,3.59c-.46,1.31-1.37,1.6-2.69,1.07-.76-.3-1.21-.06-1.37.59s-.26,1.33.69,1.64c2,.63,2.49,1.65,2.28,4.1-.19,2.12-1,3.22-2.91,3.56a1.83,1.83,0,0,0,.19.66c1.24,1.6,1,3.33.3,5-.63,1.5-1.91,2.48-4.07.65-1.17,1-1.25,1.49-.41,2.64l0,0-1.34.79-.31-3.08-.41,0-1.52,3.31c.71-1.87,1.43-3.75,2.14-5.63l-.39,1.59.4.22,1.84-1.57a3.27,3.27,0,0,0,.23,1.05c.28.44.64,1,1.06,1.1.27.07.93-.48,1.07-.87a28.32,28.32,0,0,0,1.08-4,2.15,2.15,0,0,0-.5-1.39c-.18-.26-.62-.33-1-.48-.11.32-.25.64-.33,1s-.2.94-.29,1.41h-.55c-.12-.51-.47-1.12-.31-1.53a2,2,0,0,1,1.25-1c2.68-.66,2.79-.72,3.3-3.46a5,5,0,0,0,.22-1.51c-.11-.65-.26-1.52-.71-1.82s-1.18.27-1.74.44l-.7-2.85-.34,0-.68,2.39q.5-2.92,1-5.86l-.21,2.94.37.17,1.53-2.07a5.18,5.18,0,0,0,.86,1.35,1.21,1.21,0,0,0,1.18,0c.92-.86,1.4-4.6.77-5.73a8.06,8.06,0,0,0-1.11-1.28,4.76,4.76,0,0,0,1.3-.68c.81-.85,1.13-4.75.54-5.81-.47-.83-1-.89-1.68-.17-.21.24-.4.5-.56.71l-1.26-2.71-.36.13c-.12,1.74-.18,3.48-.37,5.21-.3,2.66-.68,5.31-1,8,.2-1.74.42-3.48.6-5.22A136.09,136.09,0,0,0,96.58,87a2,2,0,0,1,.21.59q.19,6.23.38,12.43c0,.56,0,1.12.08,1.69l.4.1L99,99.26a8.42,8.42,0,0,0,.54.91c.59.78,1.33.69,1.77-.2,1-2,.27-5.32-1.33-6.51.46-.68,1.23-1.32,1.3-2a19.61,19.61,0,0,0-.26-4.32c-.06-.4-.61-1-.9-1s-.85.52-1.21.88a2.11,2.11,0,0,0-.33.71L97,85.21l-.4.16V87c-.41-2.78-.81-5.57-1.21-8.35l1.3,6.23.34,0,.81-2.65c.59.25,1.38.86,1.74.67a2.26,2.26,0,0,0,.82-1.75,15.34,15.34,0,0,0-.46-3.28,1.89,1.89,0,0,0-1.75-1.73,3.45,3.45,0,0,1-1.86-1c-.29-.29-.21-1-.17-1.51,0-.14.44-.25.68-.38.14.44.27.88.41,1.31s.22.63.32.94c.43-.21,1-.31,1.26-.65.85-1.35-.23-5.29-1.83-6.37l-1.2,2.11-1.73-1.71-.37.23,1.85,8.31c-.12-.17-.32-.32-.36-.51-.66-3-1.3-6-2-8.94.43.75.72.44.85-.15.17-.77.24-1.56.37-2.44l1.21.81c1.62-.8,1.29-2.14.87-3.34-.52-1.44-.47-3.48-2.87-3.33.24-.79.78-1.61.62-2.27a18.37,18.37,0,0,0-1.64-4.22c-.4-.74-1.17-.68-1.57.18a11.16,11.16,0,0,0-.48,1.48l-2.32-.85.18-3.54c.45.06,1.16.34,1.39.13a2.24,2.24,0,0,0,.66-1.64,8.44,8.44,0,0,0-1-2.46c-.91-1.8-.94-1.78-2.87-1.38-.06,0-.17-.17-.25-.26h0c1.18-2.25-.12-3.88-1.44-5.44a1.65,1.65,0,0,0-1.44-.48c-.38.14-.67.81-.79,1.3a3.58,3.58,0,0,0,.07,1.28l-2.34-.5-.09.32,3.9,5.87L79.26,40.3l.84.63.35-.18L79.92,38l1.57-.73Z"/><path class="cls-1" d="M16.67,101c-.76.67-1.79.3-2.4-.86a5.12,5.12,0,0,1,1.59-6.53c-1.94-1.46-2.16-3.43-1.62-5.6.42-1.71,1.27-2.3,3-1.9.9.22,1.19-.36,1.16-.91s-.52-1.34-.84-1.36a2.26,2.26,0,0,1-2.38-2.33,11.56,11.56,0,0,1,.62-4.08c.22-.65,1.16-1.06,1.86-1.64-1.66-1.56-1.56-3.57-.77-5.61.7-1.82,1.67-2.06,3.33-1.09a1.09,1.09,0,0,0,1-.29c.49-.62.61-1.3-.2-1.84-2.61-1.74-3.11-4.32-1.16-6.65A7.87,7.87,0,0,1,22.05,59a4.84,4.84,0,0,1,.2-5.79,1.94,1.94,0,0,1,3.17-.38c.36.36.66,1.2,1.18.36a3.13,3.13,0,0,0,.14-1.91c0-.28-.58-.46-.83-.74-1.45-1.54-.87-5.39,1-6.36a5.68,5.68,0,0,1,2-.23,20.25,20.25,0,0,1,.27-3.69,4.16,4.16,0,0,1,1.51-2.11,1.9,1.9,0,0,1,2.76.65c.33.46.34,1.61,1.34,1a1.44,1.44,0,0,0,.44-2.11l0,0,1.45.14-.58,3,.42.18,1.22-1.18-2.51,3.15.91-1.74L35.92,41l-2.18.63a10.66,10.66,0,0,0-.11-1.82c-.25-1-1-1.23-1.85-.62A4.67,4.67,0,0,0,30.27,45l0,0c-.19,0-.47.2-.58.12-1.19-.88-1.83,0-2.35.81a8.69,8.69,0,0,0-1.22,2.62,2.57,2.57,0,0,0,.3,2c.24.33,1.14.15,1.78.21V54l1.07-1.23-1.09,2.2-.1-1.29-2.25,1.75a3.27,3.27,0,0,0-.08-1.1,10.78,10.78,0,0,0-.91-1.43c-.43.28-1.05.47-1.25.87-.95,1.86-2.31,3.72-.53,6a2.08,2.08,0,0,0-2.36,1.52,11,11,0,0,0-.83,2.67,8.13,8.13,0,0,0,.51,2.36l1.7-.44c.26,1,.54,2.14.83,3.28L20.7,70.93a1.34,1.34,0,0,0-.14-.58c-.34-.44-.74-.84-1.11-1.25-.4.37-1,.68-1.16,1.14a17,17,0,0,0-.77,3.6A1.81,1.81,0,0,0,19.25,76l0,0c-.2.15-.41.44-.61.44-1.59,0-1.75,1.26-2,2.35a7.8,7.8,0,0,0-.33,2.39,3.1,3.1,0,0,0,.71,2c.28.25,1.21-.24,1.85-.39l.92,2.41.39-.12c.09-.63.17-1.26.28-1.88Q21,79.58,21.65,76c-.49,3.82-1.23,7.62-1.42,11.44-.29,5.84-.31,11.71-.22,17.56,0,3.36.54,6.72.83,10.08h0c-.33-2.61-.68-5.22-1-7.83-.17-1.54-.24-3.09-.36-4.64l-.32-.08a13.4,13.4,0,0,0-.68,1.22c-.21.49-.34,1-.53,1.59l-1-1.57v0a5.29,5.29,0,0,0,.77-1.78c0-.31-.74-.66-1.14-1l1.19-1.3L19.16,102l.29-.16.46-16-.32-.18L18.3,87.77l-1.61-1.51a7.14,7.14,0,0,0-1.15,1.95c-.48,2.2-.52,4.35,1.7,5.79l0,0a1.48,1.48,0,0,0-1.88,1.38,29.07,29.07,0,0,0-.11,4.28A1.32,1.32,0,0,0,16.67,101Z"/><path class="cls-1" d="M30.64,152.33a9.45,9.45,0,0,0,.43-1.86c0-.25-.39-.67-.68-.74a1.06,1.06,0,0,0-.89.41c-1.24,1.64-2.56,1.62-3.69-.11a4.81,4.81,0,0,1-.5-5c-.9-.5-2-.76-2.49-1.46a7.92,7.92,0,0,1-1.1-3.31,2.84,2.84,0,0,1,1.76-3c1-.51.8-1.29.42-1.93s-1-.42-1.59,0c-1,.86-2.1.57-2.94-.72a5.19,5.19,0,0,1,.14-5.66,2.25,2.25,0,0,0,.19-.45,4.44,4.44,0,0,1-2.84-6,2.15,2.15,0,0,1,2-1.58,1.12,1.12,0,0,0,.76-.76,3.79,3.79,0,0,0-.38-1.64c-.05-.12-.69-.1-1,0a1.87,1.87,0,0,1-2.6-.89,5.34,5.34,0,0,1,.78-6.36,5.13,5.13,0,0,1-2-6.12c.51-1.39,1.27-1.82,2.62-1.46v0c-.5.4-1.25.7-1.45,1.22a5.78,5.78,0,0,0,1.62,6,16.19,16.19,0,0,0-1,2.93,5.86,5.86,0,0,0,.31,2.52,10.76,10.76,0,0,0,1.22,2l1.63-1.62,1.44,1.89.39-.23-.34-3.41h0l1.26,6-.86-1.89-.29,0-.66,2.63c-.64-.17-1.45-.62-1.78-.39a2.24,2.24,0,0,0-.68,1.74,15.64,15.64,0,0,0,.69,3.37,1.76,1.76,0,0,0,1.8,1.48,2.46,2.46,0,0,1,1.58.32,3.49,3.49,0,0,1,.77,1.67c0,.17-.45.46-.7.7l-.5-1.41s0-.09,0-.13c-.09-.26-.17-.72-.28-.73a1.06,1.06,0,0,0-.85.28,2.56,2.56,0,0,0-.61,1.46,11.75,11.75,0,0,0,.66,3.22c.25.67.84,1.6,1.41,1.7,1.05.2,1-1,1.28-1.7,0-.07.12-.12.14-.14l1.93,1.24.19-.27L24.55,131l3.75,9.43L25.48,135,25.2,135,25,138.17c-1.23-.73-2.34-.56-2.2.45a14.83,14.83,0,0,0,1.5,4.5c.26.53,1.29.69,2,1-.13.43-.66,1.23-.47,1.75A31.26,31.26,0,0,0,28,150.24a1.25,1.25,0,0,0,1-.11,11.34,11.34,0,0,0,.72-1.87l2.44.25v3.79H30.61Z"/><path class="cls-1" d="M66.07,169c-.39-.35-.81-1-1.18-1-.76,0-1,.73-.9,1.49h0l-1.13-1,1.63-2.56a27.68,27.68,0,0,1-11.82-.18c-.17,1.26.9,1.85,1.52,2.73l-1.29,1.05h0c.12-.79-.13-1.46-1-1.49s-.94.58-.95,1.33c0,1.64-.92,2.8-2.13,2.92a3.54,3.54,0,0,1-3.36-2.62c-.1-.49-.13-1-.19-1.41a9.48,9.48,0,0,1-2.26.93,2.65,2.65,0,0,1-2.58-1.54,3.93,3.93,0,0,1,0-4.15,1.92,1.92,0,0,0,.32-1.24,1.39,1.39,0,0,0-.87-.88c-.26,0-.76.43-.89.77-.38.95-.77,1.86-1.91,2s-1.85-.68-2.45-1.53a4.78,4.78,0,0,1-.59-4.32c-1.6.72-2.86.47-3.78-.89a4.06,4.06,0,0,1-.59-4.1c.16-.38.59-.64.89-1l0,0c-1,1.69.16,2.87,1,4.09,1.09,1.61,1.7,1.67,3.25.51h0c-.25,1.24-.83,2.52.27,3.66.89.91,1.8,1.8,2.66,2.66,1.5-1,1.17-2.24.87-3.44.61,0,1.12.1,1.62.09.74,0,1-.34.59-1l1.8,1.55-1.16-.6-.3.16.93,2.69c-.61.63-1.46,1.12-1.53,1.7a3.54,3.54,0,0,0,.89,2.07,4,4,0,0,0,1.32,1c1.45.86,1.45.85,2.55-.58.08-.1.3-.09.47-.13-.13,2.07.28,2.92,2,3.49a3.4,3.4,0,0,0,2.59,0c.83-.62.33-1.7-.21-2.52a.72.72,0,0,1-.06-.27c.55-.29,1.12-.56,1.66-.89.19-.12.46-.45.41-.56a1.34,1.34,0,0,0-.61-.51c-.8-.43-1.62-.84-2.43-1.25a71,71,0,0,0,7.48,2c1.63.25,3.36-.25,5-.37,3.4-.23,6.33-1.82,9.37-3.11l-5.67,2.72c-.24.12-.47.29-.7.43a2.7,2.7,0,0,0,.59.73,12.57,12.57,0,0,0,1.56.77L66,169Z"/><path class="cls-1" d="M46.3,28.23a3.4,3.4,0,0,1,1.18-4.54c1.32-.87,2.76-.33,4.06,1.64.11-.46.2-.79.28-1.12.35-1.45,1.88-2.7,3.1-2.53a2.87,2.87,0,0,1,2.42,3.25c-.06.85-.11,1.62.86,2.09a1.44,1.44,0,0,0,1-1.76,2.85,2.85,0,0,1,1-3,2.82,2.82,0,0,1,4.45,1.77c.09.35.16.7.26,1.13,1.65-2,3-2.43,4.25-1.46a3.44,3.44,0,0,1,1,4.5l0,0c.31-1.47-.3-2.23-2.13-3-2.1-.89-3.17,0-3.07,2.25l0,0-.47-1.85a2.46,2.46,0,0,0-2-2c-1-.14-2.16-.54-2.91.62s0,1.92.6,2.74a.38.38,0,0,1,0,.17,9.56,9.56,0,0,0-1.12.83,6.28,6.28,0,0,0-.71,1,11.42,11.42,0,0,0,1.12.39c1.23.26,2.46.5,3.69.74v0c-.55,0-1.11,0-1.66-.09a24.67,24.67,0,0,0-12.77,1.66C50.94,30,53.59,30.07,56,29.38c.68-.2,1.38-.34,2.07-.51l-1.69-1.58a1,1,0,0,1-.14-.23c.21-.31.45-.61.64-.94a1.8,1.8,0,0,0-.61-2.46,3.2,3.2,0,0,0-4.32,2c-.16.61-.38,1.2-.58,1.8l0,0c.21-1.06.05-2-1.09-2.39-1.79-.57-4.1,1.29-4,3.19Z"/><path class="cls-1" d="M70.16,28.23a3.94,3.94,0,0,0,0,1.37,1.23,1.23,0,0,0,.9.67,1.19,1.19,0,0,0,.85-.73c.7-2.26,1-2.64,2.52-2.53a3.33,3.33,0,0,1,2.86,3.13,15,15,0,0,1,0,1.77,6.06,6.06,0,0,1,2.36-.64,3.42,3.42,0,0,1,1.85,1.4c1.25,1.67,1.17,3.52-.06,4.57l0,0c.59-1.4-.1-2.39-1-3.37-1.94-2.06-1.91-2.08-3.82-.18h0c.45-2.72-.19-4.05-2.49-5.22-1.13-.57-2-.12-2,1.17a10.41,10.41,0,0,0,.35,2L70.28,32l-.13.4,1.18.93L63.24,30v0l7,2.06-1.49-2.67,1.44-1.19Z"/><path class="cls-1" d="M78.15,162.31c-.32-.65-.69-1.48-1.55-.93s-.72,1.27-.14,2.1a3.83,3.83,0,0,1-1.63,5.5c-1,.42-1.44.29-3.19-1a4,4,0,0,1-2.15,3.87,2.89,2.89,0,0,1-1.58.3c-1.27-.17-2-1.53-1.84-3.17h0c.52,1.58.95,1.88,2.5,1.3s2.8-1,2.65-3.66c.13,0,.3,0,.36,0,1.21,1.38,1.47,1.43,2.87.45a2.27,2.27,0,0,0,.57-.49c.52-.76,1.31-1.51,1.4-2.34.06-.51-1-1.14-1.56-1.78l.93-2.7-.37-.23-.91.58,3.86-3.78-2.67,3.31h2.45v2.63Z"/><path class="cls-1" d="M93.26,137.18c.58.53,1.41,1,1.7,1.63a4.44,4.44,0,0,1-1.82,5.31,5.79,5.79,0,0,1-1.69.36,5.26,5.26,0,0,1,.08,4.56c-1.06,2.32-2.39,2.6-4.16.79a1.07,1.07,0,0,0-.87-.25c-.26.08-.63.41-.64.65a6.69,6.69,0,0,0,.22,1.59l0,0-1.54.3c.11-.82.27-1.69.3-2.56,0-.2-.43-.41-.66-.62l2.26-4-1.6,3.51.15.29,2.26-.9a2.37,2.37,0,0,1,0,.42c-.09.87.07,1.85,1,2,.49.06,1.24-.73,1.62-1.31,1-1.53,1.92-3.14.65-5a4.76,4.76,0,0,0,1.62-.27c1.73-1.18,2.32-4.79,1.11-6.41Z"/><path class="cls-1" d="M64,169.53a3.4,3.4,0,0,1-.59,3.79,2.12,2.12,0,0,1-2.66.64,11.67,11.67,0,0,1-2.41-2.17s-.14.29-.26.58a2.62,2.62,0,0,1-2.8,1.75A2.5,2.5,0,0,1,52.86,172a8.37,8.37,0,0,1,.12-2.48h0a6.27,6.27,0,0,0,.61,1.95c.54.74,3,1.08,3.68.62,1.07-.67,1-1.76.92-2.85l0,0a20.66,20.66,0,0,0,1,2.13c.49.83,2.07,1.14,3.39.69A2.12,2.12,0,0,0,64,169.52Z"/><path class="cls-1" d="M86.08,151.82c1.58,1,1.89,2.9.81,4.94-.92,1.74-2,2.13-3.68,1.48a37.82,37.82,0,0,1-.88,4A3.08,3.08,0,0,1,81,163.57c-1.33.89-2.45.38-2.87-1.26l0,0c.56,0,1.22.31,1.65.1a4.53,4.53,0,0,0,2.42-5c0-.13.09-.3,0-.15.8,0,1.57.23,2.07,0a4.51,4.51,0,0,0,1.81-5.5Z"/><path class="cls-1" d="M35.26,37.75c-1.91-1.8-1.1-5.71,1.4-6.31a6.17,6.17,0,0,1,2.44.47,8.93,8.93,0,0,1,.35-2.45,4.14,4.14,0,0,1,1.57-2c1.69-1,3.62-.08,3.45,2.39h0C43.92,28,43.3,28.07,41.82,29a4,4,0,0,0-2,4.73h0c-.62-.42-1.36-1.3-1.84-1.18a4.24,4.24,0,0,0-2.71,5.27Z"/><path class="cls-1" d="M44.47,29.81c.47.16,1.06.57,1.39.42.89-.4.59-1.25.44-2l0,0,1.49,1.22-1.52,2.8a6.57,6.57,0,0,0,.95-.14c.44-.15.87-.33,1.3-.51l-2.33,1.45c.34-2.17-1.72-.73-2.25-1.46l.6-1.83Z"/><path class="cls-1" d="M46.16,33.09l2.33-1.45.32,0A24.67,24.67,0,0,1,61.58,30c.55.08,1.11.06,1.66.09l8.08,3.27a40,40,0,0,1,7.94,7l5.08,6.8L88.16,54l1,2.38,2,4.53L93.25,68c.65,3,1.29,6,2,8.94,0,.19.24.34.36.51l-.16,1.16c.4,2.78.8,5.57,1.21,8.35l0,0a136.2,136.2,0,0,1-.17,23.29c-.18,1.74-.4,3.48-.6,5.22l0,0q-.51,2.94-1,5.86l0-.06c-.6,2.46-1.21,4.91-1.82,7.37l-1.16,4c-.71,1.88-1.43,3.76-2.14,5.63-1.08,2.23-2.17,4.46-3.25,6.7l-2.26,4a33.1,33.1,0,0,1-5.87,7.5l-3.86,3.78-3.38,2.45c-3,1.29-6,2.88-9.37,3.11-1.69.12-3.42.62-5,.37a71,71,0,0,1-7.48-2,21.61,21.61,0,0,1-6.54-3.78l-1.8-1.55-4.32-4.31-3.36-4.92-1-1.11c-.16-.31-.33-.6-.47-.91l-3.45-7.13q-1.87-4.71-3.74-9.42l-2.46-9.9-1.26-6c-.29-3.36-.78-6.72-.83-10.08-.09-5.85-.07-11.72.22-17.56.19-3.82.93-7.62,1.42-11.44l0,.07,2.07-8.92c.18-.52.36-1.05.55-1.57l4-10.65,1.09-2.2,5.92-9.68,2.51-3.15c1.64-1.53,3.22-3.13,4.94-4.57A30,30,0,0,1,46.16,33.09ZM95.81,98c0-2.14.09-4.28,0-6.41a101.63,101.63,0,0,0-5.42-28.75c-3.38-9.62-8-18.47-15.85-25.34a25,25,0,0,0-12-6.07,22.29,22.29,0,0,0-15.29,2.51A36.72,36.72,0,0,0,35.61,44.54,68.8,68.8,0,0,0,25.53,65.1a107.62,107.62,0,0,0-4.8,32,109.06,109.06,0,0,0,3.49,28.82c3,11.27,7.49,21.81,15.8,30.34a27.32,27.32,0,0,0,12.84,7.83,22,22,0,0,0,14.32-1,32.84,32.84,0,0,0,12.5-9.94,65.71,65.71,0,0,0,10.21-18.61C94.26,122.68,95.86,110.45,95.81,98Z"/><path class="cls-1" d="M79.26,40.3a40,40,0,0,0-7.94-7l-1.17-.93.13-.4,2.25-.33a10.41,10.41,0,0,1-.35-2c0-1.29.85-1.74,2-1.17,2.3,1.17,2.94,2.5,2.49,5.22a5.91,5.91,0,0,0,.11,1.64c.12.35.58.62.95.82.08,0,.62-.44.59-.61a2.4,2.4,0,0,0-.6-1.09,5.75,5.75,0,0,0-1-.76c1.91-1.9,1.88-1.88,3.82.18.92,1,1.61,2,1,3.37L79.92,38l.53,2.76-.35.18Zm-2.94-6.42a12.25,12.25,0,0,0-.76-1c-.25-.25-.55-.46-.83-.69-.14.28-.44.59-.39.83a1.64,1.64,0,0,0,.65,1C75.28,34.22,75.76,34,76.32,33.88Z"/><path class="cls-1" d="M86.47,144.88c1.08-2.24,2.17-4.47,3.25-6.7.51-1.1,1-2.21,1.52-3.31l.41,0,.31,3.08,1.34-.79c1.21,1.62.62,5.23-1.11,6.41a4.76,4.76,0,0,1-1.62.27c1.27,1.88.34,3.49-.65,5-.38.58-1.13,1.37-1.62,1.31-.9-.1-1.06-1.08-1-2a2.37,2.37,0,0,0,0-.42l-2.26.9-.15-.29ZM90,142.7l-.19-.4c.42-.18,1-.26,1.21-.57a2,2,0,0,0,.1-1.27c0-.14-.51-.39-.56-.34-.28.26-.65.57-.7.91A7.34,7.34,0,0,0,90,142.7Zm-.29.48c-.66.55-1.25.84-1.43,1.28s.32.83.51,1.26a4.91,4.91,0,0,0,.75-1A6.68,6.68,0,0,0,89.74,143.18Z"/><path class="cls-1" d="M88.16,54,84.34,47.1l-3.9-5.86.09-.32,2.34.5a3.58,3.58,0,0,1-.07-1.28c.12-.49.41-1.16.79-1.3a1.65,1.65,0,0,1,1.44.48c1.32,1.56,2.62,3.19,1.44,5.44-.55.06-1,.07-1-.7,0-.36-.35-.7-.54-1.05-.21.12-.55.21-.58.36a2.34,2.34,0,0,0,0,1.31c.62,1.29,1.4.46,2.13.07.08.09.19.27.25.26,1.93-.4,2-.42,2.87,1.38a8.44,8.44,0,0,1,1,2.46,2.24,2.24,0,0,1-.66,1.64c-.23.21-.94-.07-1.39-.13,0,1.06-.12,2.3-.18,3.54Zm-1.84-8-.42.21c.23.59.45,1.2.74,1.77,0,0,.72-.09.82-.29C88,46.5,86.56,46.68,86.32,46Z"/><path class="cls-1" d="M88.16,54l.13-.09,2.32.85a11.16,11.16,0,0,1,.48-1.48c.4-.86,1.17-.92,1.57-.18a18.37,18.37,0,0,1,1.64,4.22c.16.66-.38,1.48-.62,2.27,2.4-.15,2.35,1.89,2.87,3.33.42,1.2.75,2.54-.87,3.34l-1.21-.81c-.13.88-.2,1.67-.37,2.44-.13.59-.42.9-.85.15L91.12,60.9l-2-4.53Zm4.68,5.72c-.09-.54-.12-.82-.18-1.1s-.23-.82-.34-1.24c-.27.08-.75.14-.76.24a3.34,3.34,0,0,0,.14,1.52C91.83,59.4,92.37,59.49,92.84,59.71Zm.29,3.71c1.32-1.29,1.18-1.92-.59-3Z"/><path class="cls-1" d="M91.86,132.55c.39-1.32.78-2.64,1.16-4,.61-2.46,1.22-4.91,1.82-7.37l0,.06c.22-.8.45-1.59.68-2.39l.34,0,.7,2.85c.56-.17,1.4-.68,1.74-.44s.6,1.17.71,1.82a5,5,0,0,1-.22,1.51c-.51,2.74-.62,2.8-3.3,3.46a2,2,0,0,0-1.25,1c-.16.41.19,1,.31,1.53h.55c.09-.47.17-.95.29-1.41s.22-.65.33-1c.33.15.77.22,1,.48a2.15,2.15,0,0,1,.5,1.39,28.32,28.32,0,0,1-1.08,4c-.14.39-.8.94-1.07.87-.42-.12-.78-.66-1.06-1.1a3.27,3.27,0,0,1-.23-1.05l-1.84,1.57-.4-.22Zm3.54-5.47c.47-.51.84-.77,1-1.12a2.35,2.35,0,0,0,0-1.21c0-.14-.54-.37-.58-.32a2,2,0,0,0-.67,1A6.81,6.81,0,0,0,95.4,127.08Z"/><path class="cls-1" d="M95.81,115.46c.34-2.66.72-5.31,1-8,.19-1.73.25-3.47.37-5.21l.36-.13,1.26,2.71c.16-.21.35-.47.56-.71.63-.72,1.21-.66,1.68.17.59,1.06.27,5-.54,5.81a4.76,4.76,0,0,1-1.3.68,8.06,8.06,0,0,1,1.11,1.28c.63,1.13.15,4.87-.77,5.73a1.21,1.21,0,0,1-1.18,0,5.18,5.18,0,0,1-.86-1.35L96,118.52l-.37-.17.21-2.94Zm2.7-4.07-.32-.22a5.53,5.53,0,0,0-.69,1.54c0,.29.44.65.69,1a3.76,3.76,0,0,0,.57-1.08A3.54,3.54,0,0,0,98.51,111.39Zm-.09-.86a11.23,11.23,0,0,0,.6-1.59,2.8,2.8,0,0,0-.07-1.15c0-.08-.6-.16-.65-.07a2.11,2.11,0,0,0-.4,1.09A8.26,8.26,0,0,0,98.42,110.53Z"/><path class="cls-1" d="M95.4,78.64l.16-1.16q-.91-4.16-1.85-8.31l.37-.23,1.73,1.71L97,68.54c1.6,1.08,2.68,5,1.83,6.37-.22.34-.83.44-1.26.65-.1-.31-.22-.62-.32-.94s-.27-.87-.41-1.31c-.24.13-.67.24-.68.38,0,.52-.12,1.22.17,1.51a3.45,3.45,0,0,0,1.86,1A1.89,1.89,0,0,1,100,77.91a15.34,15.34,0,0,1,.46,3.28,2.26,2.26,0,0,1-.82,1.75c-.36.19-1.15-.42-1.74-.67L97,84.92l-.34,0Zm1.85-2.1a13.2,13.2,0,0,0-.51,1.92c0,.25.27.6.51.78a.7.7,0,0,0,.65-.14,1.3,1.3,0,0,0,.14-.94A10.4,10.4,0,0,0,97.25,76.54Z"/><path class="cls-1" d="M96.61,87V85.37l.4-.16,1.52,2.47a2.11,2.11,0,0,1,.33-.71c.36-.36.78-.85,1.21-.88s.84.63.9,1a19.61,19.61,0,0,1,.26,4.32c-.07.7-.84,1.34-1.3,2,1.6,1.19,2.33,4.49,1.33,6.51-.44.89-1.18,1-1.77.2a8.42,8.42,0,0,1-.54-.91l-1.3,2.51-.4-.1c0-.57-.06-1.13-.08-1.69q-.19-6.21-.38-12.43a2,2,0,0,0-.21-.59Zm2.28,6.72a8.29,8.29,0,0,0-.61,1.77,1.63,1.63,0,0,0,.48,1c.06.09.58,0,.63-.14a2,2,0,0,0,.18-1.08A8.21,8.21,0,0,0,98.89,93.71ZM99,93c.43-2.35.43-2.35-.38-2.69C97.91,91.22,98,92.06,99,93Z"/><path class="cls-1" d="M28.21,54.93l-4,10.65c-.19.52-.37,1-.55,1.57l-.8,1.94.05,0-.83-3.28-1.7.44a8.13,8.13,0,0,1-.51-2.36,11,11,0,0,1,.83-2.67,2.08,2.08,0,0,1,2.36-1.52c-1.78-2.28-.42-4.14.53-6,.2-.4.82-.59,1.25-.87a10.78,10.78,0,0,1,.91,1.43,3.27,3.27,0,0,1,.08,1.1l2.25-1.75ZM23.8,60.74c-.51.45-.93.66-1.1,1a1.92,1.92,0,0,0-.08,1.19c0,.16.59.39.67.32a1.76,1.76,0,0,0,.58-.9A8.41,8.41,0,0,0,23.8,60.74Zm.13-1c1.12,0,1.35-.76,1.21-1.64,0-.23-.42-.41-.65-.61-.19.23-.49.43-.54.69A8.87,8.87,0,0,0,23.93,59.77Z"/><path class="cls-1" d="M46.16,33.09a30,30,0,0,0-3.49,2.24c-1.72,1.44-3.3,3-4.94,4.57l-1.22,1.18-.42-.18.58-3-1.45-.14a4.24,4.24,0,0,1,2.71-5.27c.48-.12,1.22.76,1.84,1.18-.23.27-.4.66-.69.79-1.2.55-1.29,1.07-.26,2.07,1-.81,1-.81,1-2.86a4,4,0,0,1,2-4.73c1.48-.89,2.1-.92,2.69.84l-.6,1.83C44.44,32.36,46.5,30.92,46.16,33.09Zm-6,.8c.45.15.87.44,1.13.33a1.48,1.48,0,0,0,.84-.89c.07-.31-.24-.72-.39-1.09-.27.25-.56.48-.81.74S40.48,33.5,40.16,33.89Z"/><path class="cls-1" d="M35.22,43.05,29.3,52.73,28.23,54V50.71c-.64-.06-1.54.12-1.78-.21a2.57,2.57,0,0,1-.3-2,8.69,8.69,0,0,1,1.22-2.62c.52-.79,1.16-1.69,2.35-.81.11.08.39-.08.59-.13.32.18.76.58.93.48a2.44,2.44,0,0,0,1.09-1.09c.1-.27-.32-.75-.5-1.14a9,9,0,0,1-.71,1.1,6.4,6.4,0,0,1-.85.69,4.67,4.67,0,0,1,1.51-5.83c.83-.61,1.6-.38,1.85.62a10.66,10.66,0,0,1,.11,1.82L35.92,41l.21.32Zm-4.75,3.08a4.6,4.6,0,0,0-1.14.7,1.36,1.36,0,0,0-.28,1c.05.25.42.65.62.63a1,1,0,0,0,.67-.62A10.39,10.39,0,0,0,30.47,46.13Z"/><path class="cls-1" d="M16.67,101a1.32,1.32,0,0,1-1.39-1.35,29.07,29.07,0,0,1,.11-4.28A1.48,1.48,0,0,1,17.27,94a11.83,11.83,0,0,0-.12,1.67,4.11,4.11,0,0,0,.45,1.12c.29-.29.88-.72.82-.86A14.58,14.58,0,0,0,17.24,94c-2.22-1.44-2.18-3.59-1.7-5.79a7.14,7.14,0,0,1,1.15-1.95l1.61,1.51,1.29-2.13.32.18-.46,16-.29.16-1.33-2.27L16.64,101Zm1-7.35a15.46,15.46,0,0,0,.83-2c.06-.23-.19-.62-.4-.82a.71.71,0,0,0-.68.07,1.61,1.61,0,0,0-.15.92A18.52,18.52,0,0,0,17.68,93.63Z"/><path class="cls-1" d="M21.65,76Q21,79.59,20.4,83.15c-.11.62-.19,1.25-.28,1.88l-.39.12-.92-2.41c-.64.15-1.57.64-1.85.39a3.1,3.1,0,0,1-.71-2,7.8,7.8,0,0,1,.33-2.39c.28-1.09.44-2.34,2-2.35.2,0,.41-.29.61-.44,1.12.14,1.42-.61,1.43-1.47,0-.31-.44-.63-.69-.94a3.7,3.7,0,0,0-.6,1A8,8,0,0,0,19.25,76a1.81,1.81,0,0,1-1.73-2.14,17,17,0,0,1,.77-3.6c.15-.46.76-.77,1.16-1.14.37.41.77.81,1.11,1.25a1.34,1.34,0,0,1,.14.58l2.24-1.81-.05,0c-.06.46-.1.92-.19,1.37-.35,1.87-.72,3.74-1.08,5.61Zm-2.43,3.86a1.72,1.72,0,0,0,.15-2.71C19,78.06,17.91,78.8,19.22,79.86Z"/><path class="cls-1" d="M20.87,115.07l.34,3.41-.39.23-1.44-1.89-1.63,1.62a10.76,10.76,0,0,1-1.22-2,5.86,5.86,0,0,1-.31-2.52,16.19,16.19,0,0,1,1-2.93,5.78,5.78,0,0,1-1.62-6c.2-.52.95-.82,1.45-1.22l1,1.57c.19-.59.32-1.1.53-1.59a13.4,13.4,0,0,1,.68-1.22l.32.08c.12,1.55.19,3.1.36,4.64C20.19,109.85,20.54,112.46,20.87,115.07Zm-2.61-4.75.37,0a5.5,5.5,0,0,0,.27-1.67c0-.32-.54-.58-.84-.87-.15.39-.46.81-.42,1.18A4.7,4.7,0,0,0,18.26,110.32Zm.53,1.18-.4.08a4.9,4.9,0,0,0-.34,1.42c0,.33.38.65.58,1,.23-.31.66-.63.65-.93A6.18,6.18,0,0,0,18.79,111.5Z"/><path class="cls-1" d="M22.1,121.13l2.46,9.9c.26,1.06.53,2.13.8,3.2l-.19.27-1.93-1.24s-.11.07-.14.14c-.24.73-.23,1.9-1.28,1.7-.57-.1-1.16-1-1.41-1.7a11.75,11.75,0,0,1-.66-3.22,2.56,2.56,0,0,1,.61-1.46,1.06,1.06,0,0,1,.85-.28c.11,0,.19.47.28.73,0,0,0,.09,0,.13l.5,1.41c.25-.24.74-.53.7-.7a3.49,3.49,0,0,0-.77-1.67,2.46,2.46,0,0,0-1.58-.32,1.76,1.76,0,0,1-1.8-1.48,15.64,15.64,0,0,1-.69-3.37,2.24,2.24,0,0,1,.68-1.74c.33-.23,1.14.22,1.78.39l.66-2.63.29,0Zm-.89,6,.31,0a7.93,7.93,0,0,0,.09-1.68c0-.29-.4-.56-.66-.8a1,1,0,0,0-.51.42,1.65,1.65,0,0,0,0,1A4.87,4.87,0,0,0,21.21,127.17Z"/><path class="cls-1" d="M28.3,140.45l3.45,7.13c.14.31.31.6.47.91l0,0-2.44-.25a11.34,11.34,0,0,1-.72,1.87,1.25,1.25,0,0,1-1,.11,31.26,31.26,0,0,1-2.22-4.35c-.19-.52.34-1.32.47-1.75-.69-.33-1.72-.49-2-1a14.83,14.83,0,0,1-1.5-4.5c-.14-1,1-1.18,2.2-.45L25.2,135l.28.05Zm-2,2.37.83-.18-.55-2.25c-.26.11-.77.26-.76.32C25.91,141.42,26.11,142.12,26.28,142.82Zm.62,1L28,145.85c.22-.27.61-.53.63-.81C28.71,144.22,28.34,143.67,26.9,143.77Z"/><path class="cls-1" d="M32.19,148.51l0,0,1,1.11,3.36,4.92,4.32,4.31c.43.7.15,1-.59,1-.5,0-1-.05-1.62-.09.3,1.2.63,2.41-.87,3.44-.86-.86-1.77-1.75-2.66-2.66-1.1-1.14-.52-2.42-.27-3.66a12.73,12.73,0,0,0,.1-2c0-.34-.45-.63-.7-1-.23.2-.68.42-.67.6a3,3,0,0,0,.47,1.13c.24.43.53.84.8,1.26-1.55,1.16-2.16,1.1-3.25-.51-.83-1.22-2-2.4-1-4.09h1.58Zm3.46,8-.2.39a4.49,4.49,0,0,0,.43.88,7,7,0,0,0,.91.79c.09-.48.41-1.1.22-1.4S36.13,156.75,35.65,156.54Z"/><path class="cls-1" d="M42.66,160.38a21.61,21.61,0,0,0,6.54,3.78c.81.41,1.63.82,2.43,1.25a1.34,1.34,0,0,1,.61.51c0,.11-.22.44-.41.56-.54.33-1.11.6-1.66.89a.72.72,0,0,0,.06.27c.54.82,1,1.9.21,2.52a3.4,3.4,0,0,1-2.59,0c-1.74-.57-2.15-1.42-2-3.49-.17,0-.39,0-.47.13-1.1,1.43-1.1,1.44-2.55.58a4,4,0,0,1-1.32-1,3.54,3.54,0,0,1-.89-2.07c.07-.58.92-1.07,1.53-1.7l-.93-2.69.3-.16Zm3,5.31.32-.22-1.22-1.79c-.27.27-.73.52-.78.83C43.68,166,45.22,165,45.61,165.69Zm.5.36,1.8,1c.07-.47.37-1.08.18-1.36C47.58,165,46.94,165.31,46.11,166.05Z"/><path class="cls-1" d="M58.15,169.24c.12,1.09.15,2.18-.92,2.85-.72.46-3.14.12-3.68-.62a6.27,6.27,0,0,1-.61-1.95l1.29-1.05c-.62-.88-1.69-1.47-1.52-2.73a27.68,27.68,0,0,0,11.82.18l-1.63,2.56,1.13,1a2.12,2.12,0,0,1-1.53,2.58c-1.32.45-2.9.14-3.39-.69a20.66,20.66,0,0,1-1-2.13,11.37,11.37,0,0,0-1-1.24c-.08-.07-.68.18-.7.33a5.94,5.94,0,0,0,.1,1.37Zm.73,0H60.7c-.08-.37-.05-.95-.27-1.06C59.68,167.77,59.18,168.14,58.88,169.22Z"/><path class="cls-1" d="M71.1,162.64l3.38-2.45.91-.58.37.23-.93,2.7c.6.64,1.62,1.27,1.56,1.78-.09.83-.88,1.58-1.4,2.34a2.27,2.27,0,0,1-.57.49c-1.4,1-1.66.93-2.87-.45-.06-.06-.23,0-.36,0,.15,2.69-1,3-2.65,3.66s-2,.28-2.5-1.3l.84-1.72a12.57,12.57,0,0,1-1.56-.77,2.7,2.7,0,0,1-.59-.73c.23-.14.46-.31.7-.43Zm-.19,2.93c.84-.11,1.37,0,1.67-.25.85-.66.77-1.46-.3-1.6C72,163.67,71.46,164.79,70.91,165.57Zm-.09.49c-.7-.83-1.31-1.16-1.86-.45-.22.28,0,.91.07,1.38Z"/><path class="cls-1" d="M48.81,31.61l-.32,0c-.43.18-.86.36-1.3.51a6.57,6.57,0,0,1-.95.14l1.52-2.8-1.49-1.22c-.05-1.9,2.26-3.76,4-3.19,1.14.37,1.3,1.33,1.09,2.39a3,3,0,0,0-.73,0c-.34.08-1,.27-.94.36a6.3,6.3,0,0,0,.41,1.32c.36-.2.82-.32,1.05-.62s.12-.71.17-1.08c.2-.6.42-1.19.58-1.8a3.2,3.2,0,0,1,4.32-2,1.8,1.8,0,0,1,.61,2.46c-.19.33-.43.63-.64.94a1,1,0,0,0,.14.23l1.69,1.58c-.69.17-1.39.31-2.07.51C53.59,30.07,50.94,30,48.81,31.61Zm5.72-4.18-1-1L52.4,27.66c.28.21.6.63.83.59C53.62,28.18,54,27.81,54.53,27.43Z"/><path class="cls-1" d="M70.19,28.27l-1.44,1.19,1.49,2.67-7-2.06c-1.23-.24-2.46-.48-3.69-.74a11.42,11.42,0,0,1-1.12-.39,6.28,6.28,0,0,1,.71-1,9.56,9.56,0,0,1,1.12-.83.38.38,0,0,0,0-.17c-.63-.82-1.32-1.64-.6-2.74s1.92-.76,2.91-.62a2.46,2.46,0,0,1,2,2L65,27.49c.07.32,0,.74.24,1a3.88,3.88,0,0,0,1,.62l.45-1.33a9.37,9.37,0,0,0-1-.31,3.27,3.27,0,0,0-.75.09c-.1-2.29,1-3.14,3.07-2.25C69.89,26,70.5,26.8,70.19,28.27ZM63,28.41l.68.29c.14-.36.48-.8.37-1.05A5.91,5.91,0,0,0,63,26.39c-.23.3-.66.62-.64.9S62.75,28,63,28.41Z"/><path class="cls-1" d="M78.34,156.41a33.1,33.1,0,0,0,5.87-7.5c.23.21.67.42.66.62,0,.87-.19,1.74-.3,2.56l1.54-.3a4.51,4.51,0,0,1-1.81,5.5c-.5.27-1.27,0-2.07,0,0-.15-.07,0,0,.15a4.53,4.53,0,0,1-2.42,5c-.43.21-1.09-.06-1.65-.1v-2.63H75.67Zm3.6-.41c.45-.2.87-.26,1.06-.51a2.35,2.35,0,0,0,.4-1.19c0-.19-.46-.6-.51-.57-.32.19-.74.42-.84.74A6,6,0,0,0,81.94,156Zm-.28.72c-.39-.09-.8-.31-1-.19a2.16,2.16,0,0,0-.88,1c-.08.21.28.59.44.89a9.48,9.48,0,0,0,.87-.81A5.93,5.93,0,0,0,81.66,156.72Z"/><path class="cls-1" d="M95.81,98c0,12.48-1.55,24.71-5.92,36.5a65.71,65.71,0,0,1-10.21,18.61A32.84,32.84,0,0,1,67.18,163a22,22,0,0,1-14.32,1A27.32,27.32,0,0,1,40,156.23c-8.31-8.53-12.78-19.07-15.8-30.34a109.06,109.06,0,0,1-3.49-28.82,107.62,107.62,0,0,1,4.8-32A68.8,68.8,0,0,1,35.61,44.54,36.72,36.72,0,0,1,47.26,33.91,22.29,22.29,0,0,1,62.55,31.4a25,25,0,0,1,12,6.07C82.34,44.34,87,53.19,90.38,62.81A101.63,101.63,0,0,1,95.8,91.56C95.9,93.69,95.81,95.83,95.81,98Zm-.94-3.21c-.26-2.94-.53-7-1-11.11-1.4-11.77-4.57-23-10.64-33.28A40.8,40.8,0,0,0,70.9,36.69a21.81,21.81,0,0,0-14.49-3.94,22.14,22.14,0,0,0-10.12,3.51,38.73,38.73,0,0,0-10.91,11A71.22,71.22,0,0,0,25.69,69a110,110,0,0,0-2.88,42.85c1.48,11.9,4.6,23.26,10.8,33.63,3.86,6.46,8.48,12.22,15.57,15.36a35.52,35.52,0,0,0,7.35,2.26c3,.61,6-.3,8.86-1.26a24.16,24.16,0,0,0,8.33-4.74,51.15,51.15,0,0,0,12.76-17.75C92.79,125.57,94.88,111,94.87,94.76Z"/><path class="cls-1" d="M21.62,76.07c.36-1.87.73-3.74,1.08-5.61.09-.45.13-.91.19-1.37.27-.64.53-1.29.8-1.94Z"/><path class="cls-1" d="M94.84,121.21c-.6,2.46-1.21,4.91-1.82,7.37Z"/><path class="cls-1" d="M36.54,154.52l-3.36-4.92Z"/><path class="cls-1" d="M89.17,56.37l2,4.53Z"/><path class="cls-1" d="M76.65,33.71a5.75,5.75,0,0,1,1,.76,2.4,2.4,0,0,1,.6,1.09c0,.17-.51.65-.59.61-.37-.2-.83-.47-.95-.82a5.91,5.91,0,0,1-.11-1.64Z"/><path class="cls-1" d="M76.32,33.88c-.56.1-1,.34-1.33.19a1.64,1.64,0,0,1-.65-1c0-.24.25-.55.39-.83.28.23.58.44.83.69A12.25,12.25,0,0,1,76.32,33.88Z"/><path class="cls-1" d="M90,142.7a7.34,7.34,0,0,1-.14-1.67c0-.34.42-.65.7-.91,0-.05.54.2.56.34a2,2,0,0,1-.1,1.27c-.24.31-.79.39-1.21.57Z"/><path class="cls-1" d="M89.74,143.18a6.68,6.68,0,0,1-.17,1.56,4.91,4.91,0,0,1-.75,1c-.19-.43-.64-1-.51-1.26S89.08,143.73,89.74,143.18Z"/><path class="cls-1" d="M86.44,44.75c-.73.39-1.51,1.22-2.13-.07a2.34,2.34,0,0,1,0-1.31c0-.15.37-.24.58-.36.19.35.52.69.54,1.05,0,.77.48.76,1,.7Z"/><path class="cls-1" d="M86.32,46c.24.68,1.72.5,1.14,1.69-.1.2-.8.33-.82.29-.29-.57-.51-1.18-.74-1.77Z"/><path class="cls-1" d="M92.84,59.71c-.47-.22-1-.31-1.14-.58a3.34,3.34,0,0,1-.14-1.52c0-.1.49-.16.76-.24.11.42.24.82.34,1.24S92.75,59.17,92.84,59.71Z"/><path class="cls-1" d="M93.13,63.42l-.59-3C94.31,61.5,94.45,62.13,93.13,63.42Z"/><path class="cls-1" d="M95.4,127.08a6.81,6.81,0,0,1-.21-1.68,2,2,0,0,1,.67-1c0-.05.56.18.58.32a2.35,2.35,0,0,1,0,1.21C96.24,126.31,95.87,126.57,95.4,127.08Z"/><path class="cls-1" d="M98.51,111.39a3.54,3.54,0,0,1,.25,1.21,3.76,3.76,0,0,1-.57,1.08c-.25-.32-.73-.68-.69-1a5.53,5.53,0,0,1,.69-1.54Z"/><path class="cls-1" d="M98.42,110.53a8.26,8.26,0,0,1-.52-1.72,2.11,2.11,0,0,1,.4-1.09c0-.09.63,0,.65.07a2.8,2.8,0,0,1,.07,1.15A11.23,11.23,0,0,1,98.42,110.53Z"/><path class="cls-1" d="M97.25,76.54A10.4,10.4,0,0,1,98,78.16a1.3,1.3,0,0,1-.14.94.7.7,0,0,1-.65.14c-.24-.18-.53-.53-.51-.78A13.2,13.2,0,0,1,97.25,76.54Z"/><path class="cls-1" d="M98.89,93.71a8.21,8.21,0,0,1,.68,1.52,2,2,0,0,1-.18,1.08c0,.13-.57.23-.63.14a1.63,1.63,0,0,1-.48-1A8.29,8.29,0,0,1,98.89,93.71Z"/><path class="cls-1" d="M99,93c-1-.91-1.1-1.75-.38-2.69C99.44,90.62,99.44,90.62,99,93Z"/><path class="cls-1" d="M23.8,60.74a8.41,8.41,0,0,1,.07,1.61,1.76,1.76,0,0,1-.58.9c-.08.07-.64-.16-.67-.32a1.92,1.92,0,0,1,.08-1.19C22.87,61.4,23.29,61.19,23.8,60.74Z"/><path class="cls-1" d="M23.93,59.77a8.87,8.87,0,0,1,0-1.56c.05-.26.35-.46.54-.69.23.2.61.38.65.61C25.28,59,25.05,59.73,23.93,59.77Z"/><path class="cls-1" d="M39.77,33.69c.09,2.05.09,2.05-1,2.86-1-1-.94-1.52.26-2.07.29-.13.46-.52.69-.79Z"/><path class="cls-1" d="M40.16,33.89c.32-.39.53-.66.77-.91s.54-.49.81-.74c.15.37.46.78.39,1.09a1.48,1.48,0,0,1-.84.89C41,34.33,40.61,34,40.16,33.89Z"/><path class="cls-1" d="M30.27,45a6.4,6.4,0,0,0,.85-.69,9,9,0,0,0,.71-1.1c.18.39.6.87.5,1.14a2.44,2.44,0,0,1-1.09,1.09c-.17.1-.61-.3-.93-.48Z"/><path class="cls-1" d="M30.47,46.13a10.39,10.39,0,0,1-.13,1.68,1,1,0,0,1-.67.62c-.2,0-.57-.38-.62-.63a1.36,1.36,0,0,1,.28-1A4.6,4.6,0,0,1,30.47,46.13Z"/><path class="cls-1" d="M17.24,94a14.58,14.58,0,0,1,1.18,1.9c.06.14-.53.57-.82.86a4.11,4.11,0,0,1-.45-1.12A11.83,11.83,0,0,1,17.27,94Z"/><path class="cls-1" d="M17.68,93.63a18.52,18.52,0,0,1-.4-1.84,1.61,1.61,0,0,1,.15-.92.71.71,0,0,1,.68-.07c.21.2.46.59.4.82A15.46,15.46,0,0,1,17.68,93.63Z"/><path class="cls-1" d="M19.22,79.86c-1.31-1.06-.27-1.8.15-2.71A1.72,1.72,0,0,1,19.22,79.86Z"/><path class="cls-1" d="M19.25,76a8,8,0,0,1,.11-1.47,3.7,3.7,0,0,1,.6-1c.25.31.69.63.69.94,0,.86-.31,1.61-1.43,1.47Z"/><path class="cls-1" d="M18.26,110.32a4.7,4.7,0,0,1-.62-1.33c0-.37.27-.79.42-1.18.3.29.81.55.84.87a5.5,5.5,0,0,1-.27,1.67Z"/><path class="cls-1" d="M18.79,111.5a6.18,6.18,0,0,1,.49,1.55c0,.3-.42.62-.65.93-.2-.33-.56-.65-.58-1a4.9,4.9,0,0,1,.34-1.42Z"/><path class="cls-1" d="M21.21,127.17a4.87,4.87,0,0,1-.79-1.06,1.65,1.65,0,0,1,0-1,1,1,0,0,1,.51-.42c.26.24.62.51.66.8a7.93,7.93,0,0,1-.09,1.68Z"/><path class="cls-1" d="M26.28,142.82c-.17-.7-.37-1.4-.48-2.11,0-.06.5-.21.76-.32l.55,2.25Z"/><path class="cls-1" d="M26.9,143.77c1.44-.1,1.81.45,1.77,1.27,0,.28-.41.54-.63.81Z"/><path class="cls-1" d="M35.65,156.54c.48.21,1.14.3,1.36.66s-.13.92-.22,1.4a7,7,0,0,1-.91-.79,4.49,4.49,0,0,1-.43-.88Z"/><path class="cls-1" d="M34.85,156.9c-.27-.42-.56-.83-.8-1.26a3,3,0,0,1-.47-1.13c0-.18.44-.4.67-.6.25.32.66.61.7,1a12.73,12.73,0,0,1-.1,2Z"/><path class="cls-1" d="M45.61,165.69c-.39-.66-1.93.33-1.68-1.18,0-.31.51-.56.78-.83l1.22,1.79Z"/><path class="cls-1" d="M46.11,166.05c.83-.74,1.47-1.06,2-.32.19.28-.11.89-.18,1.36Z"/><path class="cls-1" d="M58.15,169.24l-1.68.5a5.94,5.94,0,0,1-.1-1.37c0-.15.62-.4.7-.33a11.37,11.37,0,0,1,1,1.24Z"/><path class="cls-1" d="M58.88,169.22c.3-1.08.8-1.45,1.55-1.06.22.11.19.69.27,1.06Z"/><path class="cls-1" d="M70.91,165.57c.55-.78,1-1.9,1.37-1.85,1.07.14,1.15.94.3,1.6C72.28,165.55,71.75,165.46,70.91,165.57Z"/><path class="cls-1" d="M70.82,166.06,69,167c0-.47-.29-1.1-.07-1.38C69.51,164.9,70.12,165.23,70.82,166.06Z"/><path class="cls-1" d="M51.37,27.43c0,.37,0,.82-.17,1.08s-.69.42-1.05.62a6.3,6.3,0,0,1-.41-1.32c0-.09.6-.28.94-.36a3,3,0,0,1,.73,0Z"/><path class="cls-1" d="M54.53,27.43c-.57.38-.91.75-1.3.82-.23,0-.55-.38-.83-.59l1.09-1.23Z"/><path class="cls-1" d="M65,27.52a3.27,3.27,0,0,1,.75-.09,9.37,9.37,0,0,1,1,.31l-.45,1.33a3.88,3.88,0,0,1-1-.62c-.2-.22-.17-.64-.24-1Z"/><path class="cls-1" d="M63,28.41c-.23-.37-.61-.73-.64-1.12s.41-.6.64-.9A5.91,5.91,0,0,1,64,27.65c.11.25-.23.69-.37,1.05Z"/><path class="cls-1" d="M81.94,156a6,6,0,0,1,.11-1.53c.1-.32.52-.55.84-.74,0,0,.52.38.51.57a2.35,2.35,0,0,1-.4,1.19C82.81,155.74,82.39,155.8,81.94,156Z"/><path class="cls-1" d="M81.66,156.72a5.93,5.93,0,0,1-.57.9,9.48,9.48,0,0,1-.87.81c-.16-.3-.52-.68-.44-.89a2.16,2.16,0,0,1,.88-1C80.86,156.41,81.27,156.63,81.66,156.72Z"/><path class="cls-1" d="M50.7,90.66c.25,0,.66-.07.73,0,.47.8.87,1.63,1.51,2.88a8.09,8.09,0,0,0,0-1.89,8.2,8.2,0,0,1-.56-1.83l3.13,2.8L55.11,91l.2-.17,1.86,2.49c.76-1,0-2.49-1.74-3.65l2.64.64c-1.22-1.65-2-2.06-5.49-3.32l4,.49c-.62-.42-1.33-.72-.56-1.6.35-.38-.63-1.19-1.25-1-.33.12-.63.31-.91.44l-.45-1.54,1.12-.63c-1.67-.8-2.85-2.74-2.64-3.94-.5-.41-1.16-.71-1.38-1.21-.64-1.41-1.09-2.91-1.71-4.66,1.65,1.12,2.84,2.12,2.94,4a3.66,3.66,0,0,0,.9,1.67,14.06,14.06,0,0,0,2.52,2.81,11.77,11.77,0,0,1-.76-1.61,12.11,12.11,0,0,1-.29-1.82c-.08-.65-.14-1.3-.22-2.11l-1.73-1,1.81-.19c-.1-1-1.7-1.67-.48-2.93l1.46,3.23a16.14,16.14,0,0,0,.44-2.12,1.46,1.46,0,0,0-.45-1,11.27,11.27,0,0,1-2-4.08c-.13-.6-.72-1.1-1.14-1.69l.9-.44-1.73-3.43,1-.48,1.23,2.25c.74-.17,1-.56.51-1.24-.17-.24-.45-.41-.59-.66s-.51-.93-.38-1.1.79-.42,1.31-.66a5,5,0,0,0-3.62-3.39,3.94,3.94,0,0,1,.74-.12c.17,0,.4.13.49.06.24-.21.63-.56.58-.72-.25-.74-.66-1.43-.95-2.17a1.44,1.44,0,0,1,.06-.84c.39-1.33.19-1.73-1.14-2.07.15-.68,1.14-1.28-.14-2.05-.53-.31-.54-1.51-.73-2.31,0-.09.28-.36.44-.37a.82.82,0,0,1,.63.24,11.92,11.92,0,0,0,1.4,1.46c.29-1.66-.66-3-1.21-4.45l.3-.12,1,.92c-.4-2.72-.35-5.16,1-7.44,1.22,1.22,1,2.66.82,4.1,0,.2-.21.54-.15.58,1.66,1.27-.14,3,.74,4.51l1.13-1.32.35.06c-.12.88-.24,1.75-.35,2.62-.08.62-.44,1.48-.16,1.82,1,1.18-.2,1.94-.41,3l1.43-.15c.07,1.4-1.61,2.57-.08,3.93.39-.79.84-1.55,2-.59A10.34,10.34,0,0,0,57,58.07c-.12.39.29.94.51,1.56l1.33-1.7.2.1c-.25.57-.45,1.15-.75,1.69a4.88,4.88,0,0,0-.67,2.87c.16,2,0,3.94,0,5.38L59,63.64l.43,0,.22,2c.47-.36,1.07-.59,1.24-1a7.84,7.84,0,0,0,.16-1.84,12.53,12.53,0,0,1,.38-1.46l.57,0c.06,1.81.16,3.62.18,5.43,0,1.11-.2,2.23-.09,3.33a2.94,2.94,0,0,1-1.42,3c2,.06,1,1.17,1,2.14l1.42-.82.33.14c-1.38,1.22-1.87,2.56-.6,4.3.24-.17.8-.35.9-.67.56-1.73,1-3.51,1.5-5.25.12-.41.58-.74.64-1.15a10,10,0,0,0,.11-2.45,2.1,2.1,0,0,1,1.5-2.37,4.27,4.27,0,0,1-.13,3c-.38.75-.13,1.82-.19,2.74a5,5,0,0,1-.22,1.07c-.14.48-.3,1-.48,1.43-.12.3-.31.57-.44.86a4.67,4.67,0,0,0-.34,1.06c-.09.63-.11,1.27-.15,1.91L65,79.4l2.08,1c0-1.37,1-2.37.09-3.6-.2-.27.18-1,.3-1.48l.48,0a30.88,30.88,0,0,0,.66,4,3.5,3.5,0,0,1-.31,2.85c-.09.18.32.59.43.91a2.66,2.66,0,0,1,.16,1.07c0,.11-.56.31-.7.22a1.49,1.49,0,0,1-.66-.84c-.16-.91-.19-1.84-.27-2.83-1.35-.2-3,1.14-4.7,0l.76.94L62.63,83l2.17-.76.13.3a3.47,3.47,0,0,0-.88.59c-.28.33-.69.84-.6,1.13.4,1.27.75,2.47-.26,3.63-.09.11,0,.4.33.78l2.25-3.09c-.29,1-.59,1.78-.76,2.63-.11.49.06,1,0,1.54A3.09,3.09,0,0,1,64.48,91a5.41,5.41,0,0,1-1.12.86c1.08.52,1.49,1.46.87,2.25-1.18,1.49-.16,2.79,0,4.17l.44.08,1-4.56h.23L66,95.09l.26.16L67.81,93l0,0,1.45-1.22-1,2.53.86-.34a2.57,2.57,0,0,1-.77,2.47,7,7,0,0,0-1.13,2,10.2,10.2,0,0,1,1.15.64c-.32.75-.69,1.48-1.06,2.22l-.48-.17v-2l-.44-.17-1.52,2.17c3.27.36,3,2.41,2.67,4.54l.58-.08,1-5.68.35,1.44,2.68-5.65.43.18c-.27.91-.56,1.82-.78,2.75,0,.2.19.46.23.7s.13.61,0,.79c-.53.82-1.15,1.58-1.68,2.39a3.26,3.26,0,0,0-.54,1.56c.81-1.53,2.36-1.92,3.68-2.64l.26.27-4.93,4.53.2.21,2.54-2,.23.17c-.13.28-.27.55-.38.84-.36.91-1.56,1.33-1.21,2.76.14.6-1,1.54-1.62,2.3-.43.55-.91,1.07,0,1.65l1.07-.82c-1,2.33-4.34,3.87-2,7.18l1.19-5,.16,2.83.34.2c-.28-2.58,1.91-3.41,3.22-4.91-.28.56-.58,1.13-.85,1.7s-1,1-.26,1.79c.1.09-.32.79-.61,1.13-.85,1-1.89,1.92-2,3.14l4.18-3c-1.28,2.35-2.56,4.3-4.62,5.61-.27.18-.35.65-.43.81l4-1,.13.28c-.83.71-1.7,1.37-2.47,2.15-.19.19,0,.73,0,1.25a6.16,6.16,0,0,0-4.23,4.61c1.37-1.52,3.41-.71,4.91-1.63-1.27.91-1.8,2.77-4,2.48a1.92,1.92,0,0,0-2.34,2l1.54-.81.15.25-2.48,2,.93.55c-1.16-.14-1.24.64-1.33,1.43-.14,1.28-.31,2.56-.47,3.84l-.36,0a5.55,5.55,0,0,1,0-.91c.14-1.81.32-3.62.46-5.44a3.3,3.3,0,0,0-.16-1.12c-.34-1.11-.69-1.17-1.55-.33-.23.23-.5.43-.76.65l-.27-.31c.58-.5,1.11-1.3,1.77-1.43,1.22-.24,1.48-1.11,1.62-2,.17-1-.64-1.56-1.74-2a3.12,3.12,0,0,0,.14,1.06c0,.11.49,0,.9,0l.12,1.74-2.85,1.42,1.4-1.54c-.63-.83-1.28-1.1-2-.23-.95,1.21-2.42.66-3.71,1.26a3.9,3.9,0,0,1,3.32-2.4c-.36-.46-.32-.15-2.87.16-1.38.17-1.65,1.17-2.57,1.66l-.15-.94-1.78.93-.25-.22,2.44-2.9-.75-.65c1-1,2.23-.19,3.63-.61-1-.73-1.84-1.71-2.75-1.82s-2.1.55-3,.54l-2.27-.84,2.14-1.22-.11-.46a9.34,9.34,0,0,0-1.77.29c-.54.21-.87.45-1.4-.15-.35-.4-1.11-.43-1.77-.66l1.78-1.2-.06-.39,2.67.88.17-.26-2.7-2.15c2.87-.21,4.21,2,5.92,3.6l.34-.31-2.94-4.54.19-.2L52,118.49l.3-.19a3.16,3.16,0,0,0-.25-.77c-.14-.19-.43-.27-.6-.45-.46-.49-.47-1.41-1.51-1.43-.17,0-1.41-.68-.63-1.68.1-.13-.41-.73-.83-1.46l1.76.45c-.73-1.34-1.93-1.49-3.13-1.81l1.17-.06c.73-.38-1.5-1.6.79-1.57-.83-1.1-3.15-1.6-1.32-3.32-.51-1-1-1.79-1.39-2.64a.66.66,0,0,1,0-.48c.22-.61.47-1.2.8-2l.87,0v3.48c2.67.55.25,2.8,1.41,4l.73-1.25a10.54,10.54,0,0,1,1,2.29,12.29,12.29,0,0,1-.1,2.6c1.72-.7,1,1,1.87,1.34l.64-2.6v4.87l.2,0,.34-1.24h.25l.19,2.63.23.09.72-1.41c1,.47,1.48,1.07,1,2.31-.2.47.22,1.2.37,1.89l1.22-2.54.36.11c-1.06,1.78-.9,3.62-.93,5.45l.65,0,.27-3.17a13.24,13.24,0,0,0,3,5.87l.31-.12-.36-1.26,1.09.45-1.22-2.18,1.33,1c0-1.16,0-2.11,0-3,0-.18-.56-.42-.88-.44a8,8,0,0,0-1.61.34c1.45-1.14,2.63-2,2.42-3.6l-2.3-1.54.12-.26,1.17.3c.81-1.56.57-2.1-1.46-2.86l2.12-.38c-.26-.79-.26-.79-3.78-1.13l2.32-.94,0-.41c-.64,0-1.43-.24-1.89,0-1.53.93-2.26-.64-3.42-.73l.06-.34,4.33.68,0-.41c-2-.62-3.92-1.74-5.8-.84l-2-1.78,1.47-.49c.17.9,2.45,1.72,3.71,1.2-.64-.27-1.47-.36-1.6-.71-.47-1.2-1.16-1-2-.59.49-.61.26-.87-.44-1s-1.34-.35-2-.53l.12-.4,1.62.49-3.52-3.89.17-.17a21.56,21.56,0,0,1,2,1.83c.73.87,1.31,1,1.91-.3.94,2.43,2.34,4.19,4.63,5l-.92-6-.24,2.68a7.46,7.46,0,0,1-1.34-.53,2.25,2.25,0,0,1-.77-.85c-.51-.94-.88-2-1.47-2.84-.29-.42-.95-.58-1.48-.88a7.33,7.33,0,0,0,.73-.5c.27-.22.5-.49.75-.73a6.28,6.28,0,0,0-.83-.55c-1.22-.55-.19-1.46-.35-2.18,0-.16.14-.37.08-.22L49.81,91.5l.93-.88Zm7.1,11.56c.32.36.63.55.72.82a10.56,10.56,0,0,1,.18,1.39c.1.64.22,1.28.33,1.91l1.27-1.53c-.53,1.43-.71,2.66.59,3.8v-5.1h.39c0,1.27-.35,2.68.1,3.77S63,109,63.93,109.76l.36-.29-1.36-3.42,1.4.84-.17-3.06c-2.49.7-1.19,2.72-1.68,4.12-.46-2.3-.69-4.6-1.15-6.86s.07-4.72-1.15-6.86a1,1,0,0,1-.12-.34c.92-.51.26-1.09,0-1.55A9.91,9.91,0,0,0,58.88,91l-.33.19c.31,1.06-.73,2.43,1,3.22.2.09.19.84.11,1.25A4.73,4.73,0,0,1,59,96.81l.29.17,1-1.33.27.06v4c-.77-1.61-2-1.12-3.12-.85Zm1.33-21.85-.5-.11L57,83a2.73,2.73,0,0,1,1.39-2.84c.83-.46.91-.75,0-1.39s-1.78-.19-2.47.1V81l.76-.49v4.29l.89-1c.83,1.13-1.31,2,0,3.2l.64-.93c1.84.9.71,2.47.94,3.87C61.19,86.6,59.18,83.5,59.13,80.37ZM56.8,75c.35-.5,1.08-1.09,1.08-1.67a7.22,7.22,0,0,0-.78-3.19A11.07,11.07,0,0,0,55,68l-.08.18-.31-.89c-.39.75-.29.72.33,2.26C55.65,71.23,56.15,73,56.8,75ZM66,116.67l-.31-.07c-.16.31-.3.64-.48.93a1.41,1.41,0,0,0,0,.88,2.18,2.18,0,0,1,.25.77c.11,1.54.2,3.08.3,4.62H66ZM56.11,65.89A3.12,3.12,0,0,0,53.35,62Zm6.43,37.53.42-.09-1.18-5.7-.39.08C61.69,99.63,61.59,101.64,62.54,103.42Zm-6.69-5.68,2.43-.17a2.32,2.32,0,0,0-2.74-.86c-.38.15-.37,1.31-.53,2l.59.13Zm5.77-2.84c1.65,1.9,1.55,4.2,1.55,6.48C63.89,98.91,63,95,61.62,94.9ZM60.39,75.12l-.62-1.83h-.34L58.52,75Z"/><path class="cls-1" d="M67.81,93l-1,.5c.59-1.09-1.11-2.53.91-3.39-.4-1.13-2-2.26-.29-3.64l.78.84.79-.6.26.18-1.14,2L69.3,89l-1.53,4Z"/><path class="cls-1" d="M50.74,90.62a1.75,1.75,0,0,1-1.94-1.53,3.78,3.78,0,0,0-.47-1c-.19-.37-.4-.74-.59-1.11.25-.14.57-.44.75-.38.45.16,1,.4,1.21.77a32.93,32.93,0,0,1,1,3.29Z"/><path class="cls-1" d="M53.47,105.73c.83-.41,1.52-.61,2,.59.13.35,1,.44,1.6.71-1.26.52-3.54-.3-3.71-1.2Z"/><path class="cls-1" d="M52.09,58.58l1,1.8a3.82,3.82,0,0,1-1,.14,17.58,17.58,0,0,1-.57-1.78Z"/><path class="cls-1" d="M57.8,102.22l-.31-3.32c1.1-.27,2.35-.76,3.12.85v-4l-.27-.06-1,1.33L59,96.81a4.73,4.73,0,0,0,.58-1.17c.08-.41.09-1.16-.11-1.25-1.69-.79-.65-2.16-1-3.22l.33-.19a9.91,9.91,0,0,1,1.17,1.36c.27.46.93,1,0,1.55a1,1,0,0,0,.12.34c1.22,2.14.69,4.58,1.15,6.86s.69,4.56,1.15,6.86c.49-1.4-.81-3.42,1.68-4.12l.17,3.06-1.4-.84,1.36,3.42-.36.29c-.89-.81-2.14-1.48-2.55-2.49s-.1-2.5-.1-3.77h-.39v5.1c-1.3-1.14-1.12-2.37-.59-3.8L59,106.34c-.11-.63-.23-1.27-.33-1.91a10.56,10.56,0,0,0-.18-1.39C58.43,102.77,58.12,102.58,57.8,102.22Z"/><path class="cls-1" d="M59.13,80.37c0,3.13,2.06,6.23-.09,9.55-.23-1.4.9-3-.94-3.87l-.64.93c-1.26-1.16.88-2.07,0-3.2l-.89,1V80.48l-.76.49V78.88c.69-.29,1.4-.85,2.47-.1s.84.93,0,1.39A2.73,2.73,0,0,0,57,83l1.68-2.75Z"/><path class="cls-1" d="M56.8,75c-.65-2-1.15-3.8-1.84-5.52-.62-1.54-.72-1.51-.33-2.26l.31.89L55,68a11.07,11.07,0,0,1,2.08,2.21,7.22,7.22,0,0,1,.78,3.19C57.88,73.94,57.15,74.53,56.8,75Z"/><path class="cls-1" d="M66,116.67v7.12h-.29c-.1-1.54-.19-3.08-.3-4.62a2.18,2.18,0,0,0-.25-.77,1.41,1.41,0,0,1,0-.88c.18-.29.32-.62.48-.93Z"/><path class="cls-1" d="M56.11,65.89,53.35,62A3.12,3.12,0,0,1,56.11,65.89Z"/><path class="cls-1" d="M62.54,103.42c-.95-1.78-.85-3.79-1.15-5.71l.39-.08,1.18,5.7Z"/><path class="cls-1" d="M55.85,97.74l-.25,1.11L55,98.72c.16-.7.15-1.86.53-2a2.32,2.32,0,0,1,2.74.86Z"/><path class="cls-1" d="M61.62,94.9c1.37.06,2.27,4,1.55,6.48C63.17,99.1,63.27,96.8,61.62,94.9Z"/><path class="cls-1" d="M60.39,75.12,58.52,75l.91-1.72h.34Z"/><text class="cls-2" transform="translate(0 18.17)">MUGWO<tspan class="cls-3" x="85.84" y="0">RT</tspan></text></g></g></svg>