<svg xmlns="http://www.w3.org/2000/svg" viewBox="0 0 55.77 72.68"><defs><style>.cls-1{fill:#185422;}</style></defs><title>Asset 33</title><g id="Layer_2" data-name="Layer 2"><g id="skull"><path class="cls-1" d="M36.45,37.37c-1.88,1.25-3.45,5.85-8.67,5.85S20.13,37,19.31,37.37c-3,1.25,1,7.42,2.2,7.52s4.07,2.62,4.91,3.24,5-.94,5-1.46,6.7-6.38,6.7-6.38S38.33,36.11,36.45,37.37Z"/><path class="cls-1" d="M13.25,32.25c.17,1.18,7.84,3.81,7.84,3.81l2.2,3h10l2.19-3s5.75-1.3,6.59-3.81,5.95-15.16,4.7-20.07S41.26-.78,24.33.06,9.07,18.66,8.55,19.5s4.18,9,4.18,9ZM36,19a4.7,4.7,0,1,1-4.71,4.7A4.7,4.7,0,0,1,36,19Zm-8.24,9.71c4.6,2.3,3.55,5.23,3.53,5.81s-2.28-.06-2.69-.16a10.07,10.07,0,0,1-3.24,0C23.49,33.92,27.78,28.69,27.78,28.69ZM20.67,19a4.7,4.7,0,1,1-4.7,4.7A4.7,4.7,0,0,1,20.67,19Z"/><path class="cls-1" d="M52.44,50.64c4.5,2,3.14-.94,3.14-.94L53.28,46s-.42-3.86-.94-7c-4.29-.63-8.68,5.85-8.68,5.85L27.75,51.48,12.52,44.37c-4.6-6-8.36-5.22-9.61-4.7S2,45.42,2,45.42s-3,3.76-1.57,5.64,9.09-1.67,9.09-1.67l13.69,4.8S4.37,62.35,2.59,63.29.82,68.2.82,68.2l3,.21s3.34,3.24,5.54,4.07,3.55-1.31,3.55-1.31.63-3.29,1.57-6.32l13.66-8,13.2,8.54,3.13,7.13,3.24-.83,3.45-3A35.78,35.78,0,0,0,55,67.36c1.46-.63,0-3.55-.84-4s-7.73-1.25-7.73-1.25L33.63,54,47,49S48,48.66,52.44,50.64Z"/></g></g></svg>