<svg xmlns="http://www.w3.org/2000/svg" viewBox="0 0 265.1 416.37"><defs><style>.cls-1{fill:#fff;}.cls-2{font-size:39.71px;font-family:ArialMT, Arial;}.cls-3{letter-spacing:-0.11em;}</style></defs><title>Asset 25</title><g id="Layer_2" data-name="Layer 2"><g id="Taiwan"><path d="M59.83,281.24c-1.24.27-2.55.86-3.77.71a3.73,3.73,0,0,1-2.63-1.81c-.92-2.16-2.41-2.65-4.53-2.65a10.49,10.49,0,0,1-3.16-1.05,38.13,38.13,0,0,1,1.89-3.85,1.6,1.6,0,0,1,1-.6l2.39-5c.22.29.06,0-.2-.25-3.26-2.58-3.25-2.56-1.33-6.07a13.72,13.72,0,0,0,.39-1.65c1-2.84,1.67-5.94,3.27-8.43A17,17,0,0,0,55.76,238a35.67,35.67,0,0,1,.17-13.62,10.45,10.45,0,0,0-1.52-8.49c-2.6-3.67-2.76-7.61-1-11.66,3.91-8.92,7.67-18,15.81-24.11,3.91-2.95,5.2-7.25,6.32-11.79,2.21-9,6.17-17.2,13.08-23.66a28.09,28.09,0,0,0,8.06-12.9c1-3.4,3.3-6.41,4.79-9.69s2.65-6.64,4-9.94a80.43,80.43,0,0,1,3.59-8c2.21-4,4.8-7.78,7-11.78,1.72-3.14,3.27-6.28,7-7.55a3.39,3.39,0,0,0,1.24-1.1c4.74-5.58,9.64-11,14.14-16.81,2.18-2.78,3.7-6.09,5.36-9.25.92-1.75,1.53-3.67,2.28-5.52,1.61-3.94,3-8,4.87-11.8,1-2.08,2.21-4.4,4-5.7A208.19,208.19,0,0,1,172.59,23c2.23-1.3,5.22-1.44,7.9-1.82,5.25-.75,10.54-1.27,15.8-1.95a10,10,0,0,0,2.27-1c-.66-.77-1.1-1.37-1.62-1.87-2.61-2.43-2.59-3.47-.16-6.13C201,5.66,205.7,1.94,211.9.44c5-1.2,8.83,0,11.35,4.36,3.46,6,8,10.59,14.6,13a6.76,6.76,0,0,1,2.41,1.52c2.28,2.3,4.77,2.65,7.82,1.63s5.74.45,6.82,3.49a24.24,24.24,0,0,1,.94,4.17c.46,2.67,1.88,4,4.69,3.92,1.78,0,4.6-.57,4.57,2,0,1.6-2,3.42-3.53,4.66-1.09.89-2.81,1.14-4.29,1.37a9,9,0,0,0-6.92,5.36,27.79,27.79,0,0,1-2.91,5.24c-4,4.85-3.95,10.26-2.75,16,.82,3.9,1.66,7.81,2.21,11.75a6.32,6.32,0,0,0,3.78,5.29c2.44,1.14,3.05,3,2.25,5.39a9.8,9.8,0,0,1-1.58,3.32,13.3,13.3,0,0,0-3.24,8c-.06.81-1.07,1.68-1.84,2.27-5,3.83-7.11,6.5-5.1,12.82,1,3.17.52,6-2.62,7.91a3.53,3.53,0,0,0-1.34,1.45,16.19,16.19,0,0,1-6.45,7.4,5.32,5.32,0,0,0-1.94,4.07c.21,3.65-1.27,6.16-3.92,8.41-3.75,3.18-3.56,4.19-1.35,8.51a9.87,9.87,0,0,1,.7,6.75c-4.28,13.94-8.37,27.89-10.52,42.38-1.07,7.23-3,14.33-4.48,21.5-1,4.75-1.91,9.52-2.93,14.26a11.6,11.6,0,0,1-1.15,2.92c-3.24,6.16-5.46,12.5-5,19.69.28,4.67-2.24,8.63-5,12.23a53.82,53.82,0,0,0-8.58,15.41c-.87,2.53-3,4.59-4.34,7-1.5,2.69-3.17,5.4-4,8.33-1,3.86-2.58,7.12-6,9.35-1.83,1.21-3.59,2.54-5.44,3.71a21,21,0,0,0-8,9.07,29.86,29.86,0,0,1-5.09,7.54,22.41,22.41,0,0,0-5.35,10.54,58,58,0,0,1-3.31,9.66,24.35,24.35,0,0,0-1.8,10c0,10-.35,20-.88,30-.13,2.37-1.37,4.75-2.41,7a8.47,8.47,0,0,0-.41,7.17,8.17,8.17,0,0,1,.32,1.1c.55,2.34,1.35,4.91-1,6.56s-3.84-.7-5.56-1.7c-1.31-.77-2.53-1.72-3.78-2.59-1.94-1.37-3.61-1.86-5.29.6-1.24,1.79-3.19,1.29-3.75-.86-1.28-4.87-2.9-9.67-.36-14.76a5.77,5.77,0,0,0-.57-5c-3.68-4.64-4.74-9.94-4.77-15.57A22.48,22.48,0,0,0,108,360c-1.6-1.65-3.86-2.67-5.79-4-2.55-1.77-5.09-3.54-7.59-5.37-2.14-1.57-4.07-3.48-6.36-4.77-4.43-2.5-8.16-5.44-10.3-10.3-.61-1.4-2.49-2.53-4-3.18-3.5-1.46-4.49-2.52-4.69-6.28a41.35,41.35,0,0,0-2.93-12,150.19,150.19,0,0,1-5.52-20.85C59.94,289.34,60.11,285.27,59.83,281.24ZM220.29,103a39.11,39.11,0,1,0-39.06,39A39.1,39.1,0,0,0,220.29,103Zm-9.16-33.53c3-11,6-22.16,8.8-32.63L195.85,60.71Zm-72,48.16-23.77,23.91,32.53-8.79C144.7,127.37,141.76,122.28,139.09,117.67Zm56.8,27.42,24,23.88c-2.94-10.91-5.9-21.94-8.8-32.68ZM172,59.13h18.46q-4.47-16.77-8.92-33.4l-.65,0C177.92,36.92,175,48.07,172,59.13Zm8.92,121,.63,0c3-11.19,5.95-22.38,8.89-33.42H172Q176.43,163.33,180.92,180.12Zm-38.35-11.28,24-23.73-15.27-8.83C148.39,147.19,145.4,158.32,142.57,168.84Zm99.76-103.3L214.6,73l9.16,15.82c.44-.4,1.09-.92,1.67-1.5,5.42-5.39,10.76-10.85,16.26-16.14C243.43,69.52,243.84,68,242.33,65.54ZM137.45,112.13V93.84c-.62.12-1.43.23-2.22.44-5.8,1.53-11.55,3.34-17.42,4.53-3.66.75-5.4,3-7.08,6.2Zm87.53.06c6.3-2.36,13.9-1.67,18.2-8.46a6,6,0,0,1,2.21-1.77,14.93,14.93,0,0,1,2.52-.85l-1-1.59L225,93.68ZM166.69,60.66c-5-5-10.2-10.16-15.33-15.25-1,1.94-2.18,4.21-3.32,6.51-.33.67-.89,1.49-.74,2.09,1.28,5.29,2.7,10.54,4,15.52Zm59,75.14,8-7.71L223.33,117.7l-8.73,15.09ZM147.83,73c-2.93-.8-6-1.69-9.14-2.45a2.25,2.25,0,0,0-1.8.45c-2.67,2.65-5.25,5.39-7.35,7.58L139,88.25Z"/><path class="cls-1" d="M220.29,103a39.11,39.11,0,1,1-39.07-39.29A39.1,39.1,0,0,1,220.29,103Z"/><path class="cls-1" d="M211.13,69.51l-15.28-8.8,24.08-23.83C217.1,47.35,214.09,58.54,211.13,69.51Z"/><path class="cls-1" d="M139.09,117.67c2.67,4.61,5.61,9.7,8.76,15.12l-32.53,8.79Z"/><path class="cls-1" d="M195.89,145.09l15.23-8.8C214,147,217,158.06,219.92,169Z"/><path class="cls-1" d="M172,59.13c2.95-11.06,5.92-22.21,8.89-33.37l.65,0q4.46,16.67,8.92,33.4Z"/><path class="cls-1" d="M180.92,180.12q-4.48-16.76-8.93-33.44h18.45c-2.94,11-5.91,22.23-8.89,33.42Z"/><path class="cls-1" d="M142.57,168.84c2.83-10.52,5.82-21.65,8.75-32.56l15.27,8.83Z"/><path class="cls-1" d="M242.33,65.54c1.51,2.45,1.1,4-.64,5.65-5.5,5.29-10.84,10.75-16.26,16.14-.58.58-1.23,1.1-1.67,1.5L214.6,73Z"/><path class="cls-1" d="M137.45,112.13,110.73,105c1.68-3.19,3.42-5.45,7.08-6.2,5.87-1.19,11.62-3,17.42-4.53.79-.21,1.6-.32,2.22-.44Z"/><path class="cls-1" d="M225,112.19V93.68l21.9,5.84,1,1.59a14.93,14.93,0,0,0-2.52.85,6,6,0,0,0-2.21,1.77C238.88,110.52,231.28,109.83,225,112.19Z"/><path class="cls-1" d="M166.69,60.66l-15.38,8.87c-1.31-5-2.73-10.23-4-15.52-.15-.6.41-1.42.74-2.09,1.14-2.3,2.33-4.57,3.32-6.51C156.49,50.5,161.71,55.7,166.69,60.66Z"/><path class="cls-1" d="M225.73,135.8l-11.13-3,8.73-15.09,10.35,10.39Z"/><path class="cls-1" d="M147.83,73,139,88.25l-9.49-9.65c2.1-2.19,4.68-4.93,7.35-7.58a2.25,2.25,0,0,1,1.8-.45C141.81,71.33,144.9,72.22,147.83,73Z"/><text class="cls-2" transform="translate(0 59.13)"><tspan class="cls-3">T</tspan><tspan x="19.85" y="0">aiwan</tspan></text></g></g></svg>