<svg xmlns="http://www.w3.org/2000/svg" viewBox="0 0 273.88 447.54"><defs><style>.cls-1{fill:#fdfd02;}.cls-2{fill:#e9312a;}.cls-3{fill:#ea362f;}.cls-4{fill:#e9322b;}.cls-5{fill:#ea3a33;}.cls-6{fill:#ea3731;}.cls-7{fill:#eb3f39;}.cls-8{fill:#eb403a;}.cls-9{fill:#fdfd2e;}.cls-10{fill:#fefe50;}.cls-11{fill:#eb453e;}.cls-12{fill:#eb3932;}.cls-13{fill:#fefe85;}.cls-14{fill:#f79510;}.cls-15{fill:#f06b66;}.cls-16{fill:#fdfd22;}.cls-17{font-size:30.87px;font-family:ArialMT, Arial;}.cls-18{letter-spacing:-0.02em;}</style></defs><title>Asset 23</title><g id="Layer_2" data-name="Layer 2"><g id="Vietnam"><path d="M270.4,318.87c-.94,1-2,1.88-2.86,2.94a3.49,3.49,0,0,0-.57,3.67,1.9,1.9,0,0,0,1.42,1.54,1,1,0,0,1,.66.77c.1.39,0,.83.3,1.16s.45.53.68.8c-1.18.79-1.2.8-2.09,0a2.38,2.38,0,0,0-2.14-.48,8.07,8.07,0,0,0,1.47,3c.26.38.4.72,0,1.05s-.47,1-.47,1.52c0,1.63,0,3.26,0,4.89a2.84,2.84,0,0,0,.67,2.1,11.43,11.43,0,0,1,.75,1,2.83,2.83,0,0,1,0,3.2.54.54,0,0,1-.5.28c-.23,0-.31-.2-.4-.39-.39-.78-.19-1.69-.54-2.5a1.54,1.54,0,0,0-1.15,1.17,2.38,2.38,0,0,1-.78,1.27c-.44.28-.37.68-.25,1.09s.39.7.89.4a.2.2,0,0,1,.14-.05c.52.2,1.62,2.86,1.36,3.34-.62,1.16-1.29,2.31-1.91,3.47a1.13,1.13,0,0,1-1.37.63c-2.41-.38-2.38-.35-2.46,2.09a34.79,34.79,0,0,1-.29,4.56c-.16.92-1.61,2-2.43,1.55a1.61,1.61,0,0,0-1.55,0c-.94.38-1.88.77-2.84,1.11-.74.26-1.26.62-1.23,1.5,0,.29-.15.59-.17.89,0,.51-.31.75-.79.67-1.8-.3-3.35.62-5,1a1.91,1.91,0,0,0-1.65,1.7c-.35,1.71-.43,1.75-2.21,1.86a2.33,2.33,0,0,0-2,1.13c-.24.38-.53.75-.8,1.11-.4.53-.69,1.34-1.59.57-.13-.11-.49,0-.74.05a31.78,31.78,0,0,0-4.1,1.11c-.24.09-.56,0-.69.28-.64,1.3-2,2.3-1.82,3.93.09.91-.41,1.13-1.11,1.21-1.1.14-2.22.18-3.33.31a2.35,2.35,0,0,0-1.67.87,5.59,5.59,0,0,1-3.18,2,11.31,11.31,0,0,0-5.67,3.4c-1.13,1.19-2.32,2.14-4.13,1.59-.42-.13-.74.1-1,.46-.55.67-1.19,1.25-1.76,1.91a1.29,1.29,0,0,1-1.17.57,8.39,8.39,0,0,0-4.55,1c-.9.4-1,.31-1.17-.67-.36-2-.36-2,1.16-3.34,2.55-2.18,2.52-2.18,2.75-5.46.18-2.58.43-5.15.65-7.73a2.27,2.27,0,0,0,0-1.21c-.46,0-.7.38-1,.61-1.41,1.13-2.82.95-3.76-.65a2.45,2.45,0,0,0-2.16-1.38,2,2,0,0,0-2.26,1.39c-.25.63-.55,1.07-1.28,1-.55,0-.79.29-1,.74a14.16,14.16,0,0,0-1.23,9.91,8.25,8.25,0,0,1,0,3.92,3.46,3.46,0,0,0,.22,2.63,2.39,2.39,0,0,1-.42,2.67,5.75,5.75,0,0,0-1.22,1.71c-.18.55-.27.89.49,1.13a1.24,1.24,0,0,1,.49,2.14,8.91,8.91,0,0,1-2.43,2.06c-.22.12-.46.22-.67.36-1.3.85-1.37,1.68-.34,2.84.37.42,1.19.6,1,1.36a3.21,3.21,0,0,1-2.45,1.82c-1.18,0-1.84.87-1.3,1.91a5.64,5.64,0,0,1,.28,3.26c-.09,1.33-1.22,1.77-2.2,2.29a7.29,7.29,0,0,0-1.64.79,1.57,1.57,0,0,1-2.09,0c-.56-.34-1.09-.73-1.74-1.17a2.13,2.13,0,0,1-2.46,1.53c-.54,0-.73.26-.69.75a1.69,1.69,0,0,1-1.26,2c-.59.18-.67.52-.42,1,.15.3.51.56.3,1a2.26,2.26,0,0,1-1,.95,1.62,1.62,0,0,1-.71.26c-2.54,0-4.64,1.37-6.92,2.16-1.73.59-3.41,1.31-5.12,2a7.52,7.52,0,0,1-2.18.65,6,6,0,0,0-2.92,1.43,12.55,12.55,0,0,0-4.83,6.45c-.64,1.88-1.86,3.49-2.66,5.31-.13.29-.31.52-.69.44-.69-.13-1.08.23-1.55.71-3.39,3.49-7.42,5.42-12.42,4.77a4.77,4.77,0,0,1-2-.73,1.43,1.43,0,0,1,.41-.18,2.28,2.28,0,0,0,2.26-2c.26-1.16,1.31-1.5,2.11-2.07.53-.37.65-.71.3-1.23-.2-.31-.45-.25-.78-.24-2.52.08-2.33.53-2.22-2.31,0-1.16,0-2.34.05-3.51a27.26,27.26,0,0,1,.16-3.49,3.49,3.49,0,0,0-.2-2.39.82.82,0,0,1,0-.73c1-1.37.5-2.94.63-4.42.26-3.07.24-6.17.78-9.23a10.62,10.62,0,0,1,4.18-6.82c.47-.36,1-.61,1.31-1.1a.41.41,0,0,0-.23-.45,9.39,9.39,0,0,1-3-3.2c-.23-.43-.46-1-1.14-.54a.91.91,0,0,1-.28.07c-.26-1-1.49-.65-1.94-1.38a3.8,3.8,0,0,1-1-2.35c.07-.88-.59-1.05-1.29-1.14s-1.6.2-1.84-1c-1.72,1.45-3.21,2.83-4.84,4a11.51,11.51,0,0,1-2.7,1.39,1.18,1.18,0,0,1-1.59-.44,3.6,3.6,0,0,0-1.11-1c-.9-.56-1.91-1-1.94-2.32,0-.4-.46-.65-.77-.91-.63-.51-1.28-1-2-1.55a26,26,0,0,1,2.13-2.92c.67-.92.69-1.41-.26-2a8.58,8.58,0,0,1-2.76-3,1.3,1.3,0,0,0-1.35-.75,8.81,8.81,0,0,0-1.37.06,4.29,4.29,0,0,1-4.25-1.4,6.89,6.89,0,0,0-1.62-1.37c-.88-.43-1.08-.34-1.14.61,0,.15,0,.3,0,.46a2.37,2.37,0,0,1-2.43,2.64,6,6,0,0,0-2.42.82,2.5,2.5,0,0,1-2,.33,1,1,0,0,1-.15-.74c.07-.61-.26-.79-.79-.86A2.44,2.44,0,0,1,96.14,387c-.76-1.07-.27-2,0-3a.59.59,0,0,1,.58-.41c.25,0,.51,0,.76,0,1.77,0,1.79,0,2.31-1.77a4.18,4.18,0,0,1,1-1.69,2,2,0,0,0,.43-2.25c-.24-.72-.43-1.46-.68-2.17a5.49,5.49,0,0,1-.49-2.52,1.1,1.1,0,0,0-1-1.3c-.81.07-.93-.4-1.19-.87a2,2,0,0,0-2.1-1.2c-1.08.07-1.68.36-1.78,1.41a4.34,4.34,0,0,1-.91,2c-.56.91-1.34,1.84-.65,3.08a.77.77,0,0,1-.43,1.14c-.38.14-.68.64-1.24-.06s-1.49-.45-2.31-.45-1.63-.08-2.2.72a1.87,1.87,0,0,1-1.63.67c-.05-.16-.16-.33-.12-.44.28-.76,0-1.19-.77-1.23s-.78-.29-.57-.88c.11-.33,0-.75.14-1.05,1-2,.38-4,0-5.95a1.68,1.68,0,0,0-.44-.93c-.62-.67-.58-.83.1-1.44.49-.43,1.16-.69,1.47-1.29.14-.27.4-.64-.13-.88-.38-.17-1-.06-1-.71a3.79,3.79,0,0,1,.11-1.95c.15-.31.32-.62.48-.93-.68-.7-1.28-.84-1.88,0a1.41,1.41,0,0,1-.49.37c-.37.21-.56,0-.61-.35a3.11,3.11,0,0,1,0-.61,1.28,1.28,0,0,0-.76-1.49c-.78-.36-1-1-1.17-1.81a60.37,60.37,0,0,0-3.71-11.9c-.37-.78-.72-1.58-1-2.38a20,20,0,0,1-.9-9.15,14.15,14.15,0,0,0,.11-3.79c-.06-.65.5-.84.89-1.12Q96,312.51,117.65,296.73c6.7-4.89,13.41-9.77,20.07-14.73,3-2.2,2.94-2.17,5.88,0q23.39,17.07,46.74,34.17c9.78,7.16,19.61,14.25,29.33,21.48a.62.62,0,0,0,.3.12c.3-.34,0-.65-.09-.94-3.48-10.33-6.73-20.73-10.11-31.08-5.23-16-10.35-32.09-15.54-48.12-1.24-3.83-2.55-7.63-3.67-11.5-.57-2-.56-2.25,1.11-3.48,8.32-6.14,16.69-12.2,25-18.32,4.43-3.26,8.88-6.48,13.31-9.75.44-.32.86-.75,1.5-.59a2.5,2.5,0,0,0,2.27,1c.57,0,1,.19.61.94a3.15,3.15,0,0,0-.27.87c-.33,1.54,0,2,1.58,2.1a.9.9,0,0,0,1-.64c.22-.58.57-.86,1.14-.44.41.31.76-.24,1.23,0-.09.62-.67.83-1,1.18a2.41,2.41,0,0,0,0,3.79c.88.85,1.78,1.67,2.71,2.46a2.36,2.36,0,0,1,1,1.49c.35,2.6,1.85,4.55,3.58,6.36.32.33.59.71.91,1a3.38,3.38,0,0,1,1.28,2.77,1.44,1.44,0,0,0,.65,1.45c.55.28,1.15,0,1.68-.9l2.25,3.28c.11,0,.21,0,.27-.1,1.32-1.26,1.29-1.25,2,.43a18.91,18.91,0,0,0,2.34,3.22c.44.59.84,1,.2,1.65-.47.47-.33,1-.28,1.59a23.73,23.73,0,0,0,3.5,10.12,10.54,10.54,0,0,1,1.64,5.28,9.34,9.34,0,0,0,.55,2.67,29.5,29.5,0,0,1,1.38,5,6.76,6.76,0,0,0,1.16,2.62,3.21,3.21,0,0,1,.62,2.16,2,2,0,0,0,.29,1.31,2.43,2.43,0,0,1,.51,1.86,1.14,1.14,0,0,0,.55,1.17,2.5,2.5,0,0,1,.76,2.49,2.33,2.33,0,0,0,.81,2.58,1,1,0,0,1,.38.94c0,1,0,1.93,0,2.83-.18.11-.26.22-.33.21-1.28-.11-2,.46-1.8,1.78a5.1,5.1,0,0,0,1.26,3.19,1.65,1.65,0,0,1,.63,1.48,2,2,0,0,0,1.19,2.34,2.32,2.32,0,0,1,.44.39,2.36,2.36,0,0,1-1,1.3c-.56-.07-.19-.63-.51-.82a1.07,1.07,0,0,0-1.73.76,1.82,1.82,0,0,0,.94,2,3,3,0,0,1,1.64,3.15,9.42,9.42,0,0,0,1.74,7.17,18.09,18.09,0,0,0,2.1,3c.77.75.56,1.46-.4,1.93s-2,.71-1.69,2.11C271.11,318.82,270.57,318.42,270.4,318.87Z"/><path d="M117.87,160.85c-2.05-2.46-3.82-5.14-5.77-7.68-.91-1.17-.59-1.37-2.33-.74-.38.14-.78.23-1.15.39a2.08,2.08,0,0,1-2-.16c-3.37-2-7.12-2.94-10.84-4-1.28-.36-2.51.23-3.76.27-.25,0-.38.31-.47.56-.2.58-.44,1.14-.62,1.72a2.81,2.81,0,0,1-1.2,1.7,4.15,4.15,0,0,0-1.93,2.62,2.39,2.39,0,0,1-2,1.85,1.19,1.19,0,0,0-.65.33c-.92.9-1,1.14-.26,2.29.16.25.35.49.59.84a3.93,3.93,0,0,1-2.39.86c-1.17-.06-2.31.35-3.49.21-.59-.07-.93.32-1.28.69a46.2,46.2,0,0,0-4.18,4.44c-.26.35-.53.8-1.11.51s-1.44-.32-1.61-1.2c-.22-1-.42-2.08-.64-3.13-.08-.4-.13-.84-.66-.89-2.48-.24-4.63-1.46-6.88-2.36-.48-.19-.92-.44-1.4-.62a2.53,2.53,0,0,1-1.57-1.54,6.18,6.18,0,0,1-.4-.82c-.37-1.89-2-2.08-3.41-2.6a.69.69,0,0,0-.9.34c-.19.31-.42.58-.59.9a2.31,2.31,0,0,1-2.67,1.49c-.59-.11-.94.24-1.27.66-.62.81-1.29,1.57-1.87,2.4a1.08,1.08,0,0,1-1.43.46c-.91-.33-1.85-.57-2.74-.95-.57-.24-.81-.06-1.08.4A7.88,7.88,0,0,0,42.68,163a2.62,2.62,0,0,1-2.17,2.36c-1.46.4-2.85,1-4.28,1.6-.58.23-1.14.48-1.17,1.23A1.87,1.87,0,0,1,34,169.78a27,27,0,0,0-5.81,4.66c-.66.66-1.43.39-2.16.4s-.63-.6-.79-1c-.34-.76-.73-1.27-1.7-1.16-.71.08-.94-.38-.7-1.06,0,0,0-.11.06-.14,1.35-1.18.88-2.72.7-4.13a7.68,7.68,0,0,1,.29-3.12c.83-3,2.58-5.51,4-8.2a7.58,7.58,0,0,1,.53-.92c.51-.71.59-1.4-.15-2s-.61-1.34-.62-2.09V149.6a.58.58,0,0,0-.62,0c-.41.16-.79.71-1.21.39a1.69,1.69,0,0,1-.68-1.62c.3-1.25.5-2.58,1.68-3.46a18.89,18.89,0,0,0,2.91-2.45A5.06,5.06,0,0,0,31,139c0-1.42,0-2.85,0-4.28a3.06,3.06,0,0,1,.62-2c.78-1.07,1.5-2.18,2.26-3.26s.75-1-.17-2c-.34-.37-.66-.78-1-1.14a2.43,2.43,0,0,1-.65-1.5c-.23-2.22-.41-4.45-.68-6.66a1.8,1.8,0,0,1,.59-1.77,3.59,3.59,0,0,0,.37-.48c1.41-1.66,1.39-1.64.11-3.39a1.25,1.25,0,0,0-1.41-.63,14.64,14.64,0,0,1-5.44,0,8.24,8.24,0,0,0-4,.53,10,10,0,0,1-4.47.74c-1.37-.07-2.75,0-4.12,0a1.35,1.35,0,0,1-1.45-.83c-.6-1.3-1.25-2.56-1.89-3.84a1.36,1.36,0,0,1,.14-1.77,9.18,9.18,0,0,0,1.32-2.22c1.2-2.64,2.33-5.3,3.53-7.94.27-.59.31-1-.41-1.12a6,6,0,0,1-3.83-2.78C9.53,91.36,8.55,90.19,7.65,89,7,88,5.87,88.09,5,87.74c-.35-.13-.43.33-.54.6-.49,1.18-1,2.34-1.45,3.53-.21.55-.45.9-1.1.71s-1.37,0-1.52-.92c-.27-1.69-.65-3.29.11-5a66,66,0,0,0,2.83-7.72,3.33,3.33,0,0,1,1.26-1.64A9,9,0,0,1,9.9,75.41c2-.11,3.93-.4,5.9-.58.53,0,.85-.22,1-.75s.27-.77.42-1.22c-1.52-.84-3-.37-4.48.08-.41-.45-.17-.93-.26-1.36a1.63,1.63,0,0,1,1.17-2,3.51,3.51,0,0,0,1.78-1.78c1-1.79,2.07-3.51,3-5.29a2,2,0,0,1,1.21-1c.53-.16,1-.43,1.58-.56a21.47,21.47,0,0,0,6.21-2.8,7.5,7.5,0,0,0,3-2.74c.07-.13.18-.24.26-.37a.64.64,0,0,1,.8-.25.55.55,0,0,1,.41.71c-.3,1.25-.06,2.54-.25,3.79a5.11,5.11,0,0,0,.54,3.35c.32.57.53,1.2.83,1.8.95,1.91,2.18,2.39,4,1.39s3.68-.66,5.53-.55,3.81.49,5.72.72a3.57,3.57,0,0,0,2.17-.63,5.46,5.46,0,0,0-1.34-1.48A6.41,6.41,0,0,1,47,58.65a12.52,12.52,0,0,0,0-1.37A3.74,3.74,0,0,1,48.13,54a10.55,10.55,0,0,0,1.11-1.81,1.66,1.66,0,0,0,0-2.08c-1.23-1.8-2.31-3.71-3.55-5.51a2.18,2.18,0,0,1-.27-2.39c.43-1,1.18-2,1-3a7.83,7.83,0,0,0-1.54-2.59,7,7,0,0,1-.78-1.82c-.46-1.47-.46-1.5,1-1.83.41-.1.65-.24.64-.68,0-.1,0-.2,0-.3a4.62,4.62,0,0,1,2-3.86,2.27,2.27,0,0,1,1.48-.6c2.79.12,5.57-.15,8.36.42A12.71,12.71,0,0,0,63,27.84a1.1,1.1,0,0,0,.9-.7c0-.09.1-.18.14-.27a16.33,16.33,0,0,1,3.46-5.15,2.32,2.32,0,0,0,.83-1.85A1.9,1.9,0,0,1,71,18.11a35.85,35.85,0,0,1,5.55,2.5c.8.44,1.55,1,2.36,1.4,1.09.6,2.14,1.2,2.25,2.63,0,.4.35.6.65.8a15.7,15.7,0,0,1,1.64,1.11c1,.88,2.22.54,3.36.56.49,0,.55-.42.59-.76a4.5,4.5,0,0,1,2.41-3.28c1.1-.74,1.74-2,2.67-2.89a7.33,7.33,0,0,0,1.8-2.79c.15-.46.33-.82.9-.88s.77.46.91.84c.82,2.27,2.23,4.22,3.31,6.42a1.69,1.69,0,0,0,1.44-1.83,20.79,20.79,0,0,1,.4-2.69c.11-1,.72-1.33,1.45-1.72a1.89,1.89,0,0,1,2.1.24,3.5,3.5,0,0,1,1.6,1.56c1.17,2.92,3.81,4.39,6.15,6.42.87-1.3,2-2.3,2.33-3.87.09-.45.3-.87.38-1.32.46-2.48,2.34-3.36,4.45-4a.86.86,0,0,1,1.23.7c.16.53.07,1.35.87,1.44,1.13.13,2.19.8,3.41.2a98.63,98.63,0,0,1,9.07-4c1-.39,1.32-1.47,2-2.21.2-.22.26-.56.46-.79a1.53,1.53,0,0,0,.16-2A2.08,2.08,0,0,1,137,7.6c.59-.89,1.12-1.82,1.63-2.76.37-.67.79-1,1.59-.68.32.14.71.12,1,.26a1.55,1.55,0,0,0,1.81-.36,5.69,5.69,0,0,1,3.25-1.52,7.4,7.4,0,0,0,2.71-1.34c3-1.65,3-1.71,5.51.54A11.89,11.89,0,0,1,158,6.13c.06.15.14.28.2.42C159,8.14,160,9.17,162,8.81a4.18,4.18,0,0,1,4.92,2.25c.53,1,2.26,1.13,3.38.49a12.16,12.16,0,0,0,1.69-1,1.83,1.83,0,0,1,2-.15,16.59,16.59,0,0,1,5.1,2.67,2.15,2.15,0,0,0,2.13.38c1.18-.28,2.37-.54,3.56-.81a2.82,2.82,0,0,1,2.46.4,17.33,17.33,0,0,0,4.85,2.17,1.17,1.17,0,0,1,.93,1.31,4.06,4.06,0,0,1-.84,3,8.78,8.78,0,0,0-1.1,1.65c-.62,1.12-1.28,1.88-2.81,1.58-1.1-.21-1.26.11-1.28,1.3,0,.51.05,1,0,1.52-.26,2.1.13,3.91,2,5.18a1.79,1.79,0,0,1,.68,1.32c.18,1.4.49,2.8.57,4.21a7.12,7.12,0,0,0,1.51,3.6A4,4,0,0,0,196,40.88c.77-.41,1.27-.52,1.84.37a2.06,2.06,0,0,0,1.86.86c.71-.06,1.12.18,1,.93-.42,1.85.58,2.62,2.15,3.14a36.5,36.5,0,0,1,3.36,1.44c.32.14.64.38,1,.29,1.2-.27,1.6.52,2,1.4s.73,1.45,1.08,2.13c.18,0,.3,0,.36,0a2.39,2.39,0,0,1,3.37.37,1.36,1.36,0,0,0,2.11.1,2.22,2.22,0,0,1,1.1-.5l5.49-1.23a1.35,1.35,0,0,1,1.41.28c1.21,1.16,2.47,2.27,3.7,3.41a4.59,4.59,0,0,1,.53.55,1,1,0,0,1,.08,1.37c-.22.21-.67.23-1,.49s-.42-.44-.87-.47l-.72.92a.39.39,0,0,1-.46-.17c-.69-.68-1-.75-1.56,0-.29.39-.43.62-.92.38s-.78.17-1,.48a2.94,2.94,0,0,1-3,1.26c-.91-.16-1.37.23-1.62,1.12-.32,1.13-.38,1.09-1.58,1-.82,0-1.63.07-2.44.07s-.9.84-1.41,1-1-.55-1.73-.38-1,.42-1,1.21a9.65,9.65,0,0,0,.64,3.86c.35.73-.07,1.58-.19,2.36-.24,1.56-.27,1.59-1.79,2a5.25,5.25,0,0,0-2.55,1.26,1.12,1.12,0,0,1-1,.33c-.66-.06-1.32-.07-2-.1-.14-.66.25-1.22.18-1.93a10.67,10.67,0,0,0-2.79.53c-.06.6.76.66.72,1.35a4,4,0,0,1-1.68.08,3,3,0,0,0-1.85.56c-1.66,1.11-1.84,1.52-1.24,3.42a.86.86,0,0,1-.94-.57c-.47-.85-1.18-.62-1.88-.5s-.76.78-.93,1.37a1.68,1.68,0,0,0,.67,1.83c.44.43,1.27.82.85,1.59s-1.19.13-1.8.21c-.23,0-.46-.23-.79,0-.16.14-.15.4-.13.65,0,.49-.17.86-.63.87-1,0-1.37.74-1.8,1.43a2.44,2.44,0,0,1-.39.65c-1.24,1.05-1,2.3-.5,3.58a2.81,2.81,0,0,1,.05,1.92,11.84,11.84,0,0,0-.37,1.79,4.41,4.41,0,0,1-1.45,2.74c-.91.88-1.76,1.68-3.16,1.43-.66-.12-1,.36-1.37.8a27.75,27.75,0,0,1-4.32,4.28c-1,.82-2.08,1.49-3.45.73a.69.69,0,0,0-.71-.08c-1.62.8-3.25,1.63-3.39,3.72a9.44,9.44,0,0,1-2.41,5.74,7.69,7.69,0,0,0-2,6.3,29.78,29.78,0,0,1,0,3.66c0,.35-.1.72.16,1,.67.78.31,1.36-.35,1.91-.39.33-.71.73-1.09,1.07a1.66,1.66,0,0,0-.64,1.48,2.17,2.17,0,0,1-1,2.1c-.47.38-.9.82-1.4,1.17a2.54,2.54,0,0,0-1.07,2.61,4.79,4.79,0,0,0,1.82,3.69,1.41,1.41,0,0,1,.59.68,5.89,5.89,0,0,0,1.8,2.94,2.6,2.6,0,0,1,.47.94,29.77,29.77,0,0,0,7.4,11.2,18.41,18.41,0,0,0,6.32,4.13,2.19,2.19,0,0,1,1.53,1.87,1.23,1.23,0,0,0,1.42,1.23c1.76-.1,2.54.94,3.08,2.37a7,7,0,0,0,.61,1.22,2.46,2.46,0,0,1,0,3,3.77,3.77,0,0,0,.06,4.18c1.84,3.16,3.7,6.31,5.64,9.42a9.09,9.09,0,0,0,1.9,2.15,65.85,65.85,0,0,1,5.34,4.53c-.4.65-1.07.51-1.65.51-7.54,0-15.08,0-22.62,0a2.44,2.44,0,0,1-2.65-2c-3.82-12-7.75-23.93-11.58-35.91-2.5-7.81-5-15.61-7.56-23.41-3.52-10.86-7-21.72-10.57-32.72-.79,2.09-1.35,4.14-2,6.15-3.39,10.36-6.67,20.75-10,31.12-3.22,9.93-6.39,19.88-9.65,29.8C118.79,159.69,118.79,160.57,117.87,160.85Z"/><path class="cls-1" d="M117.87,160.85c1-2.24,1.61-4.61,2.36-6.92q4.55-13.94,9-27.89,5.42-16.79,10.82-33.57c.16-.51.35-1,.53-1.51.56.2.48.63.58.94q6,18.45,11.9,36.91l12,37.18q2.91,9,5.82,18c.47,1.45.48,1.46,2,1.46H196c.46,0,.92,0,1.38-.06s.84.56,1.22.88a16.57,16.57,0,0,0,3.59,2.54,1.45,1.45,0,0,1,1,1.51,3.28,3.28,0,0,0,.8,2.39,2.55,2.55,0,0,1,.24.39,10.54,10.54,0,0,0,4.16,4.29,63.71,63.71,0,0,1,7.28,5.25c.05.29,0,.47-.36.33l-2-.64a1.76,1.76,0,0,0,1,1.88,39.74,39.74,0,0,0,4.5,2.52,21.25,21.25,0,0,1,5.67,4,1.13,1.13,0,0,0,.7.41,1,1,0,0,0-.14-1.51c-.29-.29-.55-.59-.83-.89-.07-.3,0-.42.35-.34,1.7,1.18,3.35,2.46,5.12,3.55a6.62,6.62,0,0,1,1.83,2l-32.42,23.7c-2.51,1.83-5,3.65-7.53,5.49-1.24.91-1.24.92-.77,2.37q4.77,14.82,9.56,29.63,4.92,15.25,9.83,30.51,5.15,15.9,10.32,31.79c.11.33.18.67.29,1.07-.53.13-.81-.19-1.11-.41q-13.48-9.89-27-19.77-25.27-18.48-50.54-37c-1.63-1.19-1.45-1.06-2.87,0q-14,10.22-28,20.47L74,329.12l-.48.38A55.06,55.06,0,0,0,68,323.69a2.19,2.19,0,0,1-.64-1.17,16.74,16.74,0,0,1-.45-3.14,3.07,3.07,0,0,0,.11-1.13,27.06,27.06,0,0,1,1.7-6c3.57-11,7.15-22,10.65-33.08a10.12,10.12,0,0,1,1-2.36A24.22,24.22,0,0,1,85.4,274a10.51,10.51,0,0,1,3.57-.68,14.33,14.33,0,0,0,4.7-1.14,20.57,20.57,0,0,1,5.92-1.89,5.32,5.32,0,0,1,2.1.11c2.09.63,4.21,1.17,6.31,1.77a8.46,8.46,0,0,0,5.33-.17c1.57-.56,3.2-1,4.79-1.49a1.82,1.82,0,0,1,1.59.17A17.36,17.36,0,0,0,122,271.9c1.9.75,3.91.45,5.88.41a1.66,1.66,0,0,0,.82-.38,8.21,8.21,0,0,1,3.08-1.19c1.86-.43,3.64.21,5.45.15s2.71.92,3.2,2.51a3.67,3.67,0,0,0,.36.84c.34.56.26,1.3.81,1.78s1.27-.22,1.9,0c.46.19.77-.07,1-.39a16.38,16.38,0,0,1,7.85-4.74c1.71-.54,2.47-1.81,3.47-3,.25-.29.14-.68.15-1,.06-2.9.39-5.78.29-8.68a2.37,2.37,0,0,1,.9-2.14c.23-.19.42-.43.65-.64a2.4,2.4,0,0,0,.24-3.5c-.57-.71-1.09-1.47-1.69-2.16-.75-.87-.59-1.89-.59-2.9,0-.45.36-.57.65-.76l1.44-.86c.47-.29.93-.6,1.44-.92a9.83,9.83,0,0,0-2.41-1.07c-.32-.15-.67-.25-1-.39a.64.64,0,0,1-.42-.73c0-.3.24-.41.5-.49.69-.19,1.36-.43,2-.58a1.25,1.25,0,0,0,1.11-1.37,10.48,10.48,0,0,1,1.11-5c.12-.21.29-.45.12-.7-1-1.46-1.77-3.13-3.65-3.71-.25-.07-.5-.2-.74-.09-.89.38-1.4-.08-1.93-.72s-1.21-1.24-1.82-1.86a3.55,3.55,0,0,1-1-1.68c-.32-1.36-.09-1.75,1.3-2a2.09,2.09,0,0,0,1.78-1.6c-.14-.23-.35-.21-.54-.23-3.81-.36-7.12-2.31-10.7-3.4a1,1,0,0,1-.77-1.29,3,3,0,0,0-1.09-2.67,100.91,100.91,0,0,1-6.64-7.95,1.63,1.63,0,0,1-.4-1.35,27.73,27.73,0,0,0,.24-6.51c-.45-3.85.19-7.69.61-11.52.22-2,.38-4,.64-6a1.31,1.31,0,0,0-.43-1.07c-.94-1.2-1.91-2.37-2.86-3.57a5.93,5.93,0,0,0-1.41-1.14c-2.2-1.47-4.39-3-6.61-4.39a2,2,0,0,1-1.18-1.78,2.36,2.36,0,0,0-1.38-2.18,3.55,3.55,0,0,1-1.36-1.6C119.64,164.05,118.75,162.45,117.87,160.85Z"/><path d="M80.35,276.81A21.46,21.46,0,0,1,79,281.46q-5.94,18.51-11.94,37c-.08.14-.17.16-.27,0a4.67,4.67,0,0,0-.76-2.13,3.21,3.21,0,0,1-.21-3.06,3,3,0,0,0-.38-3c-.83-1.33-1.4-2.83-2.22-4.16-1.16-1.87-1.21-3.94-1.37-6-.07-1,1.47-3.58,2.35-4.09s1.5-.85,2.28-1.22a14.84,14.84,0,0,0,6.76-6.55,37.57,37.57,0,0,1,4.39-6.75A8.52,8.52,0,0,0,79,278.34,2.11,2.11,0,0,1,80.35,276.81Z"/><path class="cls-2" d="M215.43,64.59c0,.57-.26,1-.76,1-.83.06-1.08.63-1.37,1.23a2.6,2.6,0,0,1-1.48,1.43c-.19.07-.38.17-.56,0s-.09-.37,0-.54a1.17,1.17,0,0,1,.15-.27,3.17,3.17,0,0,0,.91-3.15c0-.28-.19-.63.18-.81s.6.11.74.34C213.78,64.68,214.67,64.46,215.43,64.59Z"/><path class="cls-3" d="M270.4,318.87c.16-.48.56-.39.92-.4a46.77,46.77,0,0,0,2.33,4.06c.48.66.08,1.52-.3,2.24a.63.63,0,0,1-.48-.73c0-1,.14-1.81-1.31-1.73-.58,0-.71-.6-.36-1.16.55-.88,0-1.62-.37-2.38A3.19,3.19,0,0,0,270.4,318.87Z"/><path class="cls-4" d="M200.47,78.55a10.91,10.91,0,0,1-2.72-1.15c-.86-.65,0-1,.17-1.51s.54-.5.94-.19.73.53,1.09.8A1.46,1.46,0,0,1,200.47,78.55Z"/><path class="cls-5" d="M214.34,70.36c.07,2.16-.7,2.9-2.27,2.62Z"/><path class="cls-6" d="M214.3,73.45c0,.49-.07,1-.12,1.47a1,1,0,0,1-.73.87c-.36.14-.63,0-.58-.4a3.14,3.14,0,0,1,1.15-2.1Z"/><path class="cls-7" d="M225.32,58.7c.26,0,.41,0,.57,0s.41,0,.46.26-.14.34-.35.38c-.74.16-1.47.33-2.21.48-.22,0-.41,0-.45-.26s0-.55.3-.59A5.92,5.92,0,0,1,225.32,58.7Z"/><path class="cls-8" d="M215.57,96.24c-.45,0-1,.1-1-.56s.53-.61,1-.61,1-.06,1.06.56S216,96.22,215.57,96.24Z"/><path class="cls-9" d="M215.28,203l.36-.33a5.85,5.85,0,0,1,1.88,1.47l-.07.06A4.85,4.85,0,0,1,215.28,203Z"/><path class="cls-10" d="M224.55,208.42l-.35.34a3.2,3.2,0,0,1-1.15-1.14A1.79,1.79,0,0,1,224.55,208.42Z"/><path class="cls-11" d="M209.61,76.72c-.05.25-.11.52-.43.5s-.35-.29-.32-.54.06-.53.4-.51S209.59,76.47,209.61,76.72Z"/><path class="cls-12" d="M221.13,71.21a3.7,3.7,0,0,1,.07.57c0,.21-.1.37-.34.36s-.42-.2-.33-.48a2.62,2.62,0,0,1,.27-.49C220.93,71,221,71.06,221.13,71.21Z"/><path class="cls-13" d="M217.78,204.19c.22.07.52.17.43.44s-.31.12-.41-.09a.25.25,0,0,1-.08-.23Q217.75,204.19,217.78,204.19Z"/><path class="cls-14" d="M66.82,318.48l.27,0a.9.9,0,0,1-.23.92A1.27,1.27,0,0,1,66.82,318.48Z"/><path class="cls-15" d="M221.13,71.21l-.33,0c0-.2,0-.47.2-.46S221.16,71,221.13,71.21Z"/><path class="cls-16" d="M217.78,204.19l0,.35a.45.45,0,0,1-.35-.35l.07-.06A.26.26,0,0,1,217.78,204.19Z"/><text class="cls-17" transform="translate(0 247.04)"><tspan class="cls-18">V</tspan><tspan x="20.03" y="0">ietnam</tspan></text></g></g></svg>