<?xml version="1.0" encoding="utf-8"?>
<!-- Generator: Adobe Illustrator 22.0.1, SVG Export Plug-In . SVG Version: 6.00 Build 0)  -->
<svg version="1.1" id="World3" xmlns="http://www.w3.org/2000/svg" xmlns:xlink="http://www.w3.org/1999/xlink" x="0px" y="0px"
	 viewBox="0 0 500 500" style="enable-background:new 0 0 500 500;" xml:space="preserve">
<style type="text/css">
	.st0{fill:#470000;}
	.st1{opacity:0.4;fill:#470000;}
	.st2{clip-path:url(#SVGID_2_);}
	.st3{fill:url(#SVGID_3_);}
	.st4{fill:url(#SVGID_4_);}
	.st5{fill:url(#SVGID_5_);}
	.st6{fill:url(#SVGID_6_);}
	.st7{fill:url(#SVGID_7_);}
	.st8{fill:url(#SVGID_8_);}
	.st9{fill:url(#SVGID_9_);}
	.st10{fill:url(#SVGID_10_);}
	.st11{fill:url(#SVGID_11_);}
	.st12{fill:url(#SVGID_12_);}
</style>
<g>
	<circle class="st0" cx="280.8" cy="240.9" r="177.8"/>
	<circle class="st1" cx="280.8" cy="240.9" r="194.2"/>
	<g>
		<defs>
			<circle id="SVGID_1_" cx="280.8" cy="240.9" r="162.4"/>
		</defs>
		<use xlink:href="#SVGID_1_"  style="overflow:visible;fill:#370001;"/>
		<clipPath id="SVGID_2_">
			<use xlink:href="#SVGID_1_"  style="overflow:visible;"/>
		</clipPath>
		<g class="st2">
			<g id="Shadow">
				
					<linearGradient id="SVGID_3_" gradientUnits="userSpaceOnUse" x1="64.4186" y1="405.5681" x2="64.4186" y2="235.9492" gradientTransform="matrix(-0.8623 0 0 -0.8623 331.4949 646.2289)">
					<stop  offset="0" style="stop-color:#F1DA24"/>
					<stop  offset="1" style="stop-color:#F1A024"/>
				</linearGradient>
				<ellipse class="st3" cx="275.9" cy="369.6" rx="116.8" ry="73.1"/>
				
					<linearGradient id="SVGID_4_" gradientUnits="userSpaceOnUse" x1="65.8951" y1="354.8254" x2="65.8951" y2="310.5289" gradientTransform="matrix(-0.8623 0 0 -0.8623 331.4949 646.2289)">
					<stop  offset="0" style="stop-color:#FFFFFF;stop-opacity:0"/>
					<stop  offset="1" style="stop-color:#F1E900"/>
				</linearGradient>
				<circle class="st4" cx="274.7" cy="359.4" r="19.1"/>
				
					<linearGradient id="SVGID_5_" gradientUnits="userSpaceOnUse" x1="64.4186" y1="404.4254" x2="64.4186" y2="290.5266" gradientTransform="matrix(-0.8623 0 0 -0.8623 331.4949 646.2289)">
					<stop  offset="0" style="stop-color:#F1DA24"/>
					<stop  offset="1" style="stop-color:#F15A24"/>
				</linearGradient>
				<path class="st5" d="M441,345.9c-20.1,12.7-14.2,17.4-33,17.4c-18.8,0-13.5-5.3-29.4,0s-9.4,7-26.4,5.9c-17-1.2-23.5-3.5-31.7-7
					c-8.2-3.5-27.6-4.4-27.6-4.4s-25.3-2.6-39.4,0s-5.9,6.8-25.3,6.2s-32.9-1.8-32.9-1.8s-1.5-6.1-38.2,0s-33.5,17.7-47.6,7.4
					c-14.1-10.3-11.2-23.6-11.2-23.6s4-8.5,10.6-10.8c6.5-2.3,344.8,0,344.8,0L441,345.9z"/>
				
					<linearGradient id="SVGID_6_" gradientUnits="userSpaceOnUse" x1="422.011" y1="423.6205" x2="422.011" y2="309.7217" gradientTransform="matrix(0.8623 0 0 -0.8623 -84.1487 646.2289)">
					<stop  offset="0" style="stop-color:#F17251"/>
					<stop  offset="1" style="stop-color:#961600"/>
				</linearGradient>
				<path class="st6" d="M114.7,329.3c20.1,12.7,14.2,17.4,33,17.4s13.5-5.3,29.4,0c15.9,5.3,9.4,7,26.4,5.9c17-1.2,23.5-3.5,31.7-7
					c8.2-3.5,27.6-4.4,27.6-4.4s25.3-2.6,39.4,0c14.1,2.6,5.9,6.8,25.3,6.2s32.9-1.8,32.9-1.8s1.5-6.1,38.2,0
					c36.7,6.1,33.5,17.7,47.6,7.4s11.2-23.6,11.2-23.6s-4-8.5-10.6-10.8c-6.5-2.3-344.8,0-344.8,0L114.7,329.3z"/>
				
					<linearGradient id="SVGID_7_" gradientUnits="userSpaceOnUse" x1="39.8094" y1="446.5666" x2="39.8094" y2="332.6678" gradientTransform="matrix(-0.8623 0 0 -0.8623 331.4949 646.2289)">
					<stop  offset="0" style="stop-color:#F19424"/>
					<stop  offset="1" style="stop-color:#800000"/>
				</linearGradient>
				<path class="st7" d="M462.2,309.6c-20.1,12.7-14.2,17.4-33,17.4c-18.8,0-13.5-5.3-29.4,0s-9.4,7-26.4,5.9s-23.5-3.5-31.7-7
					c-8.2-3.5-27.6-4.4-27.6-4.4s-25.3-2.6-39.4,0c-14.1,2.6-5.9,6.8-25.3,6.2s-32.9-1.8-32.9-1.8s-1.5-6.1-38.2,0
					c-36.7,6.1-33.5,17.7-47.6,7.4s-11.2-23.6-11.2-23.6s4-8.5,10.6-10.8c6.5-2.3,344.8,0,344.8,0L462.2,309.6z"/>
				<g id="Grass_1_">
					<path d="M433.2,299.7l3,6.6c0,0-7.3-4.2-7.3-5.5c0-1.3,0.6,2.5-2.7,3.8c0-2.5-1.8-4.9-1.8-4.9s-6.1,2.8-3.7,4.7
						c2.4,1.9-4.6-4.7-4.6-4.7l-3,2.1l-2.1-1.1c0,0-0.9,4.2,0,4.7c0.9,0.4-4.3-4.7-4.3-4.7s-1.2,5.3-4.3,5.5c1-3-1.4-6.1-1.4-6.1
						s-3.4,3.5-4.9,3.5c0.7-1.2-1.8-3.7-1.8-3.7L433.2,299.7z"/>
					<path d="M355.6,299.7l-3,6.6c0,0,7.3-4.2,7.3-5.5c0-1.3-0.6,2.5,2.7,3.8c0-2.5,1.8-4.9,1.8-4.9s6.1,2.8,3.7,4.7
						c-2.4,1.9,4.6-4.7,4.6-4.7l3,2.1l2.1-1.1c0,0,0.9,4.2,0,4.7c-0.9,0.4,4.3-4.7,4.3-4.7s1.2,5.3,4.3,5.5c-1-3,1.4-6.1,1.4-6.1
						s3.4,3.5,4.9,3.5c-0.7-1.2,1.8-3.7,1.8-3.7L355.6,299.7z"/>
					<path d="M348.2,299.7l3,6.6c0,0-7.3-4.2-7.3-5.5c0-1.3,0.6,2.5-2.7,3.8c0-2.5-1.8-4.9-1.8-4.9s-6.1,2.8-3.7,4.7
						c2.4,1.9-4.6-4.7-4.6-4.7l-3,2.1l-2.1-1.1c0,0-0.9,4.2,0,4.7c0.9,0.4-4.3-4.7-4.3-4.7s-1.2,5.3-4.3,5.5c1-3-1.4-6.1-1.4-6.1
						s-3.4,3.5-4.9,3.5c0.7-1.2-1.8-3.7-1.8-3.7L348.2,299.7z"/>
					<path d="M263.3,299.7l-3,6.6c0,0,7.3-4.2,7.3-5.5c0-1.3-0.6,2.5,2.7,3.8c0-2.5,1.8-4.9,1.8-4.9s6.1,2.8,3.7,4.7
						c-2.4,1.9,4.6-4.7,4.6-4.7l3,2.1l2.1-1.1c0,0,0.9,4.2,0,4.7c-0.9,0.4,4.3-4.7,4.3-4.7s1.2,5.3,4.3,5.5c-1-3,1.4-6.1,1.4-6.1
						s3.4,3.5,4.9,3.5c-0.7-1.2,1.8-3.7,1.8-3.7L263.3,299.7z"/>
					<path d="M247.9,299.7l3,6.6c0,0-7.3-4.2-7.3-5.5c0-1.3,0.6,2.5-2.7,3.8c0-2.5-1.8-4.9-1.8-4.9s-6.1,2.8-3.7,4.7
						c2.4,1.9-4.6-4.7-4.6-4.7l-3,2.1l-2.1-1.1c0,0-0.9,4.2,0,4.7c0.9,0.4-4.3-4.7-4.3-4.7s-1.2,5.3-4.3,5.5c1-3-1.4-6.1-1.4-6.1
						s-3.4,3.5-4.9,3.5c0.7-1.2-1.8-3.7-1.8-3.7L247.9,299.7z"/>
					<path d="M175.1,299.7l-0.4,6.6c0,0-5.1-4.2-4.4-5.5c0.7-1.3-0.7,2.5-4.7,3.8c1.3-2.5,0.7-4.9,0.7-4.9s-7.5,2.8-6.1,4.7
						c1.4,1.9-2.1-4.7-2.1-4.7l-4.2,2.1l-1.6-1.1c0,0-3.1,4.2-2.4,4.7c0.7,0.4-1.8-4.7-1.8-4.7s-4,5.3-7.2,5.5
						c2.6-3,1.8-6.1,1.8-6.1s-5.2,3.5-6.7,3.5c1.3-1.2,0.2-3.7,0.2-3.7L175.1,299.7z"/>
				</g>
			</g>
			<linearGradient id="SVGID_8_" gradientUnits="userSpaceOnUse" x1="280.8044" y1="281.8882" x2="280.8044" y2="78.4594">
				<stop  offset="0" style="stop-color:#F1DA24"/>
				<stop  offset="1" style="stop-color:#F1A024"/>
			</linearGradient>
			<ellipse class="st8" cx="280.8" cy="180.2" rx="162.4" ry="101.7"/>
			<linearGradient id="SVGID_9_" gradientUnits="userSpaceOnUse" x1="282.7179" y1="224.3205" x2="282.7179" y2="166.9173">
				<stop  offset="0" style="stop-color:#FFFFFF;stop-opacity:0"/>
				<stop  offset="1" style="stop-color:#F1E900"/>
			</linearGradient>
			<circle class="st9" cx="282.7" cy="195.6" r="28.7"/>
			<linearGradient id="SVGID_10_" gradientUnits="userSpaceOnUse" x1="280.8044" y1="288.5966" x2="280.8044" y2="140.9966">
				<stop  offset="0" style="stop-color:#F1DA24"/>
				<stop  offset="1" style="stop-color:#F15A24"/>
			</linearGradient>
			<path class="st10" d="M32.8,215.8c30.2-19.1,21.4-26.1,49.6-26.1s20.3,7.9,44.1,0c23.8-7.9,14.1-10.6,39.7-8.8
				s35.3,5.3,47.7,10.6s41.5,6.6,41.5,6.6s38,4,59.1,0s8.8-10.2,38-9.3c29.1,0.9,49.4,2.6,49.4,2.6s2.2,9.2,57.4,0
				s50.3-26.6,71.5-11.1c21.2,15.5,16.8,35.5,16.8,35.5s-6.1,12.8-15.9,16.3c-9.8,3.5-518.2,0-518.2,0L32.8,215.8z"/>
			
				<linearGradient id="SVGID_11_" gradientUnits="userSpaceOnUse" x1="206.9359" y1="313.4713" x2="206.9359" y2="165.8713" gradientTransform="matrix(-1 0 0 1 482 0)">
				<stop  offset="0" style="stop-color:#F17251"/>
				<stop  offset="1" style="stop-color:#961600"/>
			</linearGradient>
			<path class="st11" d="M523.1,240.7c-30.2-19.1-21.4-26.1-49.6-26.1s-20.3,7.9-44.1,0c-23.8-7.9-14.1-10.6-39.7-8.8
				s-35.3,5.3-47.7,10.6c-12.4,5.3-41.5,6.6-41.5,6.6s-38,4-59.1,0c-21.2-4-8.8-10.2-38-9.3c-29.1,0.9-49.4,2.6-49.4,2.6
				s-2.2,9.2-57.4,0S46.2,189.7,25,205.2S8.2,240.7,8.2,240.7s6.1,12.8,15.9,16.3c9.8,3.5,518.2,0,518.2,0L523.1,240.7z"/>
			<linearGradient id="SVGID_12_" gradientUnits="userSpaceOnUse" x1="248.9137" y1="343.2068" x2="248.9137" y2="195.6068">
				<stop  offset="0" style="stop-color:#F19424"/>
				<stop  offset="1" style="stop-color:#800000"/>
			</linearGradient>
			<path class="st12" d="M0.9,270.5c30.2-19.1,21.4-26.1,49.6-26.1s20.3,7.9,44.1,0c23.8-7.9,14.1-10.6,39.7-8.8s35.3,5.3,47.7,10.6
				s41.5,6.6,41.5,6.6s38,4,59.1,0s8.8-10.2,38-9.3c29.1,0.9,49.4,2.6,49.4,2.6s2.2,9.2,57.4,0c55.1-9.2,50.3-26.6,71.5-11.1
				s16.8,35.5,16.8,35.5s-6.1,12.8-15.9,16.3c-9.8,3.5-518.2,0-518.2,0L0.9,270.5z"/>
		</g>
		<g id="Grass" class="st2">
			<path d="M130.6,278.2l-3.2-9.9c0,0,7.7,6.4,7.7,8.3c0,1.9-0.6-3.8,2.9-5.7c0,3.8,1.9,7.3,1.9,7.3s6.4-4.1,3.8-7
				c-2.6-2.9,4.8,7,4.8,7l3.2-3.2l2.2,1.6c0,0,1-6.4,0-7s4.5,7,4.5,7s1.3-8,4.5-8.3c-1,4.5,1.4,9.2,1.4,9.2s3.5-5.3,5.1-5.3
				c-0.7,1.8,1.8,5.5,1.8,5.5L130.6,278.2z"/>
			<path d="M211.8,278.2l3.2-9.9c0,0-7.7,6.4-7.7,8.3c0,1.9,0.6-3.8-2.9-5.7c0,3.8-1.9,7.3-1.9,7.3s-6.4-4.1-3.8-7
				c2.6-2.9-4.8,7-4.8,7l-3.2-3.2l-2.2,1.6c0,0-1-6.4,0-7c1-0.6-4.5,7-4.5,7s-1.3-8-4.5-8.3c1,4.5-1.4,9.2-1.4,9.2s-3.5-5.3-5.1-5.3
				c0.7,1.8-1.8,5.5-1.8,5.5L211.8,278.2z"/>
			<path d="M219.5,278.2l-3.2-9.9c0,0,7.7,6.4,7.7,8.3c0,1.9-0.6-3.8,2.9-5.7c0,3.8,1.9,7.3,1.9,7.3s6.4-4.1,3.8-7
				c-2.6-2.9,4.8,7,4.8,7l3.2-3.2l2.2,1.6c0,0,1-6.4,0-7s4.5,7,4.5,7s1.3-8,4.5-8.3c-1,4.5,1.4,9.2,1.4,9.2s3.5-5.3,5.1-5.3
				c-0.7,1.8,1.8,5.5,1.8,5.5L219.5,278.2z"/>
			<path d="M308.2,278.2l3.2-9.9c0,0-7.7,6.4-7.7,8.3c0,1.9,0.6-3.8-2.9-5.7c0,3.8-1.9,7.3-1.9,7.3s-6.4-4.1-3.8-7
				c2.6-2.9-4.8,7-4.8,7l-3.2-3.2l-2.2,1.6c0,0-1-6.4,0-7s-4.5,7-4.5,7s-1.3-8-4.5-8.3c1,4.5-1.4,9.2-1.4,9.2s-3.5-5.3-5.1-5.3
				c0.7,1.8-1.8,5.5-1.8,5.5L308.2,278.2z"/>
			<path d="M324.4,278.2l-3.2-9.9c0,0,7.7,6.4,7.7,8.3c0,1.9-0.6-3.8,2.9-5.7c0,3.8,1.9,7.3,1.9,7.3s6.4-4.1,3.8-7
				c-2.6-2.9,4.8,7,4.8,7l3.2-3.2l2.2,1.6c0,0,1-6.4,0-7s4.5,7,4.5,7s1.3-8,4.5-8.3c-1,4.5,1.4,9.2,1.4,9.2s3.5-5.3,5.1-5.3
				c-0.7,1.8,1.8,5.5,1.8,5.5L324.4,278.2z"/>
			<path d="M400.5,278.2l0.4-9.9c0,0,5.3,6.4,4.6,8.3c-0.7,1.9,0.8-3.8,5-5.7c-1.4,3.8-0.8,7.3-0.8,7.3s7.9-4.1,6.4-7
				c-1.5-2.9,2.2,7,2.2,7l4.3-3.2l1.7,1.6c0,0,3.3-6.4,2.6-7s1.9,7,1.9,7s4.2-8,7.5-8.3c-2.7,4.5-1.9,9.2-1.9,9.2s5.4-5.3,7-5.3
				c-1.4,1.8-0.2,5.5-0.2,5.5L400.5,278.2z"/>
			<rect x="101.7" y="276.6" width="358.3" height="24.9"/>
		</g>
	</g>
</g>
</svg>
