<?xml version="1.0" encoding="utf-8"?>
<!-- Generator: Adobe Illustrator 22.0.1, SVG Export Plug-In . SVG Version: 6.00 Build 0)  -->
<svg version="1.1" id="Layer_1" xmlns="http://www.w3.org/2000/svg" xmlns:xlink="http://www.w3.org/1999/xlink" x="0px" y="0px"
	 viewBox="0 0 400 400" style="enable-background:new 0 0 400 400;" xml:space="preserve">
<style type="text/css">
	.st0{opacity:0.6;}
	.st1{clip-path:url(#SVGID_2_);fill:#684628;}
	.st2{clip-path:url(#SVGID_2_);}
	.st3{fill:#E6CB94;stroke:#000000;stroke-width:0.9596;stroke-miterlimit:10;}
	.st4{fill:#E6CB94;stroke:#000000;stroke-width:0.4798;stroke-miterlimit:10;}
	.st5{fill:#E4C690;stroke:#000000;stroke-width:0.9596;stroke-miterlimit:10;}
	.st6{fill:#B99F6C;stroke:#000000;stroke-width:0.4798;stroke-miterlimit:10;}
	.st7{clip-path:url(#SVGID_2_);fill:#3A1F07;}
	.st8{clip-path:url(#SVGID_2_);fill:#231201;}
</style>
<g>
	<circle class="st0" cx="199.5" cy="200.3" r="182.1"/>
	<circle class="st0" cx="199.5" cy="200.3" r="194.3"/>
	<g>
		<defs>
			<circle id="SVGID_1_" cx="199.5" cy="200.3" r="167"/>
		</defs>
		<use xlink:href="#SVGID_1_"  style="overflow:visible;"/>
		<clipPath id="SVGID_2_">
			<use xlink:href="#SVGID_1_"  style="overflow:visible;"/>
		</clipPath>
		<path class="st1" d="M14.8,287.7c15.2-9.4,21.6-17.6,34.1-18.8s10.8,0.6,28.4,0s25.6-7.4,35.2-2.8c9.7,4.5,37.5-0.8,44.9-1.6
			c7.4-0.7,29.5-0.2,34.7,2.7c5.1,2.8,47.7,11.9,63.1,2.8c15.3-9.1,31.8-20.5,43.2-17c11.4,3.4,12.5,6.3,32.4,6.3
			c19.9,0,25.5-5,35.5-0.5c10,4.5,1.9,30.3-13.9,35.8S293.8,315,272.2,311c-21.6-4-93.8-13.6-93.8-13.6s-79-9.7-84.7-5.1
			s-22.5,19.4-28.4,19.4c-5.9,0-23.3-4.6-23.3-4.6L14.8,287.7z"/>
		<g class="st2">
			<path class="st3" d="M169.9,229.8l-4.8-2.4c0,0-14,4-8.8,7.1c5.2,3.1,25.7,4.5,25.7,4.5l2.1-3.3
				C184.2,235.7,158.9,234.8,169.9,229.8z"/>
			<path class="st4" d="M182.8,255.7l-0.7-16.7c0,0-26.2-1.9-26.9-5.8c-0.7-3.9-1.7,17.3,3.3,19.2
				C163.5,254.3,182.8,255.7,182.8,255.7z"/>
			<path class="st5" d="M156.8,275.5l12.9,3.3v-24.4l-11.2-2.1C154.9,253.6,156.3,272.9,156.8,275.5z"/>
			<polygon class="st5" points="197.8,258.3 169.7,254.4 169.7,278.8 197.8,281.4 			"/>
			<polygon class="st5" points="229.2,258.8 197.8,258.3 197.8,281.4 231.1,281.4 			"/>
			<path class="st5" d="M254.7,254.4c0,0,5.7,15.1,0,21.3s-23.6,5.7-23.6,5.7l-1.9-22.6L254.7,254.4z"/>
			<polygon class="st5" points="213.5,240.7 182,239.1 182.8,258.3 214.4,258.3 			"/>
			<polygon class="st5" points="241.1,239.1 213.5,240.7 214.4,260.3 243.2,257.1 			"/>
			<polygon class="st5" points="211.1,236.4 184.2,235.7 182,239.1 213.5,240.5 			"/>
			<polygon class="st5" points="236.6,234.1 211.2,236 213.2,241.3 241,239 			"/>
			<path class="st5" d="M245.1,298.8c0,0,12.7-3.1,12.1-6.9c-0.6-3.8-2.5-16.2-2.5-16.2l-12.5,5L245.1,298.8z"/>
			<polygon class="st5" points="216.8,300 245.1,298.8 242.2,280.7 216.8,281.5 			"/>
			<path class="st5" d="M215.6,281.2l-30.5-1.3l-1,20c0,0,32.6,1.8,32.6,0C216.8,298.2,215.6,281.2,215.6,281.2z"/>
			<path class="st5" d="M156.1,275.7c0,0-6,21.3,14.7,23c20.7,1.6,13.3,1.3,13.3,1.3l1-20.2L156.1,275.7z"/>
			<path class="st5" d="M241.1,239.1c3.8-3.1,14-7.1,14.3-5.8c0.2,1.3,0.7,17.1,0,19.2c-0.7,2.1-12.2,4.7-12.2,4.7L241.1,239.1z"/>
			<polygon class="st5" points="195.4,224.3 166.3,227.4 169.9,229.8 197.8,227.4 			"/>
			<polygon class="st5" points="233.4,227 195.4,224.3 197.8,227.4 230.2,229.8 			"/>
			<path class="st5" d="M231,229.8c22.3,1.7,6.2,4.4,6.2,4.4l3.9,4.8c0,0,11.2-1.9,14.3-5.8c3.1-3.9-19.3-7.3-21-6.2"/>
			<path class="st6" d="M197.8,227.4v9.2c0,0-26.6,0-30.3-4.6C163.8,227.4,197.8,227.4,197.8,227.4z"/>
			<polygon class="st6" points="197.8,227 229.2,230.1 228.3,234.6 198.2,236.6 			"/>
			<path class="st6" d="M228.3,229.8c0,0,13.3,0.5,13.5,3c0.3,2.5-13.5,1.6-13.5,1.6V229.8z"/>
		</g>
		<path class="st7" d="M21,309c0,0,9.8-11.6,36.8-10.5c27.1,1.2,38.1-11.6,43.3-10.4c5.2,1.1,28.8-11.7,40.8-4
			c11.9,7.7,51,17.7,62.6,14c11.6-3.7,28.8-2.6,35.7-4.3c6.9-1.7,21.2-7.9,26.4-3.4s45.7-3.5,45.7-3.5s4.6-9.7,25.9-8
			c21.3,1.7,27.6,3.4,26.1,5c-1.5,1.7,2.1,0.3,2.1,9.1s1.2,3.8-21.3,15.8c-22.5,12-47.8,19.5-47.8,19.5s-50.7,19.6-81.8,5.2
			c-31.1-14.4-42-14.4-42-14.4s-22.5,2.9-36.8,5.8c-14.4,2.9-25.7,3.5-44.8,6.3c-19.1,2.9-12.2,2.9-28.3,2.9s-28.8-1.7-28.8-1.7
			L21,309z"/>
		<path class="st8" d="M81,355.5c-9.5-1.1-12.4-12.9-4.4-17.9c0.9-0.5,1.8-1.1,2.7-1.7c20.7-12.8,1.7-14.4,24.7-17.2
			c23-2.8,20.7-5.9,32.7-5.4s54.2,4.8,62.8,7s10.1,5.6,46.8-1s28.7-7.7,47.6-6.9c18.9,0.8,26.8,3.9,33.9,4.7c0.2,0,0.4,0.1,0.7,0.1
			c7.8,1.3,10.9,10.5,5.6,16.2l-12.2,13c-1,1.1-2.2,1.9-3.6,2.5L254,374.7c-1.3,0.5-2.6,0.8-4,0.8h-90.6c-1.3,0-2.6-0.2-3.9-0.7
			L117.9,360c-0.9-0.3-1.8-0.6-2.7-0.7L81,355.5z"/>
	</g>
</g>
</svg>
