<svg xmlns="http://www.w3.org/2000/svg" xmlns:xlink="http://www.w3.org/1999/xlink" viewBox="0 0 475.55 473.97"><defs><style>.cls-1{fill:none;}.cls-2,.cls-3,.cls-5{fill:#000060;}.cls-2,.cls-5{stroke:#000;stroke-miterlimit:10;}.cls-2{stroke-width:0.67px;}.cls-2,.cls-8{opacity:0.6;}.cls-3,.cls-6{opacity:0.4;}.cls-4{clip-path:url(#clip-path);}.cls-5{stroke-width:0.57px;}.cls-6{fill:url(#radial-gradient);}.cls-7{fill:#000084;}.cls-8{fill:url(#radial-gradient-2);}.cls-9{fill:#000030;}.cls-10{fill:#fff;}</style><clipPath id="clip-path" transform="translate(-16.12)"><circle id="Clipping_Mask" data-name="Clipping Mask" class="cls-1" cx="288.39" cy="229.33" r="159.23"/></clipPath><radialGradient id="radial-gradient" cx="279.27" cy="267.25" r="203.34" gradientTransform="matrix(0, 1, -0.85, 0, 514.5, 7.78)" gradientUnits="userSpaceOnUse"><stop offset="0" stop-color="#ffba89"/><stop offset="1" stop-color="#ffbd88" stop-opacity="0"/></radialGradient><radialGradient id="radial-gradient-2" cx="288.39" cy="71.02" r="185.96" gradientTransform="translate(-16.12 333.09) scale(1 0.33)" gradientUnits="userSpaceOnUse"><stop offset="0" stop-color="#ffee95"/><stop offset="0.03" stop-color="#ffee94" stop-opacity="0.96"/><stop offset="0.39" stop-color="#feee8b" stop-opacity="0.57"/><stop offset="0.69" stop-color="#fdee84" stop-opacity="0.28"/><stop offset="0.9" stop-color="#fcee80" stop-opacity="0.1"/><stop offset="1" stop-color="#fcee7e" stop-opacity="0.03"/></radialGradient></defs><title>Asset 42</title><g id="Layer_2" data-name="Layer 2"><g id="world1"><circle class="cls-2" cx="272.27" cy="229.33" r="173.5"/><circle class="cls-3" cx="272.27" cy="229.33" r="188.24"/><g class="cls-4"><rect class="cls-5" x="79.1" y="36.16" width="386.33" height="386.33"/><ellipse id="GlowBackground" class="cls-6" cx="288.39" cy="287.05" rx="172.09" ry="203.34" transform="translate(-27.54 562.15) rotate(-87.41)"/><path id="GroundBack" class="cls-7" d="M148.46,345c-9.93-26.88,10.84-55.58,39.44-53.79a27.93,27.93,0,0,1,12.31,3.4c19.07,11.08,37.53,20.92,48.6,16s38.14-1.23,56,4.3,50.45,9.23,66.44.62,33.22-17.84,45.53-11.69c9.16,4.58,21.69,13.27,27.48,17.39a40.09,40.09,0,0,1,6.32,5.61c13.16,14.38,59.57,71.36-16.58,85.29-67.42,12.33-188,.49-239.48-5.56a40,40,0,0,1-32.85-25.85Z" transform="translate(-16.12)"/><ellipse id="GlowSmall" class="cls-8" cx="272.27" cy="356.43" rx="185.96" ry="61.13"/><path id="GroundFront" class="cls-9" d="M130.85,338.19a50.64,50.64,0,0,1,28-32.44c5.11-2.25,10.11-3.41,13.83-2,11.89,4.51,18.46,18.46,39.78,12.31s38.55-8.62,59.88-6.57,41.83,9,56.6,13.95,35.68,24.2,62.74,7,39.37-19.68,57-19.68,27.48,66,27.89,67.66c.27,1.08-15.72,26.55-26.74,43.92a51.2,51.2,0,0,1-28.36,21.56c-32.83,10-100.28,29.78-118.38,30.08-24.2.41-109.5-7.79-115.25-12.3-3.52-2.77-30.16-27.73-50.25-46.63a51.18,51.18,0,0,1-14.1-51.45Z" transform="translate(-16.12)"/><g id="Stars"><rect class="cls-1" x="385.69" y="84.82" width="4.48" height="4.48"/><circle class="cls-10" cx="387.93" cy="87.07" r="2.24"/><rect class="cls-1" x="335.67" y="93.56" width="2.71" height="2.71"/><circle class="cls-10" cx="337.02" cy="94.91" r="1.36"/><rect class="cls-1" x="282.11" y="101.45" width="4.18" height="4.18"/><circle class="cls-10" cx="284.2" cy="103.54" r="2.09"/><rect class="cls-1" x="232.1" y="111.84" width="3.07" height="3.07"/><circle class="cls-10" cx="233.64" cy="113.37" r="1.54"/><rect class="cls-1" x="180.57" y="120.7" width="5.01" height="5.01"/><circle class="cls-10" cx="183.07" cy="123.21" r="2.51"/><rect class="cls-1" x="200.54" y="222.93" width="4.19" height="4.19"/><circle class="cls-10" cx="202.64" cy="225.02" r="2.1"/><rect class="cls-1" x="251.18" y="214.22" width="4.52" height="4.52"/><circle class="cls-10" cx="253.44" cy="216.48" r="2.26"/><rect class="cls-1" x="305.61" y="205.22" width="0.65" height="0.65"/><circle class="cls-10" cx="305.94" cy="205.54" r="0.33"/><rect class="cls-1" x="357.94" y="189.85" width="4.33" height="4.33"/><circle class="cls-10" cx="360.11" cy="192.02" r="2.17"/><rect class="cls-1" x="407.93" y="175.66" width="3.01" height="3.01"/><circle class="cls-10" cx="409.44" cy="177.17" r="1.51"/><rect class="cls-1" x="340.91" y="82.15" width="2.7" height="2.7"/><circle class="cls-10" cx="342.26" cy="83.5" r="1.35"/><rect class="cls-1" x="290.05" y="90.22" width="2.66" height="2.66"/><circle class="cls-10" cx="291.38" cy="91.55" r="1.33"/><rect class="cls-1" x="238.17" y="97.28" width="4.65" height="4.65"/><circle class="cls-10" cx="240.5" cy="99.6" r="2.32"/><rect class="cls-1" x="187.38" y="106.97" width="2.11" height="2.11"/><circle class="cls-10" cx="188.44" cy="108.02" r="1.06"/><rect class="cls-1" x="135.86" y="115.37" width="3.81" height="3.81"/><circle class="cls-10" cx="137.77" cy="117.28" r="1.9"/><rect class="cls-1" x="86.14" y="125.58" width="1.9" height="1.9"/><circle class="cls-10" cx="87.09" cy="126.53" r="0.95"/><rect class="cls-1" x="35.52" y="134.9" width="1.78" height="1.78"/><circle class="cls-10" cx="36.42" cy="135.79" r="0.89"/><rect class="cls-1" x="43.8" y="236.55" width="1.4" height="1.4"/><circle class="cls-10" cx="44.5" cy="237.24" r="0.7"/><rect class="cls-1" x="93.29" y="222.78" width="1.81" height="1.81"/><circle class="cls-10" cx="94.2" cy="223.68" r="0.91"/><rect class="cls-1" x="142.04" y="208.27" width="3.71" height="3.71"/><circle class="cls-10" cx="143.89" cy="210.12" r="1.86"/><rect class="cls-1" x="193.82" y="195.03" width="2.01" height="2.01"/><circle class="cls-10" cx="194.82" cy="196.03" r="1"/><rect class="cls-1" x="243.33" y="180.37" width="1.64" height="1.64"/><circle class="cls-10" cx="244.15" cy="181.19" r="0.82"/><rect class="cls-1" x="292.62" y="165.49" width="1.71" height="1.71"/><circle class="cls-10" cx="293.48" cy="166.35" r="0.86"/><rect class="cls-1" x="340.68" y="149.37" width="4.27" height="4.27"/><circle class="cls-10" cx="342.81" cy="151.5" r="2.13"/><rect class="cls-1" x="299.69" y="48.84" width="1.1" height="1.1"/><circle class="cls-10" cx="300.23" cy="49.39" r="0.55"/><rect class="cls-1" x="249.14" y="58.05" width="0.75" height="0.75"/><circle class="cls-10" cx="249.52" cy="58.42" r="0.37"/><rect class="cls-1" x="197.96" y="66.61" width="1.68" height="1.68"/><circle class="cls-10" cx="198.8" cy="67.45" r="0.84"/><rect class="cls-1" x="145.42" y="77.67" width="1.47" height="1.47"/><circle class="cls-10" cx="146.16" cy="78.41" r="0.74"/><rect class="cls-1" x="94.33" y="88.1" width="3.13" height="3.13"/><circle class="cls-10" cx="95.89" cy="89.67" r="1.56"/><rect class="cls-1" x="43.71" y="99.01" width="3.82" height="3.82"/><circle class="cls-10" cx="45.62" cy="100.92" r="1.91"/><rect class="cls-1" x="84.72" y="196.61" width="3.33" height="3.33"/><circle class="cls-10" cx="86.39" cy="198.28" r="1.66"/><rect class="cls-1" x="134.75" y="186.11" width="4.35" height="4.35"/><circle class="cls-10" cx="136.92" cy="188.29" r="2.18"/><rect class="cls-1" x="185.4" y="176.25" width="4.11" height="4.11"/><circle class="cls-10" cx="187.46" cy="178.3" r="2.06"/><rect class="cls-1" x="238.12" y="165.54" width="4.4" height="4.4"/><circle class="cls-10" cx="240.33" cy="167.74" r="2.2"/><rect class="cls-1" x="289.96" y="155.03" width="0.76" height="0.76"/><circle class="cls-10" cx="290.34" cy="155.41" r="0.38"/><rect class="cls-1" x="337.94" y="140.66" width="4.83" height="4.83"/><circle class="cls-10" cx="340.36" cy="143.08" r="2.42"/><rect class="cls-1" x="389.3" y="129.68" width="2.13" height="2.13"/><circle class="cls-10" cx="390.37" cy="130.74" r="1.07"/><rect class="cls-1" x="441.41" y="114.02" width="4.11" height="4.11"/><circle class="cls-10" cx="443.47" cy="116.08" r="2.06"/><rect class="cls-1" x="404.68" y="15.01" width="1.32" height="1.32"/><circle class="cls-10" cx="405.33" cy="15.67" r="0.66"/><rect class="cls-1" x="352.95" y="22.47" width="3.11" height="3.11"/><circle class="cls-10" cx="354.51" cy="24.03" r="1.56"/><rect class="cls-1" x="303.01" y="31.73" width="1.33" height="1.33"/><circle class="cls-10" cx="303.68" cy="32.4" r="0.67"/><rect class="cls-1" x="249.28" y="41.2" width="1.28" height="1.28"/><circle class="cls-10" cx="249.92" cy="41.84" r="0.64"/><rect class="cls-1" x="197.5" y="51.04" width="4.37" height="4.37"/><circle class="cls-10" cx="199.68" cy="53.23" r="2.18"/><rect class="cls-1" x="149.15" y="64.32" width="0.59" height="0.59"/><circle class="cls-10" cx="149.45" cy="64.61" r="0.3"/><rect class="cls-1" x="97.17" y="73.97" width="4.07" height="4.07"/><circle class="cls-10" cx="99.21" cy="76" r="2.03"/><rect class="cls-1" x="141.87" y="171.29" width="3.09" height="3.09"/><circle class="cls-10" cx="143.42" cy="172.83" r="1.55"/><rect class="cls-1" x="193.43" y="160.72" width="3.77" height="3.77"/><circle class="cls-10" cx="195.32" cy="162.61" r="1.89"/><rect class="cls-1" x="244.02" y="149.89" width="3.2" height="3.2"/><circle class="cls-10" cx="245.62" cy="151.49" r="1.6"/><rect class="cls-1" x="297.37" y="137.28" width="1.78" height="1.78"/><circle class="cls-10" cx="298.26" cy="138.17" r="0.89"/><rect class="cls-1" x="350.09" y="120.98" width="3.92" height="3.92"/><circle class="cls-10" cx="352.05" cy="122.94" r="1.96"/><rect class="cls-1" x="399.49" y="104.11" width="1.63" height="1.63"/><circle class="cls-10" cx="400.31" cy="104.92" r="0.81"/><rect class="cls-1" x="373.1" y="0.45" width="0.55" height="0.55"/><circle class="cls-10" cx="373.38" cy="0.73" r="0.28"/><rect class="cls-1" x="319.99" y="6.36" width="5.04" height="5.04"/><circle class="cls-10" cx="322.51" cy="8.88" r="2.52"/><rect class="cls-1" x="270.79" y="16.17" width="1.73" height="1.73"/><circle class="cls-10" cx="271.65" cy="17.03" r="0.86"/><rect class="cls-1" x="219.18" y="23.58" width="3.22" height="3.22"/><circle class="cls-10" cx="220.79" cy="25.19" r="1.61"/><rect class="cls-1" x="165.42" y="32.1" width="4.71" height="4.71"/><circle class="cls-10" cx="167.78" cy="34.45" r="2.36"/><rect class="cls-1" x="115.98" y="43.53" width="2.69" height="2.69"/><circle class="cls-10" cx="117.33" cy="44.88" r="1.35"/><rect class="cls-1" x="64.58" y="53" width="4.61" height="4.61"/><circle class="cls-10" cx="66.88" cy="55.31" r="2.31"/><rect class="cls-1" x="14.6" y="63.9" width="3.67" height="3.67"/><circle class="cls-10" cx="16.44" cy="65.74" r="1.83"/><rect class="cls-1" y="173.97" width="0.94" height="0.94"/><circle class="cls-10" cx="0.47" cy="174.45" r="0.47"/><rect class="cls-1" x="49.24" y="163.52" width="3.92" height="3.92"/><circle class="cls-10" cx="51.2" cy="165.48" r="1.96"/><rect class="cls-1" x="103.07" y="155" width="1.52" height="1.52"/><circle class="cls-10" cx="103.83" cy="155.76" r="0.76"/><rect class="cls-1" x="152.58" y="143.22" width="3.18" height="3.18"/><circle class="cls-10" cx="154.17" cy="144.82" r="1.59"/><rect class="cls-1" x="204.22" y="132.33" width="2.26" height="2.26"/><circle class="cls-10" cx="205.35" cy="133.46" r="1.13"/><rect class="cls-1" x="253.24" y="119.37" width="4.5" height="4.5"/><circle class="cls-10" cx="255.48" cy="121.62" r="2.25"/><rect class="cls-1" x="306.86" y="104.34" width="2.48" height="2.48"/><circle class="cls-10" cx="308.1" cy="105.58" r="1.24"/><rect class="cls-1" x="258.14" y="5.08" width="4.52" height="4.52"/><circle class="cls-10" cx="260.4" cy="7.34" r="2.26"/><rect class="cls-1" x="208.01" y="13.83" width="3" height="3"/><circle class="cls-10" cx="209.52" cy="15.33" r="1.5"/><rect class="cls-1" x="157.23" y="21.93" width="2.79" height="2.79"/><circle class="cls-10" cx="158.63" cy="23.32" r="1.4"/><rect class="cls-1" x="103.43" y="31.7" width="4.14" height="4.14"/><circle class="cls-10" cx="105.5" cy="33.77" r="2.07"/><rect class="cls-1" x="53.84" y="43.11" width="2.49" height="2.49"/><circle class="cls-10" cx="55.09" cy="44.36" r="1.25"/><rect class="cls-1" x="4.24" y="54.52" width="0.87" height="0.87"/><circle class="cls-10" cx="4.67" cy="54.95" r="0.43"/><rect class="cls-1" x="54.4" y="148.81" width="3.29" height="3.29"/><circle class="cls-10" cx="56.05" cy="150.45" r="1.65"/><rect class="cls-1" x="104.94" y="139.33" width="3.51" height="3.51"/><circle class="cls-10" cx="106.7" cy="141.08" r="1.76"/><rect class="cls-1" x="156.91" y="127.66" width="5.05" height="5.05"/><circle class="cls-10" cx="159.43" cy="130.18" r="2.52"/><rect class="cls-1" x="208.33" y="117.24" width="2.55" height="2.55"/><circle class="cls-10" cx="209.61" cy="118.52" r="1.28"/><rect class="cls-1" x="260.34" y="103.31" width="4.69" height="4.69"/><circle class="cls-10" cx="262.69" cy="105.66" r="2.35"/><rect class="cls-1" x="244.32" width="1.62" height="1.62"/><circle class="cls-10" cx="245.12" cy="0.81" r="0.81"/><rect class="cls-1" x="190.79" y="15.78" width="2.79" height="2.79"/><circle class="cls-10" cx="192.19" cy="17.18" r="1.4"/><rect class="cls-1" x="143.17" y="34.55" width="1.64" height="1.64"/><circle class="cls-10" cx="143.99" cy="35.37" r="0.82"/></g></g></g></g></svg>