<svg xmlns="http://www.w3.org/2000/svg" viewBox="0 0 117.43 161.81"><defs><style>.cls-1{opacity:0.69;}.cls-2{fill:#ebe6e2;}.cls-3{fill:#d2bfa1;}.cls-4{fill:#c4af8f;}.cls-5{fill:#4c6e7e;}.cls-6{fill:#a9bdc2;}.cls-7{fill:#a8bbc0;}.cls-8{fill:#75959d;}.cls-9{fill:#c5cfd1;}.cls-10{fill:#658793;}.cls-11{fill:#eaa175;}.cls-12{fill:#423530;}.cls-13{fill:#de7e5a;}.cls-14{fill:#fcfcfc;}.cls-15{fill:#292423;}.cls-16{fill:#9db2b5;}.cls-17{fill:#e9996e;}.cls-18{fill:#b57a5d;}</style></defs><title>Asset 41</title><g id="Layer_2" data-name="Layer 2"><g id="quYuan"><g class="cls-1"><path class="cls-2" d="M43.29,62l-7.86,9.43S31,87.71,30.19,88.76s-5.77,13.1-6.29,13.89-9.43,6.55-10,10.22S-1,138.81.05,142.47s0,19.34,0,19.34H117.43v-29s-17-31.44-15.72-55.28c-1.83-4.2-2.35-5.24-2.62-7.08-3.4-3.14-19.38-14.15-22.53-25.94,0,0-2.65-1.21-2.85-1.27s-.92.88-1.14.72-1.25-1.45-1.48-1.31.93,1.78.14,2.3S56.3,61,54.55,61.34C52.28,56.8,50.88,49,50.88,49s-2.53,3.15-2.18,3.85-4.37,6.63-4.37,6.63l-.17,1.75Z"/><path class="cls-3" d="M74.73,46.32S55.34,71,51.85,72.08c-.88-4.1-1.23-6.2-1.23-6.2l20.61-21-.14-2.3,2.23.83Z"/><path class="cls-4" d="M50.74,49.3l.14,16.58L54.41,62S52.21,50.45,50.74,49.3Z"/><path class="cls-5" d="M74.73,46.32s1.62-1,1.18-1.64a6.67,6.67,0,0,0-2.2-1.47l-.47.31Z"/><path class="cls-6" d="M76,44.22s4.35,7.58,3.92,8.58C72.81,69.47,49.33,86.47,38.57,93c1.14-7.51,1.92-8.38,2.53-11.52,1,.26,32.27-30.9,33.63-37.21"/><path class="cls-7" d="M51.32,49S48,53.37,48,54.61c-1.17.7-3.68,4.89-3.68,4.89s.48,17.22,1.81,17.77c1.67-1.53,5.55-5.19,5.55-5.19S50.54,50.9,51.32,49Z"/><path class="cls-8" d="M37,103.3c-1.71,0-5.5.27-5.24,2.36s4.58-1.18,4.58-1.18Z"/><path class="cls-9" d="M79.31,103.3s6.42,58.51,11.31,58.51H29.31s5.42-37.33,6.12-42.92-3.67-13.23-3.67-13.23l6.81-1.61s4,2,5.07,2.31c3.77.55,7.83-2.73,14.71-2.6s5.18,2.91,10.48,2.6S75,103.17,79.31,103.3Z"/><path class="cls-10" d="M79.93,114.35s-20.31,7.16-31.75,0c-1.75-.87-5.42-.87-6.73,0s-4.77,3.15-6,2.71a4.31,4.31,0,0,1-1.72-1s-1.66,1.57,1,2.27a13.2,13.2,0,0,0,3.84.61s-3.74,1.32-3.44,2.23-.49,5.46,1.17,5.37,6.72-5.85,6-7.16S45.51,132,45.51,132l3.8,10.75L59.25,161v.86h2.38s-15.72-26.15-16.51-38.46c3,6.15,15.46,30.52,17.55,31.7s8.39,6.76,8.39,6.76h2.49L65,154.4,55,137.75l-5-9.56,3.4-6.68-3.93-4.06s5.91,3.15,7.15,3.54,12.83,1.7,23.34-4.19Z"/><path class="cls-11" d="M71.22,43.21s-3.68-9.87-2.77-11.31,4.84-3.88,4.31-8.47S69.09,20.25,66,20.9a37,37,0,0,0,0,7.86c-1.83-1.31-2-6.79-2-8.38S63.46,9.11,61.23,7.67,50.91,5.05,48,5.71a5.33,5.33,0,0,0-3.68,3.66l-3.66,7.47s.52,6.09.65,6.42-2.16,7.4-.65,11.72,2.88,7.64,2.88,7.64h1.31c0-1.41,2.81-1.69,2.81,0,1.9-.16,6.74,0,6.74,0l.4,2.58s-1.17,3.63-4.64,2.95C51.47,51.6,54.41,62,54.41,62L71.23,44.92Z"/><path class="cls-12" d="M42.5,34.2a3.94,3.94,0,0,1,3-1.51c1.77.07,6,2.43,6.55,3.15,0,1.31-.13,2.75-1.38,1.24a6.36,6.36,0,0,0-5.37-2.82c-2.75,0-3.21,3-3.21,3-.68-.34-.28-2.23.46-3"/><path class="cls-12" d="M43.35,42.88c.92,1.61,2.24,5.93,4.66,5.54s6.77.66,6.87-2.43.66-3.92-1.57-4a51,51,0,0,0-5.64.28c0-1.85-2.88-1.33-2.81,0H43.55Z"/><circle class="cls-12" cx="45.73" cy="39.85" r="0.74"/><path class="cls-13" d="M42.76,36.56c.85-.85,3.43-3,7.41,0-1.05,1.9-2.79,2.09-4.44,2.09S42.76,36.56,42.76,36.56Z"/><path class="cls-12" d="M48.53,16.45H55.6c1.57.52,2.56,1.31,2.49,1.57a4.64,4.64,0,0,1-1.94-.79H52a3.61,3.61,0,0,1-2.1.46C48.4,17.69,48.53,16.45,48.53,16.45Z"/><path class="cls-12" d="M45.32,16.45H40.86s-.92,1.11,0,1.11h4.46C45.84,17.56,45.71,16.45,45.32,16.45Z"/><path class="cls-14" d="M49.77,20.77c.85-1.11,2.62-2.16,5.11,0-1.44,1-1.83,1.31-2.88,1.18A5.24,5.24,0,0,1,49.77,20.77Z"/><path class="cls-14" d="M41.69,20.31c.66-.28,3-.59,3.3.72s-2.82.95-2.82.95C41.58,21.69,41.17,20.54,41.69,20.31Z"/><path class="cls-15" d="M69.32,38.19l1.83.46s-1.4-1.09-.35-3.61,10.91-14.31,7.68-22.17S71.41.38,66.26.29c-5.59-1-19.4.55-21.41,7.88l1.23-1.5a5.26,5.26,0,0,1,3.69-1.14,83.86,83.86,0,0,1,8.88,1.14c.44.12,1.2.35,3.11,2.18S63.58,19,63.58,19.33s.75,9.26,2.37,9.43c-.22-3.84,0-7.86,0-7.86s3.72-.91,4.4-.5A3.56,3.56,0,0,1,72.16,25c-1,3-4.25,7.68-4.25,7.68Z"/><path class="cls-16" d="M74.6,5.52h1.79l3.23,6.39v.43s10.13,20.34,21.22,21.09c-2.71,3-13.19.39-19.48-14.1,4.28,9.87,12.32,22.42,18.26,23.88-7.08.31-8.3.49-8.3.49s-13-16-12.19-26.7a21.9,21.9,0,0,0-.89-4.72Z"/><path class="cls-15" d="M76.39,5.52s1-2.63,2.74-2.7,5-.56,6.21,2.7-1,6.54-2.62,6.6a15.09,15.09,0,0,1-3.1-.21Z"/><circle cx="51.63" cy="20.38" r="0.7"/><circle cx="42.76" cy="20.75" r="0.7"/><path class="cls-17" d="M46.17,20.2s-1.92,8-3.06,8.74c.09.87.09,2.44,1.49,2.35a17.12,17.12,0,0,1,3.75,0c.35.17,2.8-1.05,1.84-1.93S48.35,27.71,48,27.45a5.44,5.44,0,0,1-.78-1.69l1.66-6.43Z"/><path class="cls-18" d="M46.6,30.86a.69.69,0,0,1,1.31,0C48.18,31.64,46.6,30.86,46.6,30.86Z"/><polygon class="cls-18" points="43.63 30.39 44.77 30.39 44.77 30.8 44.2 31.21 43.63 30.39"/></g></g></g></svg>