<svg xmlns="http://www.w3.org/2000/svg" viewBox="0 0 115.96 92.06"><defs><style>.cls-1{fill:#204c07;}.cls-2{fill:#a47733;}.cls-3{fill:#dcccaf;}.cls-4{fill:#7f5216;}</style></defs><title>Asset 31</title><g id="Layer_2" data-name="Layer 2"><g id="stickyRice"><path class="cls-1" d="M42.83,88.08s21.93-3.16,27.71-5.77c-.76-.48,3.46-.39,3.46-.39s39.42-6.49,39.71-6.43c.6.13-79.62-3.58-79.62-3.58Z"/><path class="cls-1" d="M43,46.41,26,65.49,37.4,88.54A14.27,14.27,0,0,0,43.55,88c3.58-1.06,3.92-42.62,3.92-42.62Z"/><path class="cls-2" d="M46.88,0S68.26,9.4,71.44,12.76s10.07,6.18,13.42,12.36,4.6,11.13,6.36,12.72S104.29,52.33,105.88,53s2.3,5.57,4.77,7.34,4.95,2.56,4.77,6.44S114,72,114.45,75s-15.63,1.68-18.1,2.91-21,1.77-23.32,2.92-32,6.55-34.57,7.75c-4.19,1.93-.65-36.6,3.74-39.82,2.37-1.73,2.81-12.91,2.47-12.63-1.06.92-3.42-17.84-3.62-20C41,15.6,43.56-.89,46.88,0Z"/><path class="cls-1" d="M27.31,64A245.48,245.48,0,0,1,0,92.06c5.38-.27,35.42-1.5,39.65-4"/><path class="cls-1" d="M72.65,13.88s-1.73,5.24-2.79,6,1.85,8.75,0,11,5,10.2,6.22,10.2S71.45,53.83,79.66,58.2s11,.53,19,8.35,13.86,10.2,15.31,9.4,2-10.86,2-11.65-8.48-7.56-8.61-10.07-14.75-13-14.93-15.77-5.83-8.63-6.27-10.78C87.21,25.34,74.9,13.62,72.65,13.88Z"/><path class="cls-3" d="M41.11,13.13S52.88,0,86,26.12c.66,1,1.49,2,.32,2.14C54.7,2.65,42.83,14.48,41.11,15.62,39.78,15.21,41.11,13.13,41.11,13.13Z"/><path class="cls-3" d="M44.16,36.61S62.26,16.2,90,32.1c2.71,1.57,1.18,3.38,1.18,3.38C87.3,28.81,62.25,20.62,44.81,38.4,43.31,38.31,44.16,36.61,44.16,36.61Z"/><path class="cls-3" d="M72.65,13.88c0,.25,2-.78,5,2.41,4,4.27,10.8,41.07-3.62,65.63-.44.6-3.46,1.94-3.46-.29C80.57,68.24,87.68,26.82,72.65,13.88Z"/><path class="cls-4" d="M59.77,72.7c-.05.74-1.24,1.14-1.73,1.56A3.84,3.84,0,0,0,56.9,76c-.3.85,1.05,1.21,1.34.37.57-1.64,2.8-1.75,2.92-3.67.06-.89-1.33-.89-1.39,0Z"/><path class="cls-4" d="M52.78,76a4.35,4.35,0,0,1-.69,2.83c-.49.76.71,1.45,1.2.7A5.63,5.63,0,0,0,54.17,76c-.08-.88-1.47-.89-1.39,0Z"/><path class="cls-4" d="M48.58,77.22a3.55,3.55,0,0,0-.38,3.21c.31.83,1.66.47,1.34-.37a2.24,2.24,0,0,1,.24-2.14c.51-.74-.7-1.44-1.2-.7Z"/><path class="cls-4" d="M43.43,77.85a2.4,2.4,0,0,1,.62,2,.71.71,0,0,0,.49.85.68.68,0,0,0,.85-.48,3.86,3.86,0,0,0-1-3.31c-.61-.66-1.59.33-1,1Z"/><path class="cls-4" d="M44.47,85.59a.7.7,0,0,0,0-1.39.7.7,0,0,0,0,1.39Z"/><path class="cls-4" d="M47.91,85.59a.7.7,0,0,0,0-1.39.7.7,0,0,0,0,1.39Z"/><path class="cls-4" d="M53.18,84.2a4.3,4.3,0,0,0,1.14-2c.21-.87-1.13-1.25-1.34-.37a2.86,2.86,0,0,1-.78,1.41.69.69,0,0,0,1,1Z"/><path class="cls-4" d="M60.28,79a11.33,11.33,0,0,0-1,2.44c-.22.87,1.13,1.24,1.34.37a9.3,9.3,0,0,1,.81-2.11c.41-.79-.79-1.49-1.2-.7Z"/><path class="cls-4" d="M66.17,79.69a7.5,7.5,0,0,1-.06-2c.08-.89-1.32-.88-1.39,0a9,9,0,0,0,.11,2.32c.14.88,1.48.5,1.34-.37Z"/><path class="cls-4" d="M72.39,70.06v2.25a.7.7,0,0,0,1.39,0V70.06a.7.7,0,0,0-1.39,0Z"/><path class="cls-4" d="M80,76.78a14.71,14.71,0,0,1-.64,1.67c-.36.81.84,1.52,1.2.7a18,18,0,0,0,.78-2c.29-.85-1.06-1.22-1.34-.37Z"/><path class="cls-4" d="M83,73.5V75a.7.7,0,0,0,1.39,0V73.5a.7.7,0,0,0-1.39,0Z"/><path class="cls-4" d="M86.55,68.34a10,10,0,0,0,.77,3,.71.71,0,0,0,1,.25.72.72,0,0,0,.25-1,8,8,0,0,1-.59-2.3c-.09-.88-1.49-.89-1.39,0Z"/><path class="cls-4" d="M87.92,74.62A5.61,5.61,0,0,1,88,76.15c-.06.9,1.33.89,1.39,0a6.76,6.76,0,0,0-.16-1.9c-.19-.88-1.53-.51-1.34.37Z"/><path class="cls-4" d="M92.83,70a.7.7,0,0,0,0-1.39.7.7,0,0,0,0,1.39Z"/><path class="cls-4" d="M92.11,72.84l.17,1.86c.07.88,1.47.89,1.39,0l-.16-1.86c-.08-.88-1.47-.89-1.4,0Z"/><path class="cls-4" d="M98.53,74.73a.7.7,0,0,0,0-1.39.7.7,0,0,0,0,1.39Z"/></g></g></svg>